<?xml version="1.0" encoding="utf-8" standalone="no"?>
<!DOCTYPE svg PUBLIC "-//W3C//DTD SVG 1.1//EN"
  "http://www.w3.org/Graphics/SVG/1.1/DTD/svg11.dtd">
<svg xmlns:xlink="http://www.w3.org/1999/xlink" width="460.8pt" height="345.6pt" viewBox="0 0 460.8 345.6" xmlns="http://www.w3.org/2000/svg" version="1.1">
 <metadata>
  <rdf:RDF xmlns:dc="http://purl.org/dc/elements/1.1/" xmlns:cc="http://creativecommons.org/ns#" xmlns:rdf="http://www.w3.org/1999/02/22-rdf-syntax-ns#">
   <cc:Work>
    <dc:type rdf:resource="http://purl.org/dc/dcmitype/StillImage"/>
    <dc:date>2023-03-25T18:07:15.147381</dc:date>
    <dc:format>image/svg+xml</dc:format>
    <dc:creator>
     <cc:Agent>
      <dc:title>Matplotlib v3.5.2, https://matplotlib.org/</dc:title>
     </cc:Agent>
    </dc:creator>
   </cc:Work>
  </rdf:RDF>
 </metadata>
 <defs>
  <style type="text/css">*{stroke-linejoin: round; stroke-linecap: butt}</style>
 </defs>
 <g id="figure_1">
  <g id="patch_1">
   <path d="M 0 345.6 
L 460.8 345.6 
L 460.8 0 
L 0 0 
z
" style="fill: #ffffff"/>
  </g>
  <g id="axes_1">
   <g id="patch_2">
    <path d="M 57.6 307.584 
L 414.72 307.584 
L 414.72 41.472 
L 57.6 41.472 
z
" style="fill: #ffffff"/>
   </g>
   <g id="matplotlib.axis_1">
    <g id="xtick_1">
     <g id="line2d_1">
      <defs>
       <path id="m23476ea190" d="M 0 0 
L 0 3.5 
" style="stroke: #000000; stroke-width: 0.8"/>
      </defs>
      <g>
       <use xlink:href="#m23476ea190" x="73.832727" y="307.584" style="stroke: #000000; stroke-width: 0.8"/>
      </g>
     </g>
     <g id="text_1">
      <!-- 0 -->
      <g transform="translate(71.332727 321.459)scale(0.1 -0.1)">
       <defs>
        <path id="SimHei-30" d="M 225 2537 
Q 250 3200 412 3587 
Q 575 3975 875 4225 
Q 1175 4475 1612 4475 
Q 2050 4475 2375 4112 
Q 2700 3750 2800 3200 
Q 2900 2650 2862 1937 
Q 2825 1225 2612 775 
Q 2400 325 1975 150 
Q 1550 -25 1125 187 
Q 700 400 525 750 
Q 350 1100 275 1487 
Q 200 1875 225 2537 
z
M 750 2687 
Q 675 2000 800 1462 
Q 925 925 1212 700 
Q 1500 475 1800 612 
Q 2100 750 2237 1162 
Q 2375 1575 2375 2062 
Q 2375 2550 2337 2950 
Q 2300 3350 2112 3675 
Q 1925 4000 1612 4012 
Q 1300 4025 1062 3700 
Q 825 3375 750 2687 
z
" transform="scale(0.015625)"/>
       </defs>
       <use xlink:href="#SimHei-30"/>
      </g>
     </g>
    </g>
    <g id="xtick_2">
     <g id="line2d_2">
      <g>
       <use xlink:href="#m23476ea190" x="138.77013" y="307.584" style="stroke: #000000; stroke-width: 0.8"/>
      </g>
     </g>
     <g id="text_2">
      <!-- 20 -->
      <g transform="translate(133.77013 321.459)scale(0.1 -0.1)">
       <defs>
        <path id="SimHei-32" d="M 300 250 
Q 325 625 650 925 
Q 975 1225 1475 1862 
Q 1975 2500 2125 2850 
Q 2275 3200 2237 3450 
Q 2200 3700 2000 3862 
Q 1800 4025 1537 4000 
Q 1275 3975 1037 3800 
Q 800 3625 675 3275 
L 200 3350 
Q 400 3925 712 4187 
Q 1025 4450 1450 4475 
Q 1700 4500 1900 4462 
Q 2100 4425 2312 4287 
Q 2525 4150 2662 3875 
Q 2800 3600 2762 3212 
Q 2725 2825 2375 2287 
Q 2025 1750 1025 600 
L 2825 600 
L 2825 150 
L 300 150 
L 300 250 
z
" transform="scale(0.015625)"/>
       </defs>
       <use xlink:href="#SimHei-32"/>
       <use xlink:href="#SimHei-30" x="50"/>
      </g>
     </g>
    </g>
    <g id="xtick_3">
     <g id="line2d_3">
      <g>
       <use xlink:href="#m23476ea190" x="203.707533" y="307.584" style="stroke: #000000; stroke-width: 0.8"/>
      </g>
     </g>
     <g id="text_3">
      <!-- 40 -->
      <g transform="translate(198.707533 321.459)scale(0.1 -0.1)">
       <defs>
        <path id="SimHei-34" d="M 2000 1100 
L 75 1100 
L 75 1525 
L 2100 4450 
L 2475 4450 
L 2475 1525 
L 3075 1525 
L 3075 1100 
L 2475 1100 
L 2475 150 
L 2000 150 
L 2000 1100 
z
M 2000 1525 
L 2000 3500 
L 600 1525 
L 2000 1525 
z
" transform="scale(0.015625)"/>
       </defs>
       <use xlink:href="#SimHei-34"/>
       <use xlink:href="#SimHei-30" x="50"/>
      </g>
     </g>
    </g>
    <g id="xtick_4">
     <g id="line2d_4">
      <g>
       <use xlink:href="#m23476ea190" x="268.644936" y="307.584" style="stroke: #000000; stroke-width: 0.8"/>
      </g>
     </g>
     <g id="text_4">
      <!-- 60 -->
      <g transform="translate(263.644936 321.459)scale(0.1 -0.1)">
       <defs>
        <path id="SimHei-36" d="M 250 1612 
Q 275 1975 387 2225 
Q 500 2475 725 2850 
L 1750 4450 
L 2325 4450 
L 1275 2800 
Q 1950 2975 2350 2750 
Q 2750 2525 2887 2237 
Q 3025 1950 3037 1612 
Q 3050 1275 2937 950 
Q 2825 625 2537 362 
Q 2250 100 1737 75 
Q 1225 50 862 262 
Q 500 475 362 862 
Q 225 1250 250 1612 
z
M 1025 787 
Q 1250 550 1625 525 
Q 2000 500 2250 775 
Q 2500 1050 2500 1575 
Q 2500 2100 2187 2300 
Q 1875 2500 1487 2450 
Q 1100 2400 925 2075 
Q 750 1750 775 1387 
Q 800 1025 1025 787 
z
" transform="scale(0.015625)"/>
       </defs>
       <use xlink:href="#SimHei-36"/>
       <use xlink:href="#SimHei-30" x="50"/>
      </g>
     </g>
    </g>
    <g id="xtick_5">
     <g id="line2d_5">
      <g>
       <use xlink:href="#m23476ea190" x="333.582339" y="307.584" style="stroke: #000000; stroke-width: 0.8"/>
      </g>
     </g>
     <g id="text_5">
      <!-- 80 -->
      <g transform="translate(328.582339 321.459)scale(0.1 -0.1)">
       <defs>
        <path id="SimHei-38" d="M 175 1375 
Q 175 1675 325 1962 
Q 475 2250 825 2425 
Q 525 2600 425 2812 
Q 325 3025 312 3300 
Q 300 3575 387 3775 
Q 475 3975 650 4150 
Q 825 4325 1037 4387 
Q 1250 4450 1500 4450 
Q 1750 4450 1950 4400 
Q 2150 4350 2375 4187 
Q 2600 4025 2700 3725 
Q 2800 3425 2687 3025 
Q 2575 2625 2100 2400 
Q 2525 2275 2700 2012 
Q 2875 1750 2875 1375 
Q 2875 1000 2762 775 
Q 2650 550 2512 400 
Q 2375 250 2137 162 
Q 1900 75 1537 75 
Q 1175 75 912 162 
Q 650 250 475 425 
Q 300 600 237 837 
Q 175 1075 175 1375 
z
M 687 1400 
Q 675 1100 787 875 
Q 900 650 1200 587 
Q 1500 525 1825 600 
Q 2150 675 2275 950 
Q 2400 1225 2362 1500 
Q 2325 1775 2050 1962 
Q 1775 2150 1450 2125 
Q 1125 2100 912 1900 
Q 700 1700 687 1400 
z
M 775 3350 
Q 775 3100 950 2875 
Q 1125 2650 1500 2650 
Q 1875 2650 2062 2875 
Q 2250 3100 2237 3412 
Q 2225 3725 2012 3875 
Q 1800 4025 1437 4000 
Q 1075 3975 925 3787 
Q 775 3600 775 3350 
z
" transform="scale(0.015625)"/>
       </defs>
       <use xlink:href="#SimHei-38"/>
       <use xlink:href="#SimHei-30" x="50"/>
      </g>
     </g>
    </g>
    <g id="xtick_6">
     <g id="line2d_6">
      <g>
       <use xlink:href="#m23476ea190" x="398.519741" y="307.584" style="stroke: #000000; stroke-width: 0.8"/>
      </g>
     </g>
     <g id="text_6">
      <!-- 100 -->
      <g transform="translate(391.019741 321.459)scale(0.1 -0.1)">
       <defs>
        <path id="SimHei-31" d="M 1400 3600 
Q 1075 3275 575 2975 
L 575 3450 
Q 1200 3875 1600 4450 
L 1900 4450 
L 1900 150 
L 1400 150 
L 1400 3600 
z
" transform="scale(0.015625)"/>
       </defs>
       <use xlink:href="#SimHei-31"/>
       <use xlink:href="#SimHei-30" x="50"/>
       <use xlink:href="#SimHei-30" x="100"/>
      </g>
     </g>
    </g>
    <g id="text_7">
     <!-- 时间/s -->
     <g transform="translate(221.16 334.716812)scale(0.1 -0.1)">
      <defs>
       <path id="SimHei-65f6" d="M 2525 4575 
Q 2500 3675 2500 2400 
Q 2500 1125 2525 400 
L 2000 400 
L 2000 875 
L 1000 875 
L 1000 50 
L 475 50 
Q 500 1200 500 2350 
Q 500 3525 475 4575 
L 2525 4575 
z
M 4875 3825 
Q 4875 4575 4850 5225 
L 5400 5225 
Q 5375 4575 5375 3825 
Q 5750 3825 6175 3850 
L 6175 3375 
Q 5750 3400 5375 3400 
L 5375 50 
Q 5375 -325 5075 -425 
Q 4775 -525 4300 -575 
Q 4300 -275 4025 0 
Q 4500 -50 4687 -25 
Q 4875 0 4875 300 
L 4875 3400 
Q 3625 3400 2775 3375 
L 2775 3850 
Q 3575 3825 4875 3825 
z
M 2000 1300 
L 2000 2550 
L 1000 2550 
L 1000 1300 
L 2000 1300 
z
M 2000 2975 
L 2000 4150 
L 1000 4150 
L 1000 2975 
L 2000 2975 
z
M 3550 2725 
Q 3875 2200 4175 1600 
Q 3925 1525 3650 1375 
Q 3450 1975 3075 2500 
Q 3300 2600 3550 2725 
z
" transform="scale(0.015625)"/>
       <path id="SimHei-95f4" d="M 4450 3550 
Q 4425 3075 4425 2725 
L 4425 1400 
Q 4425 1075 4450 625 
L 1925 625 
Q 1950 1075 1950 1425 
L 1950 2725 
Q 1950 3075 1925 3550 
L 4450 3550 
z
M 5800 4875 
Q 5775 4400 5775 3925 
L 5775 250 
Q 5800 -325 5462 -450 
Q 5125 -575 4725 -625 
Q 4700 -325 4525 -25 
Q 5000 -50 5137 25 
Q 5275 100 5275 350 
L 5275 4450 
L 3775 4450 
Q 3175 4450 2650 4425 
L 2650 4900 
Q 3175 4875 3775 4875 
L 5800 4875 
z
M 550 -525 
Q 600 -25 600 525 
L 600 3150 
Q 600 3675 550 4025 
L 1125 4025 
Q 1100 3650 1100 3300 
L 1100 500 
Q 1100 0 1125 -525 
L 550 -525 
z
M 3950 1025 
L 3950 1950 
L 2425 1950 
L 2425 1025 
L 3950 1025 
z
M 3950 2350 
L 3950 3150 
L 2425 3150 
L 2425 2350 
L 3950 2350 
z
M 1525 5300 
Q 1750 5000 2225 4350 
Q 1950 4225 1700 4075 
Q 1450 4575 1075 5025 
Q 1350 5225 1525 5300 
z
" transform="scale(0.015625)"/>
       <path id="SimHei-2f" d="M 3000 4550 
L 350 -175 
L 100 -25 
L 2750 4700 
L 3000 4550 
z
" transform="scale(0.015625)"/>
       <path id="SimHei-73" d="M 2750 900 
Q 2750 500 2437 287 
Q 2125 75 1650 75 
Q 1050 75 725 312 
Q 400 550 400 1000 
L 900 1000 
Q 900 700 1112 600 
Q 1325 500 1625 500 
Q 1925 500 2075 612 
Q 2225 725 2225 900 
Q 2225 1025 2100 1150 
Q 1975 1275 1475 1350 
Q 900 1425 687 1637 
Q 475 1850 475 2200 
Q 475 2500 762 2737 
Q 1050 2975 1600 2975 
Q 2100 2975 2387 2750 
Q 2675 2525 2675 2150 
L 2175 2150 
Q 2175 2375 2012 2462 
Q 1850 2550 1600 2550 
Q 1275 2550 1137 2437 
Q 1000 2325 1000 2175 
Q 1000 2000 1125 1900 
Q 1250 1800 1650 1750 
Q 2300 1650 2525 1437 
Q 2750 1225 2750 900 
z
" transform="scale(0.015625)"/>
      </defs>
      <use xlink:href="#SimHei-65f6"/>
      <use xlink:href="#SimHei-95f4" x="100"/>
      <use xlink:href="#SimHei-2f" x="200"/>
      <use xlink:href="#SimHei-73" x="250"/>
     </g>
    </g>
   </g>
   <g id="matplotlib.axis_2">
    <g id="ytick_1">
     <g id="line2d_7">
      <defs>
       <path id="mecac8dbe9e" d="M 0 0 
L -3.5 0 
" style="stroke: #000000; stroke-width: 0.8"/>
      </defs>
      <g>
       <use xlink:href="#mecac8dbe9e" x="57.6" y="281.49796" style="stroke: #000000; stroke-width: 0.8"/>
      </g>
     </g>
     <g id="text_8">
      <!-- -0.75 -->
      <g transform="translate(25.6 284.93546)scale(0.1 -0.1)">
       <defs>
        <path id="SimHei-2d" d="M 2975 2125 
L 125 2125 
L 125 2525 
L 2975 2525 
L 2975 2125 
z
" transform="scale(0.015625)"/>
        <path id="SimHei-2e" d="M 1075 125 
L 500 125 
L 500 675 
L 1075 675 
L 1075 125 
z
" transform="scale(0.015625)"/>
        <path id="SimHei-37" d="M 850 150 
Q 1300 2050 2425 3925 
L 275 3925 
L 275 4375 
L 2950 4375 
L 2950 3950 
Q 1775 2050 1400 150 
L 850 150 
z
" transform="scale(0.015625)"/>
        <path id="SimHei-35" d="M 550 1325 
Q 725 650 1150 575 
Q 1575 500 1837 662 
Q 2100 825 2212 1087 
Q 2325 1350 2312 1675 
Q 2300 2000 2137 2225 
Q 1975 2450 1725 2525 
Q 1475 2600 1162 2525 
Q 850 2450 650 2175 
L 225 2225 
Q 275 2375 700 4375 
L 2675 4375 
L 2675 3925 
L 1075 3925 
Q 950 3250 825 2850 
Q 1200 3025 1525 3012 
Q 1850 3000 2150 2862 
Q 2450 2725 2587 2487 
Q 2725 2250 2787 2012 
Q 2850 1775 2837 1500 
Q 2825 1225 2725 937 
Q 2625 650 2425 462 
Q 2225 275 1937 162 
Q 1650 50 1275 75 
Q 900 100 562 350 
Q 225 600 100 1200 
L 550 1325 
z
" transform="scale(0.015625)"/>
       </defs>
       <use xlink:href="#SimHei-2d"/>
       <use xlink:href="#SimHei-30" x="50"/>
       <use xlink:href="#SimHei-2e" x="100"/>
       <use xlink:href="#SimHei-37" x="150"/>
       <use xlink:href="#SimHei-35" x="200"/>
      </g>
     </g>
    </g>
    <g id="ytick_2">
     <g id="line2d_8">
      <g>
       <use xlink:href="#mecac8dbe9e" x="57.6" y="245.859915" style="stroke: #000000; stroke-width: 0.8"/>
      </g>
     </g>
     <g id="text_9">
      <!-- -0.50 -->
      <g transform="translate(25.6 249.297415)scale(0.1 -0.1)">
       <use xlink:href="#SimHei-2d"/>
       <use xlink:href="#SimHei-30" x="50"/>
       <use xlink:href="#SimHei-2e" x="100"/>
       <use xlink:href="#SimHei-35" x="150"/>
       <use xlink:href="#SimHei-30" x="200"/>
      </g>
     </g>
    </g>
    <g id="ytick_3">
     <g id="line2d_9">
      <g>
       <use xlink:href="#mecac8dbe9e" x="57.6" y="210.22187" style="stroke: #000000; stroke-width: 0.8"/>
      </g>
     </g>
     <g id="text_10">
      <!-- -0.25 -->
      <g transform="translate(25.6 213.65937)scale(0.1 -0.1)">
       <use xlink:href="#SimHei-2d"/>
       <use xlink:href="#SimHei-30" x="50"/>
       <use xlink:href="#SimHei-2e" x="100"/>
       <use xlink:href="#SimHei-32" x="150"/>
       <use xlink:href="#SimHei-35" x="200"/>
      </g>
     </g>
    </g>
    <g id="ytick_4">
     <g id="line2d_10">
      <g>
       <use xlink:href="#mecac8dbe9e" x="57.6" y="174.583826" style="stroke: #000000; stroke-width: 0.8"/>
      </g>
     </g>
     <g id="text_11">
      <!-- 0.00 -->
      <g transform="translate(30.6 178.021326)scale(0.1 -0.1)">
       <use xlink:href="#SimHei-30"/>
       <use xlink:href="#SimHei-2e" x="50"/>
       <use xlink:href="#SimHei-30" x="100"/>
       <use xlink:href="#SimHei-30" x="150"/>
      </g>
     </g>
    </g>
    <g id="ytick_5">
     <g id="line2d_11">
      <g>
       <use xlink:href="#mecac8dbe9e" x="57.6" y="138.945781" style="stroke: #000000; stroke-width: 0.8"/>
      </g>
     </g>
     <g id="text_12">
      <!-- 0.25 -->
      <g transform="translate(30.6 142.383281)scale(0.1 -0.1)">
       <use xlink:href="#SimHei-30"/>
       <use xlink:href="#SimHei-2e" x="50"/>
       <use xlink:href="#SimHei-32" x="100"/>
       <use xlink:href="#SimHei-35" x="150"/>
      </g>
     </g>
    </g>
    <g id="ytick_6">
     <g id="line2d_12">
      <g>
       <use xlink:href="#mecac8dbe9e" x="57.6" y="103.307737" style="stroke: #000000; stroke-width: 0.8"/>
      </g>
     </g>
     <g id="text_13">
      <!-- 0.50 -->
      <g transform="translate(30.6 106.745237)scale(0.1 -0.1)">
       <use xlink:href="#SimHei-30"/>
       <use xlink:href="#SimHei-2e" x="50"/>
       <use xlink:href="#SimHei-35" x="100"/>
       <use xlink:href="#SimHei-30" x="150"/>
      </g>
     </g>
    </g>
    <g id="ytick_7">
     <g id="line2d_13">
      <g>
       <use xlink:href="#mecac8dbe9e" x="57.6" y="67.669692" style="stroke: #000000; stroke-width: 0.8"/>
      </g>
     </g>
     <g id="text_14">
      <!-- 0.75 -->
      <g transform="translate(30.6 71.107192)scale(0.1 -0.1)">
       <use xlink:href="#SimHei-30"/>
       <use xlink:href="#SimHei-2e" x="50"/>
       <use xlink:href="#SimHei-37" x="100"/>
       <use xlink:href="#SimHei-35" x="150"/>
      </g>
     </g>
    </g>
    <g id="text_15">
     <!-- 位移/m -->
     <g transform="translate(20.35 189.528)rotate(-90)scale(0.1 -0.1)">
      <defs>
       <path id="SimHei-4f4d" d="M 2125 4925 
Q 1950 4750 1625 3750 
L 1625 575 
Q 1625 -225 1650 -650 
L 1100 -650 
Q 1150 -200 1150 550 
L 1150 2950 
Q 775 2275 550 1950 
Q 375 2275 200 2425 
Q 525 2775 912 3575 
Q 1300 4375 1500 5200 
Q 1825 5000 2125 4925 
z
M 5375 3025 
Q 5275 2875 5100 2250 
Q 4925 1625 4600 300 
L 5450 300 
Q 5925 300 6100 325 
L 6100 -175 
Q 5875 -150 5450 -150 
L 2900 -150 
Q 2275 -150 2050 -175 
L 2050 325 
Q 2275 300 2850 300 
L 4075 300 
Q 4400 1400 4700 3175 
Q 5100 3075 5375 3025 
z
M 5250 4025 
Q 5700 4025 5925 4050 
L 5925 3575 
Q 5700 3600 5225 3600 
L 3000 3600 
Q 2650 3600 2275 3575 
L 2275 4050 
Q 2675 4025 3000 4025 
L 5250 4025 
z
M 3050 3050 
Q 3500 1775 3750 725 
Q 3450 625 3250 550 
Q 3125 1125 2962 1675 
Q 2800 2225 2550 2875 
Q 2800 2925 3050 3050 
z
M 3875 5200 
Q 4175 4675 4400 4300 
Q 4200 4250 3875 4075 
Q 3700 4525 3400 4950 
Q 3650 5050 3875 5200 
z
" transform="scale(0.015625)"/>
       <path id="SimHei-79fb" d="M 4475 5050 
Q 4300 4875 4075 4500 
L 5850 4500 
Q 5475 3625 5212 3312 
Q 4950 3000 4450 2650 
Q 4675 2575 4925 2500 
Q 4775 2300 4650 2075 
L 6100 2075 
Q 5900 1325 5550 825 
Q 5200 325 4787 37 
Q 4375 -250 3900 -387 
Q 3425 -525 2950 -650 
Q 2850 -425 2600 -125 
Q 3275 -50 3712 37 
Q 4150 125 4525 400 
Q 4375 625 4000 1000 
Q 4125 1100 4325 1250 
Q 4525 1075 4900 675 
Q 5075 900 5250 1162 
Q 5425 1425 5500 1700 
L 4375 1700 
Q 4175 1500 3950 1287 
Q 3725 1075 3350 800 
Q 3150 1025 2950 1150 
Q 3600 1525 3875 1837 
Q 4150 2150 4325 2550 
Q 4025 2350 3750 2225 
Q 3475 2100 3050 1950 
Q 2950 2200 2675 2475 
Q 3150 2525 3475 2637 
Q 3800 2750 4225 3000 
Q 3875 3300 3675 3475 
Q 3775 3600 4000 3775 
Q 4325 3500 4575 3250 
Q 4775 3425 4925 3625 
Q 5075 3825 5175 4125 
L 3850 4125 
Q 3525 3600 3250 3275 
Q 3025 3425 2800 3550 
Q 3250 4000 3475 4387 
Q 3700 4775 3850 5225 
Q 4225 5100 4475 5050 
z
M 2850 4650 
Q 2650 4650 2400 4600 
Q 2150 4550 2000 4525 
L 2000 3425 
Q 2375 3425 2825 3450 
L 2825 3050 
Q 2375 3075 2000 3075 
L 2000 2175 
Q 2100 2300 2325 2525 
Q 2550 2225 2687 2062 
Q 2825 1900 3000 1675 
Q 2775 1550 2625 1375 
Q 2475 1600 2337 1737 
Q 2200 1875 2000 2100 
L 2000 525 
Q 2000 150 2025 -475 
L 1525 -475 
Q 1550 150 1550 525 
L 1550 2075 
Q 1400 1700 1237 1412 
Q 1075 1125 750 650 
Q 525 900 275 1050 
Q 450 1200 637 1425 
Q 825 1650 987 1937 
Q 1150 2225 1275 2525 
Q 1400 2825 1475 3075 
Q 1075 3075 350 3050 
L 350 3450 
Q 1075 3425 1550 3425 
L 1550 4425 
Q 925 4325 625 4250 
Q 525 4525 425 4725 
Q 825 4775 1025 4787 
Q 1225 4800 1475 4850 
L 2000 4975 
Q 2275 5050 2575 5150 
Q 2675 4900 2850 4650 
z
" transform="scale(0.015625)"/>
       <path id="SimHei-6d" d="M 3050 125 
L 2550 125 
L 2550 2150 
Q 2550 2300 2500 2400 
Q 2450 2500 2300 2500 
Q 2125 2500 1975 2312 
Q 1825 2125 1825 1825 
L 1825 125 
L 1325 125 
L 1325 2150 
Q 1325 2300 1275 2400 
Q 1225 2500 1075 2500 
Q 900 2500 750 2312 
Q 600 2125 600 1825 
L 600 125 
L 100 125 
L 100 2925 
L 600 2925 
L 600 2550 
Q 725 2750 900 2862 
Q 1075 2975 1275 2975 
Q 1475 2975 1612 2862 
Q 1750 2750 1800 2550 
Q 1925 2750 2087 2862 
Q 2250 2975 2450 2975 
Q 2750 2975 2900 2812 
Q 3050 2650 3050 2350 
L 3050 125 
z
" transform="scale(0.015625)"/>
      </defs>
      <use xlink:href="#SimHei-4f4d"/>
      <use xlink:href="#SimHei-79fb" x="100"/>
      <use xlink:href="#SimHei-2f" x="200"/>
      <use xlink:href="#SimHei-6d" x="250"/>
     </g>
    </g>
   </g>
   <g id="line2d_14">
    <path d="M 73.832727 174.583826 
L 74.189883 174.472773 
L 74.51457 174.083624 
L 74.936663 173.192791 
L 75.650975 171.050152 
L 76.592567 168.342532 
L 77.01466 167.702738 
L 77.306878 167.602373 
L 77.534159 167.749822 
L 77.826378 168.252747 
L 78.183533 169.363512 
L 78.670564 171.735559 
L 79.319938 176.189868 
L 81.332997 190.951414 
L 81.722622 192.194769 
L 81.982371 192.48356 
L 82.144715 192.42526 
L 82.339527 192.102747 
L 82.631745 191.091107 
L 83.02137 188.76037 
L 83.5084 184.368692 
L 84.190243 176.012007 
L 86.203303 149.842334 
L 86.657864 146.820856 
L 86.982551 145.856014 
L 87.177364 145.798893 
L 87.339707 146.061207 
L 87.566988 146.908344 
L 87.891675 149.085831 
L 88.313768 153.546618 
L 88.898205 162.370577 
L 89.839797 180.657168 
L 91.041139 203.028877 
L 91.593107 209.702226 
L 91.982731 212.236086 
L 92.242481 212.787845 
L 92.372356 212.706191 
L 92.567168 212.129326 
L 92.826918 210.511282 
L 93.184073 206.739571 
L 93.671104 198.939531 
L 94.352947 183.949483 
L 96.463412 134.47652 
L 96.950443 128.672962 
L 97.27513 126.889641 
L 97.469942 126.681562 
L 97.599817 126.910527 
L 97.794629 127.808402 
L 98.086847 130.391111 
L 98.476472 136.047566 
L 98.995971 147.086643 
L 99.77522 169.035727 
L 101.431123 216.653168 
L 101.983091 226.247222 
L 102.372716 229.756535 
L 102.599997 230.421964 
L 102.697403 230.385163 
L 102.859746 229.890659 
L 103.087027 228.290354 
L 103.411714 224.204597 
L 103.866276 215.164347 
L 104.483181 197.752486 
L 105.652055 156.640863 
L 106.593647 127.239235 
L 107.145615 115.988682 
L 107.535239 111.753002 
L 107.794989 110.818635 
L 107.892395 110.870656 
L 108.054739 111.448898 
L 108.282019 113.286624 
L 108.606706 117.943626 
L 109.061268 128.196305 
L 109.678174 147.858624 
L 110.911984 196.619878 
L 111.821108 227.871011 
L 112.373076 240.062453 
L 112.7627 244.48595 
L 112.989981 245.310891 
L 113.087387 245.257388 
L 113.217262 244.803963 
L 113.444543 242.963739 
L 113.76923 238.07494 
L 114.191323 228.004653 
L 114.77576 208.23308 
L 115.78229 165.060363 
L 116.886225 120.602749 
L 117.470662 104.972511 
L 117.892755 98.803727 
L 118.152505 97.397963 
L 118.249911 97.356732 
L 118.28238 97.402325 
L 118.412254 97.881615 
L 118.639535 99.858269 
L 118.964222 105.136696 
L 119.386315 116.029457 
L 119.970752 137.428541 
L 120.977282 184.155438 
L 122.081218 232.254992 
L 122.665654 249.156893 
L 123.087747 255.826318 
L 123.347497 257.348066 
L 123.444903 257.394212 
L 123.477372 257.34558 
L 123.607247 256.830848 
L 123.834527 254.703687 
L 124.159214 249.02257 
L 124.581308 237.307036 
L 125.165744 214.324514 
L 126.204743 162.602128 
L 127.27621 112.946439 
L 127.860646 94.954989 
L 128.28274 87.858861 
L 128.542489 86.234809 
L 128.639895 86.182091 
L 128.672364 86.232373 
L 128.802239 86.772791 
L 129.02952 89.017395 
L 129.354207 95.02056 
L 129.7763 107.404441 
L 130.360736 131.699679 
L 131.399735 186.390756 
L 132.471202 238.942076 
L 133.055639 258.009705 
L 133.477732 265.54915 
L 133.737481 267.290049 
L 133.834887 267.354987 
L 133.867356 267.304932 
L 133.997231 266.746217 
L 134.224512 264.396342 
L 134.549199 258.086412 
L 134.971292 245.052264 
L 135.555729 219.479605 
L 136.594727 161.989835 
L 137.666194 106.906938 
L 138.250631 86.986285 
L 138.672724 79.138215 
L 138.932474 77.342909 
L 139.02988 77.284239 
L 139.127286 77.562663 
L 139.322098 79.12783 
L 139.614316 83.954652 
L 140.003941 94.781268 
L 140.52344 116.05106 
L 141.302689 158.234534 
L 142.926124 247.47476 
L 143.478092 266.278658 
L 143.867716 273.600007 
L 144.127466 275.465643 
L 144.192403 275.544557 
L 144.224872 275.525565 
L 144.322278 275.234714 
L 144.51709 273.604073 
L 144.809309 268.580386 
L 145.198933 257.320442 
L 145.718432 235.217885 
L 146.53015 189.452194 
L 148.088647 100.490487 
L 148.673084 79.671214 
L 149.062708 72.143065 
L 149.322458 70.242015 
L 149.387395 70.167096 
L 149.419864 70.190002 
L 149.549739 70.684036 
L 149.744551 72.626657 
L 150.036769 78.189132 
L 150.426394 90.271474 
L 150.978362 115.266476 
L 151.822548 165.336955 
L 153.218702 247.790694 
L 153.803139 270.35473 
L 154.225232 279.438461 
L 154.484982 281.673878 
L 154.582388 281.832011 
L 154.614856 281.801784 
L 154.744731 281.26625 
L 154.939543 279.225502 
L 155.231762 273.439241 
L 155.621386 260.930757 
L 156.173354 235.137799 
L 157.01754 183.629861 
L 158.413694 99.154056 
L 158.998131 76.139433 
L 159.420224 66.919199 
L 159.679974 64.680751 
L 159.77738 64.53723 
L 159.809849 64.574213 
L 159.939723 65.146087 
L 160.134536 67.268737 
L 160.426754 73.236765 
L 160.848847 87.39371 
L 161.400815 114.334585 
L 162.309939 171.780424 
L 163.576218 249.919635 
L 164.160655 273.951021 
L 164.582748 283.79677 
L 164.874966 286.47908 
L 164.972372 286.596499 
L 165.004841 286.548826 
L 165.134716 285.924404 
L 165.361997 283.173394 
L 165.686684 275.681579 
L 166.108777 260.131884 
L 166.693213 229.590979 
L 167.732212 161.034091 
L 168.803679 95.552347 
L 169.388116 71.924527 
L 169.810209 62.612951 
L 170.069958 60.467059 
L 170.134896 60.369407 
L 170.199833 60.448134 
L 170.329708 61.134243 
L 170.556989 64.017907 
L 170.881676 71.748743 
L 171.303769 87.681951 
L 171.888206 118.848028 
L 172.959673 190.819818 
L 173.998671 254.949693 
L 174.583108 278.780973 
L 175.005201 288.086084 
L 175.26495 290.162992 
L 175.329888 290.23588 
L 175.362357 290.205086 
L 175.492231 289.633965 
L 175.687044 287.441088 
L 175.979262 281.21188 
L 176.368886 267.742287 
L 176.920854 239.983798 
L 177.797509 182.350501 
L 179.128726 95.845056 
L 179.713163 70.67876 
L 180.135256 60.368023 
L 180.427474 57.552261 
L 180.52488 57.425093 
L 180.557349 57.473363 
L 180.687224 58.119296 
L 180.914505 60.980494 
L 181.239192 68.78364 
L 181.661285 84.985159 
L 182.245721 116.803748 
L 183.28472 188.195846 
L 184.356187 256.310292 
L 184.940624 280.83767 
L 185.362717 290.469459 
L 185.622466 292.664685 
L 185.687404 292.756975 
L 185.719872 292.734345 
L 185.817278 292.391458 
L 186.012091 290.473752 
L 186.304309 284.576334 
L 186.693933 271.385723 
L 187.213433 245.564042 
L 188.02515 192.318753 
L 189.551179 91.326158 
L 190.135616 66.911583 
L 190.557709 57.460099 
L 190.817458 55.409974 
L 190.882396 55.357445 
L 190.914865 55.400433 
L 191.044739 56.03358 
L 191.239552 58.358188 
L 191.53177 64.867036 
L 191.953863 80.264157 
L 192.505831 109.488926 
L 193.414955 171.581771 
L 194.681234 255.528669 
L 195.265671 281.12196 
L 195.687764 291.48391 
L 195.979982 294.206838 
L 196.044919 294.302502 
L 196.077388 294.28052 
L 196.174794 293.935441 
L 196.369606 291.994987 
L 196.661825 286.019204 
L 197.051449 272.648497 
L 197.570948 246.476297 
L 198.382666 192.533524 
L 199.908695 90.357858 
L 200.493131 65.717058 
L 200.882756 56.67294 
L 201.142506 54.264271 
L 201.239912 54.127926 
L 201.27238 54.17585 
L 201.402255 54.833867 
L 201.597067 57.210647 
L 201.889286 63.828815 
L 202.311379 79.440308 
L 202.863347 109.01769 
L 203.77247 171.749443 
L 205.03875 256.357031 
L 205.623186 282.06416 
L 206.045279 292.419585 
L 206.305029 294.984817 
L 206.402435 295.176336 
L 206.434904 295.146323 
L 206.564779 294.557401 
L 206.759591 292.276066 
L 207.051809 285.780923 
L 207.441434 271.730028 
L 207.993402 242.788189 
L 208.870056 182.791212 
L 210.201273 93.053637 
L 210.78571 67.091863 
L 211.207803 56.535676 
L 211.500021 53.718335 
L 211.564959 53.606348 
L 211.629896 53.682252 
L 211.759771 54.39701 
L 211.987052 57.43881 
L 212.311739 65.622888 
L 212.733832 82.503733 
L 213.318269 115.503741 
L 214.389736 191.523333 
L 215.396265 257.200514 
L 215.980702 282.746818 
L 216.402795 292.918379 
L 216.662545 295.349022 
L 216.759951 295.486861 
L 216.79242 295.438632 
L 216.922294 294.775459 
L 217.117107 292.379549 
L 217.409325 285.709183 
L 217.831418 269.981312 
L 218.415855 238.189023 
L 219.389916 169.982979 
L 220.558789 92.284605 
L 221.143226 66.581152 
L 221.565319 56.268266 
L 221.825068 53.742533 
L 221.922474 53.568 
L 221.954943 53.603911 
L 222.084818 54.217514 
L 222.27963 56.53876 
L 222.571848 63.098825 
L 222.993942 78.678593 
L 223.54591 108.298419 
L 224.455033 171.247926 
L 225.721312 256.241172 
L 226.305749 282.081373 
L 226.727842 292.501321 
L 226.987592 295.092502 
L 227.084998 295.291145 
L 227.117467 295.263203 
L 227.214873 294.89707 
L 227.409685 292.900887 
L 227.701903 286.810818 
L 228.091528 273.241518 
L 228.643496 244.829621 
L 229.487682 187.587012 
L 230.883836 93.153811 
L 231.468273 67.264176 
L 231.890366 56.772258 
L 232.182584 54.001629 
L 232.247521 53.899971 
L 232.27999 53.919572 
L 232.377396 54.259943 
L 232.572208 56.201672 
L 232.864427 62.204645 
L 233.254051 75.653644 
L 233.77355 101.98881 
L 234.585268 156.252197 
L 236.078828 257.10152 
L 236.663265 282.37098 
L 237.085358 292.337713 
L 237.345108 294.647782 
L 237.410045 294.757828 
L 237.474982 294.680131 
L 237.604857 293.962342 
L 237.832138 290.917657 
L 238.156825 282.737371 
L 238.578918 265.882339 
L 239.195824 230.888453 
L 240.364697 148.009061 
L 241.306289 88.818921 
L 241.858257 65.950859 
L 242.247882 57.010894 
L 242.507631 54.683617 
L 242.605037 54.579391 
L 242.637506 54.638154 
L 242.767381 55.339965 
L 242.994662 58.350273 
L 243.319349 66.469207 
L 243.741442 83.228939 
L 244.325878 115.993791 
L 245.397346 191.409239 
L 246.403875 256.422895 
L 246.988312 281.615766 
L 247.410405 291.577709 
L 247.670155 293.906565 
L 247.767561 294.012505 
L 247.800029 293.954455 
L 247.929904 293.256223 
L 248.157185 290.255152 
L 248.481872 282.156722 
L 248.903965 265.438519 
L 249.488402 232.762952 
L 250.592338 155.271435 
L 251.598868 91.155621 
L 252.183304 66.751353 
L 252.572929 57.859254 
L 252.832678 55.542456 
L 252.930084 55.437628 
L 252.962553 55.495638 
L 253.092428 56.191674 
L 253.319709 59.181283 
L 253.644396 67.247701 
L 254.066489 83.900995 
L 254.650925 116.4565 
L 255.754861 193.689507 
L 256.761391 257.589727 
L 257.345828 281.887412 
L 257.735452 290.719041 
L 257.995202 293.001868 
L 258.060139 293.11069 
L 258.125077 293.034027 
L 258.254951 292.325098 
L 258.482232 289.317699 
L 258.806919 281.238031 
L 259.229012 264.592745 
L 259.845918 230.043724 
L 261.04726 145.997704 
L 261.956383 89.951168 
L 262.508351 67.469161 
L 262.897976 58.717309 
L 263.157725 56.47034 
L 263.222663 56.368202 
L 263.2876 56.450628 
L 263.417475 57.16832 
L 263.644756 60.182283 
L 263.969443 68.252745 
L 264.391536 84.856722 
L 265.008441 119.298546 
L 266.209783 203.04776 
L 267.118907 258.8423 
L 267.670875 281.172673 
L 268.060499 289.82399 
L 268.320249 292.009723 
L 268.385186 292.097532 
L 268.417655 292.072391 
L 268.515061 291.72099 
L 268.709873 289.782704 
L 269.002091 283.849719 
L 269.391716 270.615667 
L 269.943684 242.898689 
L 270.78787 187.08265 
L 272.184024 95.19852 
L 272.768461 70.127626 
L 273.190554 60.047491 
L 273.450304 57.562367 
L 273.54771 57.382314 
L 273.580178 57.413854 
L 273.710053 57.99731 
L 273.904865 60.235468 
L 274.197084 66.587059 
L 274.619177 81.696734 
L 275.171145 110.436773 
L 276.080268 171.486529 
L 277.314079 252.008524 
L 277.898516 277.528796 
L 278.320609 288.024932 
L 278.612827 290.931801 
L 278.710233 291.082943 
L 278.742702 291.041999 
L 278.872577 290.422222 
L 279.067389 288.133996 
L 279.359607 281.719319 
L 279.7817 266.550188 
L 280.333668 237.801515 
L 281.242792 176.926673 
L 282.476603 96.923053 
L 283.061039 71.672541 
L 283.483132 61.347704 
L 283.775351 58.540378 
L 283.872757 58.418328 
L 283.905225 58.468489 
L 284.0351 59.122657 
L 284.262381 61.999339 
L 284.587068 69.820568 
L 285.009161 86.021202 
L 285.593598 117.748648 
L 286.665065 190.838864 
L 287.671595 253.822932 
L 288.256031 278.185382 
L 288.678125 287.78135 
L 288.937874 289.995098 
L 289.002812 290.097282 
L 289.067749 290.018264 
L 289.197624 289.317488 
L 289.424905 286.365455 
L 289.749592 278.453725 
L 290.171685 262.173578 
L 290.78859 228.41213 
L 291.989932 146.389037 
L 292.899056 91.812939 
L 293.451024 70.000408 
L 293.840648 61.56976 
L 294.100398 59.457002 
L 294.165335 59.377902 
L 294.197804 59.40596 
L 294.327679 59.968423 
L 294.522491 62.154159 
L 294.814709 68.381595 
L 295.236802 83.222886 
L 295.78877 111.479383 
L 296.697894 171.535193 
L 297.931704 250.754074 
L 298.516141 275.847654 
L 298.938234 286.155345 
L 299.230452 288.998021 
L 299.327859 289.140284 
L 299.360327 289.097784 
L 299.490202 288.478816 
L 299.685014 286.21285 
L 299.977233 279.878182 
L 300.399326 264.918427 
L 300.983762 234.671498 
L 301.957823 169.857208 
L 303.094228 97.972445 
L 303.678665 73.193316 
L 304.100758 63.098637 
L 304.392976 60.387537 
L 304.490382 60.285441 
L 304.522851 60.340882 
L 304.652726 61.009275 
L 304.880007 63.884185 
L 305.204694 71.644403 
L 305.626787 87.667015 
L 306.211223 118.984993 
L 307.315159 193.227007 
L 308.321689 254.525063 
L 308.906126 277.73469 
L 309.29575 286.099381 
L 309.5555 288.201333 
L 309.620437 288.281953 
L 309.652906 288.255291 
L 309.78278 287.702666 
L 309.977593 285.544441 
L 310.269811 279.38677 
L 310.659435 266.059871 
L 311.211403 238.623343 
L 312.088058 181.851909 
L 313.419275 97.388426 
L 314.003712 73.217412 
L 314.425805 63.567516 
L 314.685554 61.241683 
L 314.78296 61.099574 
L 314.815429 61.14108 
L 314.945304 61.750899 
L 315.140116 63.987933 
L 315.432335 70.246707 
L 315.854428 85.035571 
L 316.438864 114.953936 
L 317.412925 179.107588 
L 318.54933 250.28424 
L 319.133766 274.800527 
L 319.55586 284.766064 
L 319.848078 287.42178 
L 319.913015 287.526295 
L 319.977953 287.453368 
L 320.107828 286.775994 
L 320.335108 283.900376 
L 320.659795 276.17307 
L 321.081889 260.253444 
L 321.698794 227.216953 
L 322.900136 146.921241 
L 323.809259 93.499328 
L 324.361227 72.163804 
L 324.750852 63.932501 
L 325.010601 61.883327 
L 325.075539 61.811226 
L 325.108008 61.841442 
L 325.237882 62.403587 
L 325.432695 64.562115 
L 325.724913 70.689701 
L 326.147006 85.268539 
L 326.698974 112.998894 
L 327.608098 171.887422 
L 328.841908 249.466201 
L 329.426345 273.981849 
L 329.848438 284.009939 
L 330.140656 286.737383 
L 330.238062 286.856223 
L 330.270531 286.807607 
L 330.400406 286.172675 
L 330.627687 283.379638 
L 330.952374 275.785741 
L 331.374467 260.058614 
L 331.958904 229.269941 
L 333.062839 156.204902 
L 334.069369 95.810993 
L 334.653806 72.898227 
L 335.04343 64.60871 
L 335.30318 62.499596 
L 335.368117 62.410086 
L 335.400586 62.431253 
L 335.497992 62.758288 
L 335.692804 64.592409 
L 335.985023 70.234687 
L 336.374647 82.848043 
L 336.926615 109.301603 
L 337.770801 162.629127 
L 339.166955 250.422382 
L 339.751392 274.310936 
L 340.173485 283.85461 
L 340.433235 286.158514 
L 340.530641 286.301102 
L 340.563109 286.260814 
L 340.692984 285.661168 
L 340.887796 283.455247 
L 341.180015 277.278346 
L 341.602108 262.679251 
L 342.186544 233.147229 
L 343.160606 169.84638 
L 344.29701 99.647271 
L 344.881447 75.469433 
L 345.30354 65.639119 
L 345.595758 63.01771 
L 345.693164 62.927979 
L 345.725633 62.985581 
L 345.855508 63.652823 
L 346.082789 66.488227 
L 346.407476 74.111288 
L 346.829569 89.823134 
L 347.446474 122.44618 
L 348.647816 201.797452 
L 349.55694 254.60595 
L 350.108908 275.679372 
L 350.498532 283.790483 
L 350.758282 285.792545 
L 350.823219 285.857182 
L 350.855688 285.823891 
L 350.985563 285.253878 
L 351.180375 283.096987 
L 351.472593 277.002438 
L 351.894686 262.53578 
L 352.446654 235.060338 
L 353.355778 176.796887 
L 354.589588 100.161772 
L 355.174025 75.980094 
L 355.596118 66.107026 
L 355.888336 63.438187 
L 355.985743 63.329724 
L 356.018211 63.380779 
L 356.148086 64.020397 
L 356.375367 66.802381 
L 356.700054 74.339844 
L 357.122147 89.929389 
L 357.706584 120.433025 
L 358.81052 192.807896 
L 359.817049 252.595671 
L 360.401486 275.233315 
L 360.79111 283.386477 
L 361.05086 285.429418 
L 361.115797 285.505729 
L 361.148266 285.47848 
L 361.278141 284.933941 
L 361.472953 282.818874 
L 361.765171 276.793915 
L 362.187265 262.437939 
L 362.739232 235.113702 
L 363.648356 177.07219 
L 364.882167 100.584413 
L 365.466603 76.388646 
L 365.888697 66.472093 
L 366.180915 63.758594 
L 366.278321 63.632902 
L 366.31079 63.677975 
L 366.440664 64.292532 
L 366.667945 67.02673 
L 366.992632 74.489 
L 367.414725 89.973346 
L 367.999162 120.330124 
L 369.070629 190.314501 
L 370.077159 250.621712 
L 370.661596 273.919102 
L 371.083689 283.06393 
L 371.343438 285.146707 
L 371.408376 285.234092 
L 371.440844 285.212535 
L 371.538251 284.887034 
L 371.733063 283.068154 
L 372.025281 277.479053 
L 372.414905 264.99176 
L 372.966873 238.815701 
L 373.81106 186.079618 
L 375.207214 99.316512 
L 375.79165 75.711237 
L 376.213744 66.277686 
L 376.473493 63.998357 
L 376.570899 63.856428 
L 376.603368 63.895907 
L 376.733243 64.487244 
L 376.928055 66.665824 
L 377.220273 72.770115 
L 377.642366 87.205476 
L 378.194334 114.570824 
L 379.103458 172.53631 
L 380.337269 248.67716 
L 380.921705 272.634018 
L 381.343798 282.362435 
L 381.636017 284.944469 
L 381.700954 285.04291 
L 381.765891 284.967662 
L 381.895766 284.296875 
L 382.123047 281.468426 
L 382.447734 273.884643 
L 382.869827 258.27498 
L 383.486733 225.897354 
L 384.688075 147.236604 
L 385.597198 94.937377 
L 386.149166 74.077754 
L 386.538791 66.053687 
L 386.79854 64.077454 
L 386.863478 64.015209 
L 386.895946 64.049089 
L 387.025821 64.617464 
L 387.220633 66.760163 
L 387.512852 72.808466 
L 387.934945 87.161804 
L 388.486913 114.426372 
L 389.396036 172.270174 
L 390.629847 248.387008 
L 391.214284 272.39423 
L 391.636377 282.17969 
L 391.928595 284.809063 
L 392.026001 284.908477 
L 392.05847 284.854876 
L 392.188345 284.207469 
L 392.415626 281.421289 
L 392.740313 273.899375 
L 393.162406 258.368887 
L 393.779311 226.093783 
L 394.980653 147.539217 
L 395.889777 95.211117 
L 396.441745 74.289917 
L 396.831369 66.206719 
L 397.091119 64.185803 
L 397.156056 64.111894 
L 397.188525 64.139883 
L 397.318399 64.684342 
L 397.513212 66.790399 
L 397.80543 72.783098 
L 398.227523 87.058157 
L 398.487273 98.786061 
L 398.487273 98.786061 
" clip-path="url(#p709b157ff0)" style="fill: none; stroke-dasharray: 3.7,1.6; stroke-dashoffset: 0; stroke: #0000ff"/>
   </g>
   <g id="line2d_15">
    <path d="M 73.832727 174.583826 
L 74.092477 174.470479 
L 74.417164 174.06419 
L 74.871726 173.089945 
L 75.650975 170.771841 
L 76.495161 168.481285 
L 76.917254 167.88779 
L 77.209472 167.811875 
L 77.469222 168.011643 
L 77.76144 168.560169 
L 78.151065 169.840383 
L 78.638095 172.286801 
L 79.319938 176.985528 
L 81.105716 189.943319 
L 81.560278 191.60279 
L 81.852497 192.018777 
L 82.047309 191.981015 
L 82.242121 191.678655 
L 82.534339 190.716495 
L 82.923964 188.485353 
L 83.410994 184.263206 
L 84.092837 176.196035 
L 86.138365 150.510462 
L 86.592927 147.701245 
L 86.885145 146.909887 
L 87.079957 146.862285 
L 87.242301 147.125922 
L 87.502051 148.128964 
L 87.859206 150.666603 
L 88.313768 155.728121 
L 88.930673 165.348198 
L 90.164484 189.164804 
L 91.041139 203.817383 
L 91.560638 209.380381 
L 91.917794 211.362908 
L 92.145075 211.756258 
L 92.27495 211.665988 
L 92.469762 211.095035 
L 92.729511 209.520968 
L 93.086667 205.877032 
L 93.573698 198.367944 
L 94.25554 183.958141 
L 96.398475 135.762306 
L 96.885505 130.331067 
L 97.210192 128.735672 
L 97.372536 128.589963 
L 97.502411 128.793514 
L 97.697223 129.635333 
L 97.989441 132.095505 
L 98.379066 137.523113 
L 98.898565 148.159503 
L 99.677814 169.363196 
L 101.333717 215.401944 
L 101.885685 224.662994 
L 102.27531 228.04234 
L 102.502591 228.677948 
L 102.599997 228.639295 
L 102.76234 228.156596 
L 102.989621 226.604394 
L 103.314308 222.650905 
L 103.76887 213.9151 
L 104.385775 197.103732 
L 105.554649 157.42093 
L 106.496241 129.017728 
L 107.048209 118.129478 
L 107.437833 114.016111 
L 107.697583 113.096614 
L 107.794989 113.140174 
L 107.957332 113.687299 
L 108.184613 115.446091 
L 108.5093 119.921048 
L 108.963862 129.79289 
L 109.580768 148.746801 
L 110.814578 195.78917 
L 111.723702 225.9593 
L 112.27567 237.744283 
L 112.665294 242.034206 
L 112.892575 242.845311 
L 112.989981 242.800672 
L 113.119856 242.372897 
L 113.347137 240.615271 
L 113.671824 235.925139 
L 114.093917 226.243398 
L 114.678354 207.206942 
L 115.684883 165.57555 
L 116.788819 122.636799 
L 117.373256 107.522791 
L 117.795349 101.551964 
L 118.055099 100.187817 
L 118.152505 100.145971 
L 118.184973 100.189379 
L 118.314848 100.650027 
L 118.542129 102.556047 
L 118.866816 107.651199 
L 119.288909 118.168814 
L 119.873346 138.828188 
L 120.879876 183.912155 
L 121.983811 230.285998 
L 122.568248 246.586078 
L 122.990341 253.032145 
L 123.250091 254.516173 
L 123.347497 254.568461 
L 123.379966 254.52435 
L 123.50984 254.040052 
L 123.737121 252.013294 
L 124.061808 246.576195 
L 124.483901 235.339054 
L 125.068338 213.257535 
L 126.074868 165.064226 
L 127.178804 115.482273 
L 127.76324 98.043824 
L 128.185333 91.135554 
L 128.445083 89.53355 
L 128.542489 89.470577 
L 128.574958 89.515204 
L 128.704833 90.021888 
L 128.932114 92.165227 
L 129.256801 97.933751 
L 129.678894 109.866472 
L 130.26333 133.308643 
L 131.302329 186.103426 
L 132.373796 236.808412 
L 132.958233 255.195495 
L 133.380326 262.465946 
L 133.640075 264.14716 
L 133.737481 264.21141 
L 133.76995 264.163782 
L 133.899825 263.628088 
L 134.127106 261.36958 
L 134.451793 255.300346 
L 134.873886 242.758914 
L 135.458323 218.143912 
L 136.497321 162.759325 
L 137.568788 109.598315 
L 138.153225 90.322074 
L 138.575318 82.696343 
L 138.835068 80.928646 
L 138.932474 80.858582 
L 138.964942 80.907506 
L 139.094817 81.464503 
L 139.322098 83.821702 
L 139.646785 90.16283 
L 140.068878 103.268235 
L 140.653315 128.981132 
L 141.692313 186.771534 
L 142.76378 242.132192 
L 143.348217 262.161316 
L 143.77031 270.06499 
L 144.03006 271.885386 
L 144.127466 271.951807 
L 144.159935 271.898849 
L 144.289809 271.311728 
L 144.51709 268.848908 
L 144.841777 262.245344 
L 145.26387 248.621564 
L 145.848307 221.926867 
L 146.887305 162.015903 
L 147.958773 104.719332 
L 148.543209 84.031846 
L 148.965302 75.893517 
L 149.225052 74.036836 
L 149.289989 73.958943 
L 149.322458 73.978246 
L 149.419864 74.269197 
L 149.614676 75.896048 
L 149.906895 80.903118 
L 150.296519 92.118504 
L 150.816018 114.119803 
L 151.627736 159.63971 
L 153.186234 248.00323 
L 153.77067 268.645979 
L 154.160295 276.096366 
L 154.420044 277.968025 
L 154.484982 278.038684 
L 154.51745 278.014129 
L 154.647325 277.516773 
L 154.842137 275.579261 
L 155.134356 270.047934 
L 155.52398 258.051798 
L 156.075948 233.263529 
L 156.920134 183.666792 
L 158.316288 102.134561 
L 158.900725 79.870535 
L 159.322818 70.929898 
L 159.582568 68.744667 
L 159.679974 68.597261 
L 159.712443 68.630051 
L 159.842317 69.170705 
L 160.03713 71.203463 
L 160.329348 76.941948 
L 160.751441 90.578553 
L 161.303409 116.548845 
L 162.212533 171.934119 
L 163.478812 247.258181 
L 164.063249 270.433526 
L 164.485342 279.944567 
L 164.77756 282.552141 
L 164.874966 282.674137 
L 164.907435 282.631282 
L 165.03731 282.042545 
L 165.26459 279.416569 
L 165.589277 272.236767 
L 166.011371 257.306664 
L 166.595807 227.943057 
L 167.634806 161.918122 
L 168.706273 98.714505 
L 169.290709 75.850266 
L 169.712803 66.806231 
L 169.972552 64.69767 
L 170.069958 64.605971 
L 170.102427 64.660529 
L 170.232302 65.303943 
L 170.459583 68.054816 
L 170.78427 75.472185 
L 171.206363 90.79768 
L 171.790799 120.814323 
L 172.862267 190.184655 
L 173.901265 252.02506 
L 174.485702 275.025806 
L 174.907795 284.026322 
L 175.167544 286.051861 
L 175.232482 286.128506 
L 175.26495 286.102087 
L 175.394825 285.565066 
L 175.589638 283.472728 
L 175.881856 277.502329 
L 176.27148 264.565289 
L 176.823448 237.868434 
L 177.700103 182.36735 
L 179.063789 97.287775 
L 179.648225 73.580428 
L 180.070318 64.11975 
L 180.330068 61.847007 
L 180.427474 61.712701 
L 180.459943 61.755384 
L 180.589818 62.362975 
L 180.78463 64.576803 
L 181.076848 70.760519 
L 181.498941 85.373173 
L 182.050909 113.095445 
L 182.960033 171.984414 
L 184.226312 251.628157 
L 184.810749 275.943542 
L 185.232842 285.813627 
L 185.52506 288.429196 
L 185.589998 288.527419 
L 185.654935 288.449065 
L 185.78481 287.763215 
L 186.012091 284.87909 
L 186.336778 277.148003 
L 186.758871 261.221586 
L 187.343307 230.093899 
L 188.414775 158.330987 
L 189.453773 94.570105 
L 190.03821 70.969775 
L 190.460303 61.813186 
L 190.720052 59.811643 
L 190.78499 59.755109 
L 190.817458 59.793666 
L 190.947333 60.392933 
L 191.142145 62.61857 
L 191.434364 68.873101 
L 191.856457 83.692355 
L 192.408425 111.840336 
L 193.317548 171.662383 
L 194.583828 252.564467 
L 195.168264 277.259932 
L 195.590358 287.286075 
L 195.882576 289.946693 
L 195.947513 290.047853 
L 196.012451 289.969877 
L 196.142326 289.277179 
L 196.369606 286.357144 
L 196.694293 278.524509 
L 197.116387 262.386997 
L 197.700823 230.851887 
L 198.77229 158.189042 
L 199.811289 93.695812 
L 200.395725 69.861677 
L 200.817819 60.638821 
L 201.077568 58.640886 
L 201.142506 58.590468 
L 201.174974 58.632854 
L 201.304849 59.252489 
L 201.499661 61.523427 
L 201.79188 67.87701 
L 202.213973 82.896678 
L 202.765941 111.381906 
L 203.675064 171.825778 
L 204.941344 253.37321 
L 205.52578 278.174353 
L 205.947873 288.187239 
L 206.240092 290.796114 
L 206.305029 290.881331 
L 206.337498 290.856185 
L 206.434904 290.50988 
L 206.629716 288.604229 
L 206.921934 282.772923 
L 207.311559 269.759775 
L 207.863527 242.475029 
L 208.707713 187.404673 
L 210.136336 94.583739 
L 210.720772 70.132937 
L 211.142866 60.454388 
L 211.402615 58.185447 
L 211.500021 58.079234 
L 211.53249 58.134452 
L 211.662365 58.807771 
L 211.889646 61.713977 
L 212.214333 69.569574 
L 212.636426 85.804884 
L 213.220862 117.575034 
L 214.29233 190.808894 
L 215.331328 255.786381 
L 215.915765 279.791239 
L 216.337858 289.081234 
L 216.597607 291.096701 
L 216.662545 291.148724 
L 216.695014 291.106731 
L 216.824888 290.485974 
L 217.019701 288.205474 
L 217.311919 281.820782 
L 217.734012 266.724462 
L 218.28598 238.09455 
L 219.195104 177.359972 
L 220.461383 95.500885 
L 221.045819 70.662786 
L 221.467913 60.675996 
L 221.727662 58.214552 
L 221.825068 58.036688 
L 221.857537 58.068153 
L 221.987412 58.64732 
L 222.182224 60.867312 
L 222.474442 67.166538 
L 222.896535 82.153273 
L 223.448503 110.669198 
L 224.357627 171.298944 
L 225.623906 253.20648 
L 226.208343 278.146753 
L 226.630436 288.234695 
L 226.922654 290.881216 
L 226.987592 290.97318 
L 227.020061 290.951188 
L 227.117467 290.613476 
L 227.312279 288.721191 
L 227.604497 282.900938 
L 227.994122 269.888008 
L 228.513621 244.434194 
L 229.325338 192.026083 
L 230.818899 94.690819 
L 231.403335 70.315676 
L 231.825428 60.707647 
L 232.085178 58.485278 
L 232.150115 58.380879 
L 232.215053 58.457686 
L 232.344928 59.154117 
L 232.572208 62.09919 
L 232.896896 70.004076 
L 233.318989 86.285657 
L 233.935894 120.085208 
L 235.104767 200.145002 
L 236.04636 257.339062 
L 236.598327 279.445357 
L 236.987952 288.093849 
L 237.247701 290.350506 
L 237.345108 290.454359 
L 237.377576 290.398645 
L 237.507451 289.724857 
L 237.734732 286.823955 
L 238.059419 278.990376 
L 238.481512 262.810543 
L 239.065949 231.168023 
L 240.137416 158.306424 
L 241.143946 95.454078 
L 241.728382 71.072048 
L 242.150475 61.410553 
L 242.410225 59.136408 
L 242.507631 59.024902 
L 242.5401 59.077936 
L 242.669975 59.740371 
L 242.897256 62.619001 
L 243.221943 70.41551 
L 243.644036 86.537852 
L 244.228472 118.083519 
L 245.299939 190.728613 
L 246.306469 253.388321 
L 246.890906 277.699775 
L 247.312999 287.34016 
L 247.572749 289.615267 
L 247.670155 289.729919 
L 247.702623 289.678268 
L 247.832498 289.023022 
L 248.059779 286.163173 
L 248.384466 278.406217 
L 248.806559 262.354253 
L 249.390996 230.930301 
L 250.462463 158.526688 
L 251.468993 96.053884 
L 252.053429 71.818712 
L 252.475522 62.215822 
L 252.735272 59.955596 
L 252.832678 59.84479 
L 252.865147 59.897504 
L 252.995022 60.55588 
L 253.222303 63.416718 
L 253.54699 71.164538 
L 253.969083 87.184709 
L 254.553519 118.525857 
L 255.624986 190.676614 
L 256.631516 252.869241 
L 257.215953 276.971876 
L 257.638046 286.508432 
L 257.897796 288.742746 
L 257.995202 288.846939 
L 258.02767 288.792403 
L 258.157545 288.128648 
L 258.384826 285.265729 
L 258.709513 277.530685 
L 259.131606 261.552616 
L 259.716043 230.308902 
L 260.819979 156.179819 
L 261.826508 94.848857 
L 262.410945 71.529561 
L 262.80057 63.054308 
L 263.060319 60.864199 
L 263.125257 60.759993 
L 263.190194 60.833818 
L 263.320069 61.514743 
L 263.54735 64.402139 
L 263.872037 72.158364 
L 264.29413 88.136445 
L 264.911035 121.299409 
L 266.112377 201.963998 
L 267.021501 255.733885 
L 267.573469 277.284887 
L 267.963093 285.660557 
L 268.222843 287.79934 
L 268.28778 287.892782 
L 268.320249 287.873058 
L 268.417655 287.54828 
L 268.612467 285.709404 
L 268.904685 280.037348 
L 269.29431 267.344095 
L 269.813809 242.511674 
L 270.625527 191.408018 
L 272.119087 96.704773 
L 272.703523 73.109512 
L 273.125617 63.887829 
L 273.385366 61.815824 
L 273.450304 61.737909 
L 273.482772 61.765201 
L 273.612647 62.315518 
L 273.807459 64.455875 
L 274.099678 70.55509 
L 274.521771 85.090362 
L 275.073739 112.760276 
L 275.982862 171.559171 
L 277.249142 250.79377 
L 277.833578 274.789345 
L 278.255671 284.404944 
L 278.515421 286.751015 
L 278.612827 286.908893 
L 278.645296 286.873628 
L 278.775171 286.293648 
L 278.969983 284.115724 
L 279.262201 277.976384 
L 279.684294 263.41826 
L 280.236262 235.779101 
L 281.145386 177.159221 
L 282.379196 99.984037 
L 282.963633 75.585083 
L 283.385726 65.588079 
L 283.677945 62.852575 
L 283.775351 62.725537 
L 283.807819 62.770809 
L 283.937694 63.389341 
L 284.164975 66.142261 
L 284.489662 73.655093 
L 284.911755 89.240597 
L 285.496192 119.785303 
L 286.567659 190.18057 
L 287.574189 250.877978 
L 288.158625 274.38896 
L 288.580718 283.677843 
L 288.840468 285.843036 
L 288.937874 285.938216 
L 288.970343 285.882739 
L 289.100218 285.225557 
L 289.327499 282.413784 
L 289.652186 274.837586 
L 290.074279 259.208017 
L 290.691184 226.738902 
L 291.892526 147.709743 
L 292.80165 95.040479 
L 293.353618 73.961831 
L 293.743242 65.798281 
L 294.002992 63.738616 
L 294.067929 63.656839 
L 294.100398 63.68116 
L 294.197804 64.014765 
L 294.392616 65.848809 
L 294.684834 71.457281 
L 295.074459 83.962536 
L 295.626427 110.146696 
L 296.470613 162.859556 
L 297.866767 249.551318 
L 298.451204 273.147466 
L 298.873297 282.592605 
L 299.133046 284.888478 
L 299.230452 285.03862 
L 299.262921 285.002129 
L 299.392796 284.424012 
L 299.587608 282.269103 
L 299.879827 276.208955 
L 300.30192 261.85477 
L 300.853888 234.621287 
L 301.763011 176.900418 
L 302.996822 100.998021 
L 303.581258 77.05463 
L 304.003352 67.282191 
L 304.29557 64.642113 
L 304.392976 64.535314 
L 304.425445 64.586024 
L 304.55532 65.2197 
L 304.7826 67.973555 
L 305.107287 75.431478 
L 305.529381 90.850195 
L 306.113817 121.005296 
L 307.217753 192.510805 
L 308.224283 251.577593 
L 308.808719 273.973327 
L 309.198344 282.069431 
L 309.458093 284.124896 
L 309.523031 284.210729 
L 309.5555 284.189195 
L 309.652906 283.866962 
L 309.847718 282.068972 
L 310.139936 276.546335 
L 310.529561 264.208901 
L 311.081529 238.345295 
L 311.925715 186.224701 
L 313.321869 100.428863 
L 313.906306 77.071461 
L 314.328399 67.726989 
L 314.588148 65.460391 
L 314.685554 65.314602 
L 314.718023 65.351733 
L 314.847898 65.928339 
L 315.04271 68.068747 
L 315.334928 74.079769 
L 315.757022 88.30675 
L 316.308989 115.2829 
L 317.218113 172.41806 
L 318.451924 247.479537 
L 319.03636 271.133054 
L 319.458453 280.773731 
L 319.750672 283.36628 
L 319.848078 283.465473 
L 319.880547 283.413149 
L 320.010421 282.777602 
L 320.237702 280.037965 
L 320.562389 272.637618 
L 320.984482 257.353594 
L 321.568919 227.475586 
L 322.672855 156.64698 
L 323.679385 98.175702 
L 324.263821 76.043362 
L 324.653446 68.072352 
L 324.913195 66.074218 
L 324.978133 65.999246 
L 325.010601 66.025677 
L 325.140476 66.557025 
L 325.335288 68.622702 
L 325.627507 74.508422 
L 326.0496 88.534004 
L 326.601568 115.230842 
L 327.510691 171.943443 
L 328.744502 246.690605 
L 329.328939 270.343933 
L 329.751032 280.045847 
L 330.04325 282.708424 
L 330.140656 282.83552 
L 330.173125 282.792972 
L 330.303 282.19879 
L 330.497812 280.044349 
L 330.79003 274.039803 
L 331.212123 259.877934 
L 331.79656 231.25979 
L 332.770621 169.952525 
L 333.907026 102.010077 
L 334.491462 78.645332 
L 334.913555 69.173829 
L 335.205774 66.673163 
L 335.270711 66.581598 
L 335.335648 66.6596 
L 335.465523 67.323494 
L 335.692804 70.100198 
L 336.017491 77.524256 
L 336.472053 94.197582 
L 337.088958 126.316022 
L 339.621517 269.687303 
L 340.04361 279.435982 
L 340.335828 282.154271 
L 340.433235 282.303817 
L 340.465703 282.269157 
L 340.595578 281.708464 
L 340.79039 279.609674 
L 341.082609 273.699125 
L 341.504702 259.689529 
L 342.05667 233.098957 
L 342.965793 176.726457 
L 344.199604 102.603783 
L 344.784041 79.241367 
L 345.206134 69.724553 
L 345.498352 67.171366 
L 345.595758 67.076613 
L 345.628227 67.129446 
L 345.758102 67.762165 
L 345.985383 70.47818 
L 346.31007 77.804204 
L 346.732163 92.923791 
L 347.349068 124.335906 
L 348.55041 200.76523 
L 349.459534 251.656354 
L 350.011502 271.992536 
L 350.401126 279.843641 
L 350.660876 281.802126 
L 350.725813 281.87234 
L 350.758282 281.844306 
L 350.888156 281.311688 
L 351.082969 279.259393 
L 351.375187 273.427046 
L 351.79728 259.543511 
L 352.349248 233.128114 
L 353.258372 177.020618 
L 354.492182 103.093032 
L 355.076619 79.728599 
L 355.498712 70.171484 
L 355.79093 67.572985 
L 355.888336 67.460267 
L 355.920805 67.506815 
L 356.05068 68.112984 
L 356.277961 70.777548 
L 356.602648 78.020939 
L 357.024741 93.022225 
L 357.609178 122.39236 
L 358.713113 192.099583 
L 359.719643 249.713664 
L 360.30408 271.559546 
L 360.693704 279.452189 
L 360.953454 281.450719 
L 361.018391 281.532338 
L 361.05086 281.510202 
L 361.148266 281.192169 
L 361.343078 279.429418 
L 361.635297 274.025186 
L 362.024921 261.96063 
L 362.576889 236.677284 
L 363.421075 185.738003 
L 364.817229 101.932814 
L 365.401666 79.151845 
L 365.823759 70.065405 
L 366.083509 67.883657 
L 366.180915 67.754655 
L 366.213384 67.795546 
L 366.343258 68.378005 
L 366.538071 70.499727 
L 366.830289 76.422022 
L 367.252382 90.399203 
L 367.836819 118.652088 
L 368.81088 179.180777 
L 369.947284 246.264346 
L 370.531721 269.342074 
L 370.953814 278.704087 
L 371.246032 281.181373 
L 371.31097 281.273624 
L 371.375907 281.198431 
L 371.505782 280.546452 
L 371.733063 277.81031 
L 372.05775 270.485184 
L 372.479843 255.416143 
L 373.096748 224.164063 
L 374.29809 148.2296 
L 375.207214 97.750571 
L 375.759182 77.635026 
L 376.148806 69.913497 
L 376.408556 68.02584 
L 376.473493 67.971142 
L 376.505962 68.006589 
L 376.635837 68.566479 
L 376.830649 70.652237 
L 377.122867 76.516936 
L 377.54496 90.406781 
L 378.096928 116.755522 
L 379.006052 172.583354 
L 380.239863 245.944282 
L 380.824299 269.055849 
L 381.246392 278.465897 
L 381.538611 280.986086 
L 381.636017 281.077437 
L 381.668485 281.024312 
L 381.79836 280.394597 
L 382.025641 277.699604 
L 382.350328 270.436621 
L 382.772421 255.450421 
L 383.389327 224.312516 
L 384.590669 148.522288 
L 385.499792 98.046745 
L 386.05176 77.886248 
L 386.441385 70.114708 
L 386.701134 68.186969 
L 386.766072 68.121558 
L 386.79854 68.151556 
L 386.928415 68.689097 
L 387.123227 70.739923 
L 387.415446 76.550111 
L 387.837539 90.360143 
L 388.389507 116.611016 
L 389.29863 172.321413 
L 390.532441 245.660772 
L 391.116878 268.821754 
L 391.538971 278.287245 
L 391.831189 280.85326 
L 391.928595 280.960931 
L 391.961064 280.913342 
L 392.090939 280.306194 
L 392.318219 277.65195 
L 392.642906 270.448511 
L 393.065 255.538381 
L 393.649436 226.350202 
L 394.720903 159.145634 
L 395.727433 101.305746 
L 396.31187 78.995136 
L 396.733963 70.261501 
L 396.993712 68.291189 
L 397.05865 68.214658 
L 397.091119 68.239037 
L 397.220993 68.753761 
L 397.415806 70.769604 
L 397.708024 76.526641 
L 398.097648 88.993727 
L 398.487273 106.274807 
L 398.487273 106.274807 
" clip-path="url(#p709b157ff0)" style="fill: none; stroke-dasharray: 3.7,1.6; stroke-dashoffset: 0; stroke: #ff0000"/>
   </g>
   <g id="patch_3">
    <path d="M 57.6 307.584 
L 57.6 41.472 
" style="fill: none; stroke: #000000; stroke-width: 0.8; stroke-linejoin: miter; stroke-linecap: square"/>
   </g>
   <g id="patch_4">
    <path d="M 414.72 307.584 
L 414.72 41.472 
" style="fill: none; stroke: #000000; stroke-width: 0.8; stroke-linejoin: miter; stroke-linecap: square"/>
   </g>
   <g id="patch_5">
    <path d="M 57.6 307.584 
L 414.72 307.584 
" style="fill: none; stroke: #000000; stroke-width: 0.8; stroke-linejoin: miter; stroke-linecap: square"/>
   </g>
   <g id="patch_6">
    <path d="M 57.6 41.472 
L 414.72 41.472 
" style="fill: none; stroke: #000000; stroke-width: 0.8; stroke-linejoin: miter; stroke-linecap: square"/>
   </g>
   <g id="legend_1">
    <g id="patch_7">
     <path d="M 61.8 72.147 
L 93 72.147 
Q 94.2 72.147 94.2 70.947 
L 94.2 45.672 
Q 94.2 44.472 93 44.472 
L 61.8 44.472 
Q 60.6 44.472 60.6 45.672 
L 60.6 70.947 
Q 60.6 72.147 61.8 72.147 
z
" style="fill: #ffffff; opacity: 0.8; stroke: #cccccc; stroke-linejoin: miter"/>
    </g>
    <g id="line2d_16">
     <path d="M 63 49.4595 
L 69 49.4595 
L 75 49.4595 
" style="fill: none; stroke-dasharray: 3.7,1.6; stroke-dashoffset: 0; stroke: #0000ff"/>
    </g>
    <g id="text_16">
     <!-- 振子 -->
     <g transform="translate(79.8 51.5595)scale(0.06 -0.06)">
      <defs>
       <path id="SimHei-632f" d="M 3275 -200 
Q 3400 -100 3437 37 
Q 3475 175 3475 500 
L 3475 2300 
L 3025 2300 
Q 3000 1800 2950 1375 
Q 2900 950 2800 600 
Q 2700 250 2575 -37 
Q 2450 -325 2325 -625 
Q 2175 -475 1825 -350 
Q 2150 -25 2300 412 
Q 2450 850 2500 1350 
Q 2550 1850 2562 2437 
Q 2575 3025 2575 3625 
Q 2575 4250 2525 4825 
L 5150 4825 
Q 5475 4825 5825 4850 
L 5825 4375 
Q 5400 4400 5225 4400 
L 3025 4400 
L 3025 2700 
L 5375 2700 
Q 5600 2700 5975 2725 
L 5975 2275 
Q 5850 2300 5475 2300 
L 4675 2300 
Q 4775 1600 4925 1275 
Q 5125 1450 5262 1587 
Q 5400 1725 5550 1975 
Q 5650 1775 5900 1575 
Q 5750 1500 5575 1337 
Q 5400 1175 5125 875 
Q 5225 650 5500 362 
Q 5775 75 6175 -75 
Q 5875 -250 5775 -525 
Q 5300 -175 5075 100 
Q 4850 375 4687 687 
Q 4525 1000 4412 1387 
Q 4300 1775 4250 2300 
L 3950 2300 
L 3950 150 
Q 4250 300 4575 475 
Q 4625 325 4750 50 
Q 4575 -25 4237 -212 
Q 3900 -400 3600 -650 
Q 3500 -450 3275 -200 
z
M 250 2000 
Q 550 2075 725 2125 
L 1150 2275 
L 1150 3350 
Q 675 3350 325 3325 
L 325 3800 
Q 650 3775 1150 3775 
L 1150 4500 
Q 1150 4850 1125 5150 
L 1675 5150 
Q 1650 4875 1650 4500 
L 1650 3775 
Q 1875 3775 2300 3800 
L 2300 3325 
Q 1900 3350 1650 3350 
L 1650 2425 
Q 2000 2550 2250 2675 
Q 2250 2475 2275 2250 
Q 2100 2200 1650 2000 
L 1650 100 
Q 1600 -250 1450 -362 
Q 1300 -475 725 -525 
Q 700 -325 600 25 
Q 850 0 1000 0 
Q 1150 0 1150 300 
L 1150 1800 
Q 975 1725 850 1662 
Q 725 1600 475 1450 
Q 425 1675 250 2000 
z
M 4950 3775 
Q 5275 3775 5600 3800 
L 5600 3325 
Q 5275 3350 5000 3350 
L 4000 3350 
Q 3725 3350 3375 3325 
L 3375 3800 
Q 3700 3775 4000 3775 
L 4950 3775 
z
" transform="scale(0.015625)"/>
       <path id="SimHei-5b50" d="M 2075 25 
Q 2650 0 2800 62 
Q 2950 125 2950 375 
L 2950 2200 
L 1175 2200 
Q 825 2200 350 2175 
L 350 2625 
Q 825 2600 1175 2600 
L 2950 2600 
Q 2950 3000 2925 3500 
Q 3275 3650 3637 3875 
Q 4000 4100 4475 4400 
L 1925 4400 
Q 1400 4400 1000 4375 
L 1000 4825 
Q 1525 4800 1875 4800 
L 5400 4800 
L 5400 4350 
Q 5025 4200 4575 3950 
Q 4125 3700 3450 3250 
L 3450 2600 
L 5125 2600 
Q 5550 2600 6075 2650 
L 6075 2200 
Q 5550 2225 5125 2200 
L 3450 2200 
L 3450 200 
Q 3450 -300 3162 -400 
Q 2875 -500 2300 -550 
Q 2250 -275 2075 25 
z
" transform="scale(0.015625)"/>
      </defs>
      <use xlink:href="#SimHei-632f"/>
      <use xlink:href="#SimHei-5b50" x="100"/>
     </g>
    </g>
    <g id="line2d_17">
     <path d="M 63 66.897 
L 69 66.897 
L 75 66.897 
" style="fill: none; stroke-dasharray: 3.7,1.6; stroke-dashoffset: 0; stroke: #ff0000"/>
    </g>
    <g id="text_17">
     <!-- 浮子 -->
     <g transform="translate(79.8 68.997)scale(0.06 -0.06)">
      <defs>
       <path id="SimHei-6d6e" d="M 3800 1950 
Q 4225 2150 4600 2375 
L 3400 2375 
Q 3025 2375 2425 2350 
L 2425 2825 
Q 3000 2800 3350 2800 
L 5575 2800 
L 5575 2325 
Q 5200 2175 4887 2025 
Q 4575 1875 4325 1725 
L 4325 1450 
L 5250 1450 
Q 5575 1450 6075 1475 
L 6075 1000 
Q 5600 1025 5275 1025 
L 4325 1025 
L 4325 25 
Q 4325 -275 4125 -412 
Q 3925 -550 3400 -650 
Q 3325 -325 3125 -25 
Q 3575 -50 3700 -25 
Q 3825 0 3825 350 
L 3825 1025 
L 2875 1025 
Q 2475 1025 1925 1000 
L 1925 1475 
Q 2500 1450 2875 1450 
L 3825 1450 
Q 3825 1725 3800 1950 
z
M 2200 4800 
Q 2750 4775 3912 4862 
Q 5075 4950 5475 5075 
Q 5575 4800 5775 4550 
Q 5400 4550 4350 4462 
Q 3300 4375 2425 4325 
Q 2375 4575 2200 4800 
z
M 1700 1600 
Q 975 -125 800 -500 
Q 625 -300 225 -150 
Q 475 125 750 737 
Q 1025 1350 1175 1925 
Q 1450 1675 1700 1600 
z
M 4600 3125 
Q 4750 3350 4950 3750 
Q 5150 4150 5225 4450 
Q 5475 4325 5775 4200 
Q 5675 4100 5450 3650 
Q 5225 3200 5075 2950 
Q 4875 3075 4600 3125 
z
M 725 3550 
Q 1275 3200 1800 2850 
Q 1575 2650 1450 2400 
Q 1075 2725 425 3125 
Q 575 3325 725 3550 
z
M 1050 5150 
Q 1575 4775 2075 4400 
Q 1875 4225 1700 4000 
Q 1275 4425 725 4750 
Q 900 4900 1050 5150 
z
M 3900 4325 
Q 4200 3750 4375 3375 
Q 4100 3300 3900 3150 
Q 3750 3575 3475 4125 
Q 3725 4225 3900 4325 
z
M 2800 4100 
Q 3075 3525 3250 3125 
Q 3025 3050 2775 2925 
Q 2625 3375 2350 3900 
Q 2600 3975 2800 4100 
z
" transform="scale(0.015625)"/>
      </defs>
      <use xlink:href="#SimHei-6d6e"/>
      <use xlink:href="#SimHei-5b50" x="100"/>
     </g>
    </g>
   </g>
  </g>
 </g>
 <defs>
  <clipPath id="p709b157ff0">
   <rect x="57.6" y="41.472" width="357.12" height="266.112"/>
  </clipPath>
 </defs>
</svg>
