<?xml version="1.0" encoding="utf-8" standalone="no"?>
<!DOCTYPE svg PUBLIC "-//W3C//DTD SVG 1.1//EN"
  "http://www.w3.org/Graphics/SVG/1.1/DTD/svg11.dtd">
<svg xmlns:xlink="http://www.w3.org/1999/xlink" width="460.8pt" height="345.6pt" viewBox="0 0 460.8 345.6" xmlns="http://www.w3.org/2000/svg" version="1.1">
 <metadata>
  <rdf:RDF xmlns:dc="http://purl.org/dc/elements/1.1/" xmlns:cc="http://creativecommons.org/ns#" xmlns:rdf="http://www.w3.org/1999/02/22-rdf-syntax-ns#">
   <cc:Work>
    <dc:type rdf:resource="http://purl.org/dc/dcmitype/StillImage"/>
    <dc:date>2023-03-25T18:07:15.530405</dc:date>
    <dc:format>image/svg+xml</dc:format>
    <dc:creator>
     <cc:Agent>
      <dc:title>Matplotlib v3.5.2, https://matplotlib.org/</dc:title>
     </cc:Agent>
    </dc:creator>
   </cc:Work>
  </rdf:RDF>
 </metadata>
 <defs>
  <style type="text/css">*{stroke-linejoin: round; stroke-linecap: butt}</style>
 </defs>
 <g id="figure_1">
  <g id="patch_1">
   <path d="M 0 345.6 
L 460.8 345.6 
L 460.8 0 
L 0 0 
z
" style="fill: #ffffff"/>
  </g>
  <g id="axes_1">
   <g id="patch_2">
    <path d="M 57.6 307.584 
L 414.72 307.584 
L 414.72 41.472 
L 57.6 41.472 
z
" style="fill: #ffffff"/>
   </g>
   <g id="matplotlib.axis_1">
    <g id="xtick_1">
     <g id="line2d_1">
      <defs>
       <path id="m1732c12e47" d="M 0 0 
L 0 3.5 
" style="stroke: #000000; stroke-width: 0.8"/>
      </defs>
      <g>
       <use xlink:href="#m1732c12e47" x="73.832727" y="307.584" style="stroke: #000000; stroke-width: 0.8"/>
      </g>
     </g>
     <g id="text_1">
      <!-- 0 -->
      <g transform="translate(71.332727 321.459)scale(0.1 -0.1)">
       <defs>
        <path id="SimHei-30" d="M 225 2537 
Q 250 3200 412 3587 
Q 575 3975 875 4225 
Q 1175 4475 1612 4475 
Q 2050 4475 2375 4112 
Q 2700 3750 2800 3200 
Q 2900 2650 2862 1937 
Q 2825 1225 2612 775 
Q 2400 325 1975 150 
Q 1550 -25 1125 187 
Q 700 400 525 750 
Q 350 1100 275 1487 
Q 200 1875 225 2537 
z
M 750 2687 
Q 675 2000 800 1462 
Q 925 925 1212 700 
Q 1500 475 1800 612 
Q 2100 750 2237 1162 
Q 2375 1575 2375 2062 
Q 2375 2550 2337 2950 
Q 2300 3350 2112 3675 
Q 1925 4000 1612 4012 
Q 1300 4025 1062 3700 
Q 825 3375 750 2687 
z
" transform="scale(0.015625)"/>
       </defs>
       <use xlink:href="#SimHei-30"/>
      </g>
     </g>
    </g>
    <g id="xtick_2">
     <g id="line2d_2">
      <g>
       <use xlink:href="#m1732c12e47" x="138.77013" y="307.584" style="stroke: #000000; stroke-width: 0.8"/>
      </g>
     </g>
     <g id="text_2">
      <!-- 20 -->
      <g transform="translate(133.77013 321.459)scale(0.1 -0.1)">
       <defs>
        <path id="SimHei-32" d="M 300 250 
Q 325 625 650 925 
Q 975 1225 1475 1862 
Q 1975 2500 2125 2850 
Q 2275 3200 2237 3450 
Q 2200 3700 2000 3862 
Q 1800 4025 1537 4000 
Q 1275 3975 1037 3800 
Q 800 3625 675 3275 
L 200 3350 
Q 400 3925 712 4187 
Q 1025 4450 1450 4475 
Q 1700 4500 1900 4462 
Q 2100 4425 2312 4287 
Q 2525 4150 2662 3875 
Q 2800 3600 2762 3212 
Q 2725 2825 2375 2287 
Q 2025 1750 1025 600 
L 2825 600 
L 2825 150 
L 300 150 
L 300 250 
z
" transform="scale(0.015625)"/>
       </defs>
       <use xlink:href="#SimHei-32"/>
       <use xlink:href="#SimHei-30" x="50"/>
      </g>
     </g>
    </g>
    <g id="xtick_3">
     <g id="line2d_3">
      <g>
       <use xlink:href="#m1732c12e47" x="203.707533" y="307.584" style="stroke: #000000; stroke-width: 0.8"/>
      </g>
     </g>
     <g id="text_3">
      <!-- 40 -->
      <g transform="translate(198.707533 321.459)scale(0.1 -0.1)">
       <defs>
        <path id="SimHei-34" d="M 2000 1100 
L 75 1100 
L 75 1525 
L 2100 4450 
L 2475 4450 
L 2475 1525 
L 3075 1525 
L 3075 1100 
L 2475 1100 
L 2475 150 
L 2000 150 
L 2000 1100 
z
M 2000 1525 
L 2000 3500 
L 600 1525 
L 2000 1525 
z
" transform="scale(0.015625)"/>
       </defs>
       <use xlink:href="#SimHei-34"/>
       <use xlink:href="#SimHei-30" x="50"/>
      </g>
     </g>
    </g>
    <g id="xtick_4">
     <g id="line2d_4">
      <g>
       <use xlink:href="#m1732c12e47" x="268.644936" y="307.584" style="stroke: #000000; stroke-width: 0.8"/>
      </g>
     </g>
     <g id="text_4">
      <!-- 60 -->
      <g transform="translate(263.644936 321.459)scale(0.1 -0.1)">
       <defs>
        <path id="SimHei-36" d="M 250 1612 
Q 275 1975 387 2225 
Q 500 2475 725 2850 
L 1750 4450 
L 2325 4450 
L 1275 2800 
Q 1950 2975 2350 2750 
Q 2750 2525 2887 2237 
Q 3025 1950 3037 1612 
Q 3050 1275 2937 950 
Q 2825 625 2537 362 
Q 2250 100 1737 75 
Q 1225 50 862 262 
Q 500 475 362 862 
Q 225 1250 250 1612 
z
M 1025 787 
Q 1250 550 1625 525 
Q 2000 500 2250 775 
Q 2500 1050 2500 1575 
Q 2500 2100 2187 2300 
Q 1875 2500 1487 2450 
Q 1100 2400 925 2075 
Q 750 1750 775 1387 
Q 800 1025 1025 787 
z
" transform="scale(0.015625)"/>
       </defs>
       <use xlink:href="#SimHei-36"/>
       <use xlink:href="#SimHei-30" x="50"/>
      </g>
     </g>
    </g>
    <g id="xtick_5">
     <g id="line2d_5">
      <g>
       <use xlink:href="#m1732c12e47" x="333.582339" y="307.584" style="stroke: #000000; stroke-width: 0.8"/>
      </g>
     </g>
     <g id="text_5">
      <!-- 80 -->
      <g transform="translate(328.582339 321.459)scale(0.1 -0.1)">
       <defs>
        <path id="SimHei-38" d="M 175 1375 
Q 175 1675 325 1962 
Q 475 2250 825 2425 
Q 525 2600 425 2812 
Q 325 3025 312 3300 
Q 300 3575 387 3775 
Q 475 3975 650 4150 
Q 825 4325 1037 4387 
Q 1250 4450 1500 4450 
Q 1750 4450 1950 4400 
Q 2150 4350 2375 4187 
Q 2600 4025 2700 3725 
Q 2800 3425 2687 3025 
Q 2575 2625 2100 2400 
Q 2525 2275 2700 2012 
Q 2875 1750 2875 1375 
Q 2875 1000 2762 775 
Q 2650 550 2512 400 
Q 2375 250 2137 162 
Q 1900 75 1537 75 
Q 1175 75 912 162 
Q 650 250 475 425 
Q 300 600 237 837 
Q 175 1075 175 1375 
z
M 687 1400 
Q 675 1100 787 875 
Q 900 650 1200 587 
Q 1500 525 1825 600 
Q 2150 675 2275 950 
Q 2400 1225 2362 1500 
Q 2325 1775 2050 1962 
Q 1775 2150 1450 2125 
Q 1125 2100 912 1900 
Q 700 1700 687 1400 
z
M 775 3350 
Q 775 3100 950 2875 
Q 1125 2650 1500 2650 
Q 1875 2650 2062 2875 
Q 2250 3100 2237 3412 
Q 2225 3725 2012 3875 
Q 1800 4025 1437 4000 
Q 1075 3975 925 3787 
Q 775 3600 775 3350 
z
" transform="scale(0.015625)"/>
       </defs>
       <use xlink:href="#SimHei-38"/>
       <use xlink:href="#SimHei-30" x="50"/>
      </g>
     </g>
    </g>
    <g id="xtick_6">
     <g id="line2d_6">
      <g>
       <use xlink:href="#m1732c12e47" x="398.519741" y="307.584" style="stroke: #000000; stroke-width: 0.8"/>
      </g>
     </g>
     <g id="text_6">
      <!-- 100 -->
      <g transform="translate(391.019741 321.459)scale(0.1 -0.1)">
       <defs>
        <path id="SimHei-31" d="M 1400 3600 
Q 1075 3275 575 2975 
L 575 3450 
Q 1200 3875 1600 4450 
L 1900 4450 
L 1900 150 
L 1400 150 
L 1400 3600 
z
" transform="scale(0.015625)"/>
       </defs>
       <use xlink:href="#SimHei-31"/>
       <use xlink:href="#SimHei-30" x="50"/>
       <use xlink:href="#SimHei-30" x="100"/>
      </g>
     </g>
    </g>
    <g id="text_7">
     <!-- 时间/s -->
     <g transform="translate(221.16 334.716812)scale(0.1 -0.1)">
      <defs>
       <path id="SimHei-65f6" d="M 2525 4575 
Q 2500 3675 2500 2400 
Q 2500 1125 2525 400 
L 2000 400 
L 2000 875 
L 1000 875 
L 1000 50 
L 475 50 
Q 500 1200 500 2350 
Q 500 3525 475 4575 
L 2525 4575 
z
M 4875 3825 
Q 4875 4575 4850 5225 
L 5400 5225 
Q 5375 4575 5375 3825 
Q 5750 3825 6175 3850 
L 6175 3375 
Q 5750 3400 5375 3400 
L 5375 50 
Q 5375 -325 5075 -425 
Q 4775 -525 4300 -575 
Q 4300 -275 4025 0 
Q 4500 -50 4687 -25 
Q 4875 0 4875 300 
L 4875 3400 
Q 3625 3400 2775 3375 
L 2775 3850 
Q 3575 3825 4875 3825 
z
M 2000 1300 
L 2000 2550 
L 1000 2550 
L 1000 1300 
L 2000 1300 
z
M 2000 2975 
L 2000 4150 
L 1000 4150 
L 1000 2975 
L 2000 2975 
z
M 3550 2725 
Q 3875 2200 4175 1600 
Q 3925 1525 3650 1375 
Q 3450 1975 3075 2500 
Q 3300 2600 3550 2725 
z
" transform="scale(0.015625)"/>
       <path id="SimHei-95f4" d="M 4450 3550 
Q 4425 3075 4425 2725 
L 4425 1400 
Q 4425 1075 4450 625 
L 1925 625 
Q 1950 1075 1950 1425 
L 1950 2725 
Q 1950 3075 1925 3550 
L 4450 3550 
z
M 5800 4875 
Q 5775 4400 5775 3925 
L 5775 250 
Q 5800 -325 5462 -450 
Q 5125 -575 4725 -625 
Q 4700 -325 4525 -25 
Q 5000 -50 5137 25 
Q 5275 100 5275 350 
L 5275 4450 
L 3775 4450 
Q 3175 4450 2650 4425 
L 2650 4900 
Q 3175 4875 3775 4875 
L 5800 4875 
z
M 550 -525 
Q 600 -25 600 525 
L 600 3150 
Q 600 3675 550 4025 
L 1125 4025 
Q 1100 3650 1100 3300 
L 1100 500 
Q 1100 0 1125 -525 
L 550 -525 
z
M 3950 1025 
L 3950 1950 
L 2425 1950 
L 2425 1025 
L 3950 1025 
z
M 3950 2350 
L 3950 3150 
L 2425 3150 
L 2425 2350 
L 3950 2350 
z
M 1525 5300 
Q 1750 5000 2225 4350 
Q 1950 4225 1700 4075 
Q 1450 4575 1075 5025 
Q 1350 5225 1525 5300 
z
" transform="scale(0.015625)"/>
       <path id="SimHei-2f" d="M 3000 4550 
L 350 -175 
L 100 -25 
L 2750 4700 
L 3000 4550 
z
" transform="scale(0.015625)"/>
       <path id="SimHei-73" d="M 2750 900 
Q 2750 500 2437 287 
Q 2125 75 1650 75 
Q 1050 75 725 312 
Q 400 550 400 1000 
L 900 1000 
Q 900 700 1112 600 
Q 1325 500 1625 500 
Q 1925 500 2075 612 
Q 2225 725 2225 900 
Q 2225 1025 2100 1150 
Q 1975 1275 1475 1350 
Q 900 1425 687 1637 
Q 475 1850 475 2200 
Q 475 2500 762 2737 
Q 1050 2975 1600 2975 
Q 2100 2975 2387 2750 
Q 2675 2525 2675 2150 
L 2175 2150 
Q 2175 2375 2012 2462 
Q 1850 2550 1600 2550 
Q 1275 2550 1137 2437 
Q 1000 2325 1000 2175 
Q 1000 2000 1125 1900 
Q 1250 1800 1650 1750 
Q 2300 1650 2525 1437 
Q 2750 1225 2750 900 
z
" transform="scale(0.015625)"/>
      </defs>
      <use xlink:href="#SimHei-65f6"/>
      <use xlink:href="#SimHei-95f4" x="100"/>
      <use xlink:href="#SimHei-2f" x="200"/>
      <use xlink:href="#SimHei-73" x="250"/>
     </g>
    </g>
   </g>
   <g id="matplotlib.axis_2">
    <g id="ytick_1">
     <g id="line2d_7">
      <defs>
       <path id="mc0d3db0195" d="M 0 0 
L -3.5 0 
" style="stroke: #000000; stroke-width: 0.8"/>
      </defs>
      <g>
       <use xlink:href="#mc0d3db0195" x="57.6" y="303.599672" style="stroke: #000000; stroke-width: 0.8"/>
      </g>
     </g>
     <g id="text_8">
      <!-- -0.06 -->
      <g transform="translate(25.6 307.037172)scale(0.1 -0.1)">
       <defs>
        <path id="SimHei-2d" d="M 2975 2125 
L 125 2125 
L 125 2525 
L 2975 2525 
L 2975 2125 
z
" transform="scale(0.015625)"/>
        <path id="SimHei-2e" d="M 1075 125 
L 500 125 
L 500 675 
L 1075 675 
L 1075 125 
z
" transform="scale(0.015625)"/>
       </defs>
       <use xlink:href="#SimHei-2d"/>
       <use xlink:href="#SimHei-30" x="50"/>
       <use xlink:href="#SimHei-2e" x="100"/>
       <use xlink:href="#SimHei-30" x="150"/>
       <use xlink:href="#SimHei-36" x="200"/>
      </g>
     </g>
    </g>
    <g id="ytick_2">
     <g id="line2d_8">
      <g>
       <use xlink:href="#mc0d3db0195" x="57.6" y="261.207718" style="stroke: #000000; stroke-width: 0.8"/>
      </g>
     </g>
     <g id="text_9">
      <!-- -0.04 -->
      <g transform="translate(25.6 264.645218)scale(0.1 -0.1)">
       <use xlink:href="#SimHei-2d"/>
       <use xlink:href="#SimHei-30" x="50"/>
       <use xlink:href="#SimHei-2e" x="100"/>
       <use xlink:href="#SimHei-30" x="150"/>
       <use xlink:href="#SimHei-34" x="200"/>
      </g>
     </g>
    </g>
    <g id="ytick_3">
     <g id="line2d_9">
      <g>
       <use xlink:href="#mc0d3db0195" x="57.6" y="218.815764" style="stroke: #000000; stroke-width: 0.8"/>
      </g>
     </g>
     <g id="text_10">
      <!-- -0.02 -->
      <g transform="translate(25.6 222.253264)scale(0.1 -0.1)">
       <use xlink:href="#SimHei-2d"/>
       <use xlink:href="#SimHei-30" x="50"/>
       <use xlink:href="#SimHei-2e" x="100"/>
       <use xlink:href="#SimHei-30" x="150"/>
       <use xlink:href="#SimHei-32" x="200"/>
      </g>
     </g>
    </g>
    <g id="ytick_4">
     <g id="line2d_10">
      <g>
       <use xlink:href="#mc0d3db0195" x="57.6" y="176.42381" style="stroke: #000000; stroke-width: 0.8"/>
      </g>
     </g>
     <g id="text_11">
      <!-- 0.00 -->
      <g transform="translate(30.6 179.86131)scale(0.1 -0.1)">
       <use xlink:href="#SimHei-30"/>
       <use xlink:href="#SimHei-2e" x="50"/>
       <use xlink:href="#SimHei-30" x="100"/>
       <use xlink:href="#SimHei-30" x="150"/>
      </g>
     </g>
    </g>
    <g id="ytick_5">
     <g id="line2d_11">
      <g>
       <use xlink:href="#mc0d3db0195" x="57.6" y="134.031856" style="stroke: #000000; stroke-width: 0.8"/>
      </g>
     </g>
     <g id="text_12">
      <!-- 0.02 -->
      <g transform="translate(30.6 137.469356)scale(0.1 -0.1)">
       <use xlink:href="#SimHei-30"/>
       <use xlink:href="#SimHei-2e" x="50"/>
       <use xlink:href="#SimHei-30" x="100"/>
       <use xlink:href="#SimHei-32" x="150"/>
      </g>
     </g>
    </g>
    <g id="ytick_6">
     <g id="line2d_12">
      <g>
       <use xlink:href="#mc0d3db0195" x="57.6" y="91.639902" style="stroke: #000000; stroke-width: 0.8"/>
      </g>
     </g>
     <g id="text_13">
      <!-- 0.04 -->
      <g transform="translate(30.6 95.077402)scale(0.1 -0.1)">
       <use xlink:href="#SimHei-30"/>
       <use xlink:href="#SimHei-2e" x="50"/>
       <use xlink:href="#SimHei-30" x="100"/>
       <use xlink:href="#SimHei-34" x="150"/>
      </g>
     </g>
    </g>
    <g id="ytick_7">
     <g id="line2d_13">
      <g>
       <use xlink:href="#mc0d3db0195" x="57.6" y="49.247948" style="stroke: #000000; stroke-width: 0.8"/>
      </g>
     </g>
     <g id="text_14">
      <!-- 0.06 -->
      <g transform="translate(30.6 52.685448)scale(0.1 -0.1)">
       <use xlink:href="#SimHei-30"/>
       <use xlink:href="#SimHei-2e" x="50"/>
       <use xlink:href="#SimHei-30" x="100"/>
       <use xlink:href="#SimHei-36" x="150"/>
      </g>
     </g>
    </g>
    <g id="text_15">
     <!-- 位移差/m -->
     <g transform="translate(20.35 194.528)rotate(-90)scale(0.1 -0.1)">
      <defs>
       <path id="SimHei-4f4d" d="M 2125 4925 
Q 1950 4750 1625 3750 
L 1625 575 
Q 1625 -225 1650 -650 
L 1100 -650 
Q 1150 -200 1150 550 
L 1150 2950 
Q 775 2275 550 1950 
Q 375 2275 200 2425 
Q 525 2775 912 3575 
Q 1300 4375 1500 5200 
Q 1825 5000 2125 4925 
z
M 5375 3025 
Q 5275 2875 5100 2250 
Q 4925 1625 4600 300 
L 5450 300 
Q 5925 300 6100 325 
L 6100 -175 
Q 5875 -150 5450 -150 
L 2900 -150 
Q 2275 -150 2050 -175 
L 2050 325 
Q 2275 300 2850 300 
L 4075 300 
Q 4400 1400 4700 3175 
Q 5100 3075 5375 3025 
z
M 5250 4025 
Q 5700 4025 5925 4050 
L 5925 3575 
Q 5700 3600 5225 3600 
L 3000 3600 
Q 2650 3600 2275 3575 
L 2275 4050 
Q 2675 4025 3000 4025 
L 5250 4025 
z
M 3050 3050 
Q 3500 1775 3750 725 
Q 3450 625 3250 550 
Q 3125 1125 2962 1675 
Q 2800 2225 2550 2875 
Q 2800 2925 3050 3050 
z
M 3875 5200 
Q 4175 4675 4400 4300 
Q 4200 4250 3875 4075 
Q 3700 4525 3400 4950 
Q 3650 5050 3875 5200 
z
" transform="scale(0.015625)"/>
       <path id="SimHei-79fb" d="M 4475 5050 
Q 4300 4875 4075 4500 
L 5850 4500 
Q 5475 3625 5212 3312 
Q 4950 3000 4450 2650 
Q 4675 2575 4925 2500 
Q 4775 2300 4650 2075 
L 6100 2075 
Q 5900 1325 5550 825 
Q 5200 325 4787 37 
Q 4375 -250 3900 -387 
Q 3425 -525 2950 -650 
Q 2850 -425 2600 -125 
Q 3275 -50 3712 37 
Q 4150 125 4525 400 
Q 4375 625 4000 1000 
Q 4125 1100 4325 1250 
Q 4525 1075 4900 675 
Q 5075 900 5250 1162 
Q 5425 1425 5500 1700 
L 4375 1700 
Q 4175 1500 3950 1287 
Q 3725 1075 3350 800 
Q 3150 1025 2950 1150 
Q 3600 1525 3875 1837 
Q 4150 2150 4325 2550 
Q 4025 2350 3750 2225 
Q 3475 2100 3050 1950 
Q 2950 2200 2675 2475 
Q 3150 2525 3475 2637 
Q 3800 2750 4225 3000 
Q 3875 3300 3675 3475 
Q 3775 3600 4000 3775 
Q 4325 3500 4575 3250 
Q 4775 3425 4925 3625 
Q 5075 3825 5175 4125 
L 3850 4125 
Q 3525 3600 3250 3275 
Q 3025 3425 2800 3550 
Q 3250 4000 3475 4387 
Q 3700 4775 3850 5225 
Q 4225 5100 4475 5050 
z
M 2850 4650 
Q 2650 4650 2400 4600 
Q 2150 4550 2000 4525 
L 2000 3425 
Q 2375 3425 2825 3450 
L 2825 3050 
Q 2375 3075 2000 3075 
L 2000 2175 
Q 2100 2300 2325 2525 
Q 2550 2225 2687 2062 
Q 2825 1900 3000 1675 
Q 2775 1550 2625 1375 
Q 2475 1600 2337 1737 
Q 2200 1875 2000 2100 
L 2000 525 
Q 2000 150 2025 -475 
L 1525 -475 
Q 1550 150 1550 525 
L 1550 2075 
Q 1400 1700 1237 1412 
Q 1075 1125 750 650 
Q 525 900 275 1050 
Q 450 1200 637 1425 
Q 825 1650 987 1937 
Q 1150 2225 1275 2525 
Q 1400 2825 1475 3075 
Q 1075 3075 350 3050 
L 350 3450 
Q 1075 3425 1550 3425 
L 1550 4425 
Q 925 4325 625 4250 
Q 525 4525 425 4725 
Q 825 4775 1025 4787 
Q 1225 4800 1475 4850 
L 2000 4975 
Q 2275 5050 2575 5150 
Q 2675 4900 2850 4650 
z
" transform="scale(0.015625)"/>
       <path id="SimHei-5dee" d="M 4725 4975 
Q 4500 4725 4250 4275 
L 4850 4275 
Q 5450 4275 5825 4300 
L 5825 3850 
Q 5425 3875 4850 3875 
L 3275 3875 
Q 3225 3600 3150 3275 
L 4525 3275 
Q 5075 3275 5525 3300 
L 5525 2850 
Q 5075 2875 4500 2875 
L 3050 2875 
Q 2975 2650 2850 2325 
L 5125 2325 
Q 5675 2325 6025 2350 
L 6025 1900 
Q 5700 1925 5150 1925 
L 2650 1925 
Q 2425 1550 2250 1300 
Q 2650 1275 3100 1275 
L 4525 1275 
Q 4975 1275 5350 1300 
L 5350 850 
Q 4975 875 4575 875 
L 3925 875 
L 3925 -50 
L 5000 -50 
Q 5200 -50 5900 -25 
L 5900 -500 
Q 5275 -475 5025 -475 
L 2100 -475 
Q 1700 -475 1400 -500 
L 1400 -25 
Q 1775 -50 2125 -50 
L 3425 -50 
L 3425 875 
L 3100 875 
Q 2625 875 2175 850 
L 2175 1200 
Q 1925 875 1487 475 
Q 1050 75 625 -250 
Q 425 -25 200 150 
Q 750 475 1262 925 
Q 1775 1375 2100 1925 
L 1325 1925 
Q 750 1925 375 1900 
L 375 2350 
Q 750 2325 1350 2325 
L 2325 2325 
Q 2450 2575 2550 2875 
L 1725 2875 
Q 1375 2875 1000 2850 
L 1000 3300 
Q 1500 3275 1700 3275 
L 2650 3275 
Q 2725 3575 2775 3875 
L 1500 3875 
Q 1100 3875 650 3850 
L 650 4300 
Q 1025 4275 1425 4275 
L 2275 4275 
Q 2075 4675 1850 4950 
Q 2025 5050 2250 5225 
Q 2450 4975 2725 4550 
Q 2525 4450 2325 4275 
L 3750 4275 
Q 4000 4700 4150 5250 
Q 4400 5100 4725 4975 
z
" transform="scale(0.015625)"/>
       <path id="SimHei-6d" d="M 3050 125 
L 2550 125 
L 2550 2150 
Q 2550 2300 2500 2400 
Q 2450 2500 2300 2500 
Q 2125 2500 1975 2312 
Q 1825 2125 1825 1825 
L 1825 125 
L 1325 125 
L 1325 2150 
Q 1325 2300 1275 2400 
Q 1225 2500 1075 2500 
Q 900 2500 750 2312 
Q 600 2125 600 1825 
L 600 125 
L 100 125 
L 100 2925 
L 600 2925 
L 600 2550 
Q 725 2750 900 2862 
Q 1075 2975 1275 2975 
Q 1475 2975 1612 2862 
Q 1750 2750 1800 2550 
Q 1925 2750 2087 2862 
Q 2250 2975 2450 2975 
Q 2750 2975 2900 2812 
Q 3050 2650 3050 2350 
L 3050 125 
z
" transform="scale(0.015625)"/>
      </defs>
      <use xlink:href="#SimHei-4f4d"/>
      <use xlink:href="#SimHei-79fb" x="100"/>
      <use xlink:href="#SimHei-5dee" x="200"/>
      <use xlink:href="#SimHei-2f" x="300"/>
      <use xlink:href="#SimHei-6d" x="350"/>
     </g>
    </g>
   </g>
   <g id="line2d_14">
    <path d="M 73.832727 176.42381 
L 73.930133 176.628744 
L 75.099007 180.726339 
L 75.358756 180.838665 
L 75.586037 180.659955 
L 75.878255 180.059892 
L 76.26788 178.66287 
L 76.819848 175.750911 
L 78.605626 165.550431 
L 78.995251 164.668365 
L 79.222532 164.549268 
L 79.417344 164.695277 
L 79.677094 165.253429 
L 80.034249 166.687663 
L 80.52128 169.773084 
L 81.235591 176.012482 
L 82.76162 189.696419 
L 83.281119 192.42511 
L 83.638275 193.337233 
L 83.865556 193.463437 
L 84.060368 193.277924 
L 84.320118 192.600377 
L 84.677274 190.86281 
L 85.131835 187.336907 
L 85.716272 180.83848 
L 86.560458 168.568395 
L 88.054018 146.60547 
L 88.573518 142.020411 
L 88.898205 140.622971 
L 89.093017 140.408164 
L 89.222892 140.539788 
L 89.417704 141.160877 
L 89.709922 143.05748 
L 90.099547 147.352646 
L 90.619046 155.904819 
L 91.430763 173.695216 
L 92.729511 201.852559 
L 93.281479 209.26693 
L 93.671104 211.896796 
L 93.898385 212.344487 
L 94.02826 212.234466 
L 94.223072 211.573287 
L 94.51529 209.491689 
L 94.904914 204.808823 
L 95.456882 194.98092 
L 96.301069 175.118163 
L 97.859566 138.18956 
L 98.444003 129.315697 
L 98.866096 125.839356 
L 99.125846 125.101558 
L 99.25572 125.155514 
L 99.418064 125.628246 
L 99.677814 127.330096 
L 100.034969 131.555195 
L 100.489531 139.92223 
L 101.106436 155.790681 
L 102.372716 196.024063 
L 103.216902 218.939778 
L 103.736401 227.924032 
L 104.093557 231.101343 
L 104.320838 231.734854 
L 104.418244 231.66752 
L 104.580588 231.101735 
L 104.840337 229.027221 
L 105.197493 223.9068 
L 105.684523 213.094296 
L 106.366366 192.21865 
L 108.5093 122.60682 
L 108.996331 114.571275 
L 109.321018 112.037101 
L 109.51583 111.679645 
L 109.613236 111.83516 
L 109.77558 112.592005 
L 110.035329 115.089317 
L 110.392485 121.029775 
L 110.879516 133.391019 
L 111.561358 157.109957 
L 113.606887 232.660906 
L 114.126386 242.801778 
L 114.483541 246.074873 
L 114.678354 246.502575 
L 114.77576 246.351111 
L 114.938103 245.557203 
L 115.197853 242.893667 
L 115.555009 236.53052 
L 116.042039 223.276754 
L 116.723882 197.767627 
L 118.931754 109.355893 
L 119.418784 99.611275 
L 119.743471 96.626947 
L 119.905815 96.262474 
L 119.938283 96.281527 
L 120.068158 96.665797 
L 120.26297 98.165986 
L 120.555189 102.465848 
L 120.944813 111.835313 
L 121.496781 131.27666 
L 122.373436 171.767661 
L 123.672184 230.505606 
L 124.256621 247.648853 
L 124.678714 254.390901 
L 124.938463 255.949569 
L 125.035869 256.013155 
L 125.068338 255.971086 
L 125.198213 255.487361 
L 125.425494 253.438182 
L 125.750181 247.938322 
L 126.172274 236.60699 
L 126.756711 214.41672 
L 127.76324 165.878392 
L 128.932114 112.324052 
L 129.51655 94.367179 
L 129.938643 87.083682 
L 130.198393 85.292216 
L 130.295799 85.172354 
L 130.328268 85.200107 
L 130.458143 85.650958 
L 130.652955 87.347035 
L 130.945173 92.157898 
L 131.334797 102.610045 
L 131.886765 124.326014 
L 132.730952 168.037324 
L 134.094637 238.242221 
L 134.679074 257.718679 
L 135.101167 265.351538 
L 135.360916 267.080309 
L 135.458323 267.130565 
L 135.588197 266.689326 
L 135.78301 264.946632 
L 136.075228 259.960749 
L 136.464852 249.161536 
L 137.01682 226.912691 
L 137.893475 180.697052 
L 139.289629 107.965474 
L 139.874066 88.186873 
L 140.296159 80.306846 
L 140.555909 78.449599 
L 140.653315 78.362036 
L 140.685783 78.407251 
L 140.815658 78.960592 
L 141.042939 81.357378 
L 141.367626 87.865972 
L 141.789719 101.397088 
L 142.374156 128.071567 
L 143.413154 188.22632 
L 144.484622 245.726599 
L 145.069058 266.361096 
L 145.491151 274.402134 
L 145.750901 276.189149 
L 145.815838 276.249702 
L 145.848307 276.22183 
L 145.978182 275.72304 
L 146.172994 273.819927 
L 146.465212 268.424686 
L 146.887305 255.579357 
L 147.439273 231.070168 
L 148.315928 180.552501 
L 149.679614 103.18574 
L 150.26405 81.594125 
L 150.686144 73.03251 
L 150.945893 71.046205 
L 151.043299 70.968133 
L 151.075768 71.023481 
L 151.205643 71.651829 
L 151.432924 74.309374 
L 151.757611 81.457847 
L 152.179704 96.223463 
L 152.76414 125.127616 
L 153.868076 193.66744 
L 154.842137 248.557129 
L 155.426574 270.400871 
L 155.848667 278.92723 
L 156.108417 280.852038 
L 156.173354 280.928394 
L 156.205823 280.905674 
L 156.335698 280.409405 
L 156.53051 278.45696 
L 156.822728 272.873004 
L 157.212353 260.761142 
L 157.76432 235.71452 
L 158.608507 185.351023 
L 160.102067 96.236807 
L 160.686504 74.119159 
L 161.076128 66.029548 
L 161.335878 63.938453 
L 161.400815 63.842038 
L 161.465752 63.917543 
L 161.595627 64.584874 
L 161.822908 67.401302 
L 162.147595 74.976663 
L 162.569688 90.633462 
L 163.154125 121.305569 
L 164.258061 194.037307 
L 165.232122 252.068164 
L 165.816558 274.94186 
L 166.206183 283.273702 
L 166.465932 285.463097 
L 166.563339 285.574994 
L 166.595807 285.526182 
L 166.725682 284.901613 
L 166.952963 282.172183 
L 167.27765 274.775045 
L 167.699743 259.484061 
L 168.28418 229.544924 
L 169.323178 162.295218 
L 170.427114 95.730171 
L 171.011551 72.391314 
L 171.433644 63.16269 
L 171.693393 61.037601 
L 171.758331 60.943497 
L 171.790799 60.962478 
L 171.888206 61.283836 
L 172.083018 63.113817 
L 172.375236 68.781742 
L 172.76486 81.521701 
L 173.28436 106.566689 
L 174.096077 158.37247 
L 175.589638 254.695815 
L 176.174074 278.697368 
L 176.596167 288.101035 
L 176.855917 290.245801 
L 176.920854 290.337914 
L 176.953323 290.317169 
L 177.050729 289.988026 
L 177.245541 288.135481 
L 177.53776 282.433649 
L 177.927384 269.686534 
L 178.446883 244.742519 
L 179.258601 193.234458 
L 180.817098 93.014281 
L 181.401535 69.421834 
L 181.791159 60.837238 
L 182.050909 58.634015 
L 182.115846 58.535939 
L 182.148315 58.555208 
L 182.245721 58.886355 
L 182.440534 60.77459 
L 182.732752 66.618513 
L 183.122376 79.730992 
L 183.641875 105.44004 
L 184.453593 158.408453 
L 185.947153 256.340037 
L 186.53159 280.661323 
L 186.953683 290.190164 
L 187.213433 292.368635 
L 187.27837 292.463931 
L 187.310839 292.443977 
L 187.408245 292.113974 
L 187.603057 290.244815 
L 187.895275 284.479045 
L 188.2849 271.568023 
L 188.804399 246.252169 
L 189.583648 196.079843 
L 191.207083 89.397207 
L 191.79152 65.68495 
L 192.181144 57.264576 
L 192.440894 55.281534 
L 192.505831 55.251929 
L 192.5383 55.30739 
L 192.668174 55.997449 
L 192.895455 58.99607 
L 193.220142 67.12723 
L 193.642235 83.962545 
L 194.226672 116.912173 
L 195.363077 197.154369 
L 196.304669 256.936877 
L 196.889106 281.527534 
L 197.311199 291.065403 
L 197.570948 293.181757 
L 197.635886 293.254515 
L 197.668354 293.222328 
L 197.798229 292.637469 
L 197.993041 290.402582 
L 198.28526 284.072657 
L 198.707353 269.030571 
L 199.259321 240.395982 
L 200.135976 181.520053 
L 201.499661 91.546378 
L 202.084098 66.461361 
L 202.506191 56.508911 
L 202.765941 54.189145 
L 202.830878 54.076881 
L 202.895815 54.152929 
L 203.02569 54.870037 
L 203.252971 57.926253 
L 203.577658 66.163541 
L 203.999751 83.1814 
L 204.584188 116.469455 
L 205.688124 195.245019 
L 206.662185 258.121479 
L 207.246621 283.028024 
L 207.668715 292.674205 
L 207.928464 294.798362 
L 207.993402 294.865769 
L 208.02587 294.829806 
L 208.155745 294.222533 
L 208.350557 291.9324 
L 208.642776 285.473292 
L 209.064869 270.15942 
L 209.616837 241.066877 
L 210.52596 179.093502 
L 211.824708 92.764103 
L 212.409145 67.225092 
L 212.831238 56.976476 
L 213.090988 54.489163 
L 213.188394 54.331395 
L 213.220862 54.373319 
L 213.350737 55.013493 
L 213.545549 57.383528 
L 213.837768 64.040441 
L 214.259861 79.811491 
L 214.811829 109.740918 
L 215.753421 175.481035 
L 216.954763 255.945207 
L 217.5392 281.920005 
L 217.961293 292.496802 
L 218.253511 295.360529 
L 218.350917 295.482071 
L 218.383386 295.429716 
L 218.513261 294.756975 
L 218.740542 291.811759 
L 219.065229 283.817779 
L 219.487322 267.264845 
L 220.071758 234.795101 
L 221.110757 161.803983 
L 222.182224 91.699818 
L 222.766661 66.263936 
L 223.188754 56.210693 
L 223.448503 53.888892 
L 223.513441 53.7825 
L 223.578378 53.866758 
L 223.708253 54.606813 
L 223.935534 57.721361 
L 224.260221 66.071283 
L 224.682314 83.258284 
L 225.299219 118.872627 
L 226.597967 211.805489 
L 227.442154 263.205499 
L 227.994122 284.93475 
L 228.383746 292.958297 
L 228.643496 294.676609 
L 228.708433 294.64464 
L 228.838308 294.027228 
L 229.03312 291.728488 
L 229.325338 285.268871 
L 229.747431 269.969928 
L 230.299399 240.893499 
L 231.176054 181.201552 
L 232.507271 92.160886 
L 233.091708 66.487053 
L 233.513801 56.198255 
L 233.77355 53.717071 
L 233.870957 53.568 
L 233.903425 53.613598 
L 234.0333 54.27229 
L 234.228112 56.681199 
L 234.520331 63.419021 
L 234.942424 79.3432 
L 235.52686 111.537838 
L 236.500921 180.282774 
L 237.604857 253.953208 
L 238.189294 280.239938 
L 238.611387 291.076828 
L 238.903605 294.1368 
L 239.001011 294.326676 
L 239.03348 294.297422 
L 239.163355 293.718682 
L 239.358167 291.476179 
L 239.650385 285.097914 
L 240.072479 269.914296 
L 240.624446 240.996617 
L 241.501101 181.604194 
L 242.832318 93.077587 
L 243.416755 67.568567 
L 243.838848 57.34161 
L 244.098597 54.868677 
L 244.196004 54.716388 
L 244.228472 54.760132 
L 244.358347 55.407475 
L 244.553159 57.787558 
L 244.845378 64.456147 
L 245.267471 80.229936 
L 245.851907 112.141867 
L 246.825968 180.361973 
L 247.962373 255.404442 
L 248.54681 280.987151 
L 248.968903 291.297352 
L 249.261121 293.998825 
L 249.326058 294.093622 
L 249.358527 294.071877 
L 249.455933 293.730425 
L 249.650745 291.811922 
L 249.942964 285.910869 
L 250.332588 272.722495 
L 250.852087 246.918406 
L 251.663805 193.647032 
L 253.222303 90.323939 
L 253.806739 66.278358 
L 254.196364 57.703244 
L 254.456113 55.644183 
L 254.521051 55.598494 
L 254.553519 55.646307 
L 254.683394 56.3082 
L 254.878206 58.704172 
L 255.170425 65.38038 
L 255.592518 81.122712 
L 256.176954 112.892202 
L 257.183484 182.971282 
L 258.28742 254.883744 
L 258.871857 280.125728 
L 259.29395 290.261327 
L 259.553699 292.775932 
L 259.651105 292.96866 
L 259.683574 292.941663 
L 259.78098 292.587318 
L 259.975792 290.655836 
L 260.268011 284.766437 
L 260.657635 271.646825 
L 261.177134 246.010705 
L 261.988852 193.100608 
L 263.54735 90.432211 
L 264.131786 66.550931 
L 264.521411 58.05717 
L 264.78116 56.040022 
L 264.846098 56.003271 
L 264.878566 56.05532 
L 265.008441 56.732598 
L 265.235722 59.710649 
L 265.560409 67.810101 
L 265.982502 84.584043 
L 266.599408 119.453091 
L 267.865687 208.358394 
L 268.742342 260.990695 
L 269.29431 282.27791 
L 269.683934 290.124317 
L 269.911215 291.743352 
L 269.976153 291.798735 
L 270.008621 291.758481 
L 270.138496 291.145517 
L 270.333308 288.880972 
L 270.625527 282.534556 
L 271.04762 267.52727 
L 271.599588 239.043491 
L 272.508711 178.377403 
L 273.807459 94.009692 
L 274.391896 69.232081 
L 274.813989 59.441183 
L 275.073739 57.184689 
L 275.138676 57.082948 
L 275.171145 57.10181 
L 275.268551 57.437349 
L 275.463363 59.35879 
L 275.755581 65.308271 
L 276.145206 78.645087 
L 276.697174 106.632897 
L 277.54136 162.894063 
L 278.905045 252.83174 
L 279.489482 278.045927 
L 279.911575 288.283259 
L 280.203793 291.035095 
L 280.3012 291.143305 
L 280.333668 291.089232 
L 280.463543 290.423383 
L 280.690824 287.543683 
L 281.015511 279.761282 
L 281.437604 263.683957 
L 282.022041 232.20601 
L 283.061039 161.626865 
L 284.132506 94.157418 
L 284.716943 69.886111 
L 285.139036 60.449567 
L 285.398786 58.392033 
L 285.463723 58.33676 
L 285.496192 58.378296 
L 285.626067 59.005253 
L 285.820879 61.319788 
L 286.113097 67.810991 
L 286.53519 83.164018 
L 287.119627 114.199321 
L 288.093688 180.424041 
L 289.197624 251.359699 
L 289.78206 276.675239 
L 290.204154 287.113166 
L 290.496372 290.057329 
L 290.593778 290.23787 
L 290.626247 290.208721 
L 290.756121 289.646303 
L 290.950934 287.474994 
L 291.243152 281.30355 
L 291.665245 266.609791 
L 292.217213 238.609764 
L 293.093868 181.077326 
L 294.425085 95.488778 
L 295.009521 71.014152 
L 295.431614 61.346106 
L 295.691364 59.119185 
L 295.756301 59.019002 
L 295.78877 59.037747 
L 295.886176 59.369306 
L 296.080988 61.266198 
L 296.373207 67.136572 
L 296.762831 80.288504 
L 297.314799 107.866341 
L 298.158985 163.235013 
L 299.522671 251.57575 
L 300.107107 276.292261 
L 300.529201 286.306189 
L 300.821419 288.980298 
L 300.918825 289.077106 
L 300.951294 289.020851 
L 301.081168 288.354341 
L 301.308449 285.504161 
L 301.633136 277.828927 
L 302.05523 261.993923 
L 302.639666 231.002119 
L 303.678665 161.490598 
L 304.750132 95.00288 
L 305.334568 71.091598 
L 305.756661 61.814451 
L 306.016411 59.810384 
L 306.081348 59.763091 
L 306.113817 59.807809 
L 306.243692 60.442103 
L 306.438504 62.751556 
L 306.730723 69.199452 
L 307.152816 84.417087 
L 307.737252 115.13494 
L 308.743782 182.840981 
L 309.815249 250.449291 
L 310.399686 275.266613 
L 310.821779 285.419982 
L 311.113997 288.217709 
L 311.211403 288.359957 
L 311.243872 288.319278 
L 311.373747 287.717096 
L 311.568559 285.505845 
L 311.860777 279.320776 
L 312.28287 264.708444 
L 312.834838 236.991333 
L 313.743962 178.010443 
L 315.010241 97.834732 
L 315.594678 73.292119 
L 316.016771 63.38581 
L 316.276521 60.941349 
L 316.373927 60.765937 
L 316.406396 60.797867 
L 316.53627 61.377463 
L 316.731083 63.594824 
L 317.023301 69.884716 
L 317.445394 84.842202 
L 317.997362 113.247041 
L 318.938954 175.507526 
L 320.107828 249.587849 
L 320.692264 274.436061 
L 321.114357 284.692602 
L 321.406576 287.595358 
L 321.503982 287.77779 
L 321.53645 287.75102 
L 321.666325 287.206849 
L 321.861137 285.088913 
L 322.153356 279.054655 
L 322.54298 266.00026 
L 323.094948 239.092254 
L 323.939134 185.348019 
L 325.335288 97.083638 
L 325.919725 73.132191 
L 326.341818 63.686658 
L 326.601568 61.524393 
L 326.666505 61.4315 
L 326.698974 61.452551 
L 326.79638 61.785669 
L 326.991192 63.661641 
L 327.283411 69.441541 
L 327.673035 82.368241 
L 328.225003 109.448903 
L 329.069189 163.782552 
L 330.432875 250.388943 
L 331.017311 274.574431 
L 331.439404 284.339356 
L 331.731623 286.91536 
L 331.79656 287.010914 
L 331.861497 286.932528 
L 331.991372 286.255169 
L 332.218653 283.41606 
L 332.54334 275.821685 
L 332.965433 260.199775 
L 333.54987 229.678079 
L 334.588868 161.334095 
L 335.660335 96.118045 
L 336.244772 72.759575 
L 336.634397 64.20386 
L 336.894146 61.964272 
L 336.991552 61.860077 
L 337.024021 61.914989 
L 337.153896 62.582481 
L 337.381177 65.461973 
L 337.705864 73.244676 
L 338.127957 89.316785 
L 338.744862 122.662953 
L 340.076079 211.710769 
L 340.887796 257.505957 
L 341.439764 277.627258 
L 341.829389 284.953842 
L 342.05667 286.397638 
L 342.121607 286.420797 
L 342.154076 286.367427 
L 342.283951 285.722007 
L 342.511231 282.945116 
L 342.835919 275.452402 
L 343.258012 259.98137 
L 343.842448 229.69088 
L 344.881447 161.747285 
L 345.952914 96.781276 
L 346.53735 73.439483 
L 346.926975 64.842826 
L 347.186724 62.554079 
L 347.284131 62.427294 
L 347.316599 62.474201 
L 347.446474 63.107412 
L 347.673755 65.918916 
L 347.998442 73.589921 
L 348.420535 89.499984 
L 349.03744 122.602273 
L 350.30372 207.046022 
L 351.180375 257.015121 
L 351.732343 277.185751 
L 352.121967 284.581112 
L 352.349248 286.075463 
L 352.414185 286.114254 
L 352.446654 286.06888 
L 352.576529 285.456553 
L 352.80381 282.741281 
L 353.128497 275.342582 
L 353.55059 259.99897 
L 354.135027 229.882091 
L 355.174025 162.192368 
L 356.245492 97.35151 
L 356.829929 74.001712 
L 357.252022 64.923837 
L 357.511772 62.94854 
L 357.576709 62.897048 
L 357.609178 62.937957 
L 357.739052 63.545652 
L 357.933865 65.781458 
L 358.226083 72.045223 
L 358.648176 86.852648 
L 359.232613 116.771205 
L 360.239142 182.767386 
L 361.31061 248.721334 
L 361.895046 272.951843 
L 362.317139 282.874137 
L 362.609358 285.613626 
L 362.706764 285.755073 
L 362.739232 285.716179 
L 362.869107 285.131291 
L 363.063919 282.9759 
L 363.356138 276.939005 
L 363.778231 262.664371 
L 364.330199 235.567414 
L 365.239322 177.857343 
L 366.505602 99.350217 
L 367.090038 75.321441 
L 367.512132 65.635983 
L 367.771881 63.258369 
L 367.869287 63.094054 
L 367.901756 63.127979 
L 368.031631 63.707025 
L 368.226443 65.898059 
L 368.518661 72.091985 
L 368.940754 86.796948 
L 369.525191 116.580924 
L 370.499252 180.189216 
L 371.603188 248.27689 
L 372.187625 272.522931 
L 372.609718 282.482024 
L 372.901936 285.259093 
L 372.999342 285.415158 
L 373.031811 285.38136 
L 373.161686 284.817942 
L 373.356498 282.697864 
L 373.648716 276.720227 
L 374.070809 262.541749 
L 374.622777 235.580553 
L 375.531901 178.078468 
L 376.830649 98.090513 
L 377.415086 74.65657 
L 377.837179 65.453549 
L 378.096928 63.379696 
L 378.161866 63.30147 
L 378.194334 63.328733 
L 378.324209 63.880161 
L 378.519021 66.027282 
L 378.81124 72.151494 
L 379.200864 85.40582 
L 379.752832 112.665286 
L 380.661956 171.022965 
L 381.895766 247.953441 
L 382.480203 272.260167 
L 382.902296 282.282196 
L 383.194514 285.109349 
L 383.29192 285.282969 
L 383.324389 285.2551 
L 383.454264 284.715732 
L 383.649076 282.63251 
L 383.941294 276.711107 
L 384.363388 262.613516 
L 384.915356 235.752152 
L 385.79201 180.562801 
L 387.123227 98.459013 
L 387.707664 74.9928 
L 388.129757 65.742206 
L 388.389507 63.629986 
L 388.454444 63.541204 
L 388.486913 63.563055 
L 388.584319 63.893587 
L 388.779131 65.74223 
L 389.071349 71.427681 
L 389.460974 84.136556 
L 390.012942 110.758987 
L 390.857128 164.178774 
L 392.220813 249.312313 
L 392.80525 273.055361 
L 393.227343 282.614885 
L 393.519561 285.11183 
L 393.584499 285.197119 
L 393.616968 285.175535 
L 393.714374 284.854198 
L 393.909186 283.063677 
L 394.201404 277.568901 
L 394.591029 265.297635 
L 395.110528 241.290978 
L 395.922245 191.717756 
L 397.448274 97.15044 
L 398.032711 74.235991 
L 398.422335 65.87594 
L 398.487273 65.074203 
L 398.487273 65.074203 
" clip-path="url(#p94cc398ba1)" style="fill: none; stroke: #ff0000; stroke-linecap: square"/>
   </g>
   <g id="patch_3">
    <path d="M 57.6 307.584 
L 57.6 41.472 
" style="fill: none; stroke: #000000; stroke-width: 0.8; stroke-linejoin: miter; stroke-linecap: square"/>
   </g>
   <g id="patch_4">
    <path d="M 414.72 307.584 
L 414.72 41.472 
" style="fill: none; stroke: #000000; stroke-width: 0.8; stroke-linejoin: miter; stroke-linecap: square"/>
   </g>
   <g id="patch_5">
    <path d="M 57.6 307.584 
L 414.72 307.584 
" style="fill: none; stroke: #000000; stroke-width: 0.8; stroke-linejoin: miter; stroke-linecap: square"/>
   </g>
   <g id="patch_6">
    <path d="M 57.6 41.472 
L 414.72 41.472 
" style="fill: none; stroke: #000000; stroke-width: 0.8; stroke-linejoin: miter; stroke-linecap: square"/>
   </g>
  </g>
 </g>
 <defs>
  <clipPath id="p94cc398ba1">
   <rect x="57.6" y="41.472" width="357.12" height="266.112"/>
  </clipPath>
 </defs>
</svg>
