<?xml version="1.0" encoding="utf-8" standalone="no"?>
<!DOCTYPE svg PUBLIC "-//W3C//DTD SVG 1.1//EN"
  "http://www.w3.org/Graphics/SVG/1.1/DTD/svg11.dtd">
<svg xmlns:xlink="http://www.w3.org/1999/xlink" width="460.8pt" height="345.6pt" viewBox="0 0 460.8 345.6" xmlns="http://www.w3.org/2000/svg" version="1.1">
 <metadata>
  <rdf:RDF xmlns:dc="http://purl.org/dc/elements/1.1/" xmlns:cc="http://creativecommons.org/ns#" xmlns:rdf="http://www.w3.org/1999/02/22-rdf-syntax-ns#">
   <cc:Work>
    <dc:type rdf:resource="http://purl.org/dc/dcmitype/StillImage"/>
    <dc:date>2023-03-25T18:07:15.342893</dc:date>
    <dc:format>image/svg+xml</dc:format>
    <dc:creator>
     <cc:Agent>
      <dc:title>Matplotlib v3.5.2, https://matplotlib.org/</dc:title>
     </cc:Agent>
    </dc:creator>
   </cc:Work>
  </rdf:RDF>
 </metadata>
 <defs>
  <style type="text/css">*{stroke-linejoin: round; stroke-linecap: butt}</style>
 </defs>
 <g id="figure_1">
  <g id="patch_1">
   <path d="M 0 345.6 
L 460.8 345.6 
L 460.8 0 
L 0 0 
z
" style="fill: #ffffff"/>
  </g>
  <g id="axes_1">
   <g id="patch_2">
    <path d="M 57.6 307.584 
L 414.72 307.584 
L 414.72 41.472 
L 57.6 41.472 
z
" style="fill: #ffffff"/>
   </g>
   <g id="matplotlib.axis_1">
    <g id="xtick_1">
     <g id="line2d_1">
      <defs>
       <path id="mf7bef5f1c9" d="M 0 0 
L 0 3.5 
" style="stroke: #000000; stroke-width: 0.8"/>
      </defs>
      <g>
       <use xlink:href="#mf7bef5f1c9" x="73.832727" y="307.584" style="stroke: #000000; stroke-width: 0.8"/>
      </g>
     </g>
     <g id="text_1">
      <!-- 0 -->
      <g transform="translate(71.332727 321.459)scale(0.1 -0.1)">
       <defs>
        <path id="SimHei-30" d="M 225 2537 
Q 250 3200 412 3587 
Q 575 3975 875 4225 
Q 1175 4475 1612 4475 
Q 2050 4475 2375 4112 
Q 2700 3750 2800 3200 
Q 2900 2650 2862 1937 
Q 2825 1225 2612 775 
Q 2400 325 1975 150 
Q 1550 -25 1125 187 
Q 700 400 525 750 
Q 350 1100 275 1487 
Q 200 1875 225 2537 
z
M 750 2687 
Q 675 2000 800 1462 
Q 925 925 1212 700 
Q 1500 475 1800 612 
Q 2100 750 2237 1162 
Q 2375 1575 2375 2062 
Q 2375 2550 2337 2950 
Q 2300 3350 2112 3675 
Q 1925 4000 1612 4012 
Q 1300 4025 1062 3700 
Q 825 3375 750 2687 
z
" transform="scale(0.015625)"/>
       </defs>
       <use xlink:href="#SimHei-30"/>
      </g>
     </g>
    </g>
    <g id="xtick_2">
     <g id="line2d_2">
      <g>
       <use xlink:href="#mf7bef5f1c9" x="138.77013" y="307.584" style="stroke: #000000; stroke-width: 0.8"/>
      </g>
     </g>
     <g id="text_2">
      <!-- 20 -->
      <g transform="translate(133.77013 321.459)scale(0.1 -0.1)">
       <defs>
        <path id="SimHei-32" d="M 300 250 
Q 325 625 650 925 
Q 975 1225 1475 1862 
Q 1975 2500 2125 2850 
Q 2275 3200 2237 3450 
Q 2200 3700 2000 3862 
Q 1800 4025 1537 4000 
Q 1275 3975 1037 3800 
Q 800 3625 675 3275 
L 200 3350 
Q 400 3925 712 4187 
Q 1025 4450 1450 4475 
Q 1700 4500 1900 4462 
Q 2100 4425 2312 4287 
Q 2525 4150 2662 3875 
Q 2800 3600 2762 3212 
Q 2725 2825 2375 2287 
Q 2025 1750 1025 600 
L 2825 600 
L 2825 150 
L 300 150 
L 300 250 
z
" transform="scale(0.015625)"/>
       </defs>
       <use xlink:href="#SimHei-32"/>
       <use xlink:href="#SimHei-30" x="50"/>
      </g>
     </g>
    </g>
    <g id="xtick_3">
     <g id="line2d_3">
      <g>
       <use xlink:href="#mf7bef5f1c9" x="203.707533" y="307.584" style="stroke: #000000; stroke-width: 0.8"/>
      </g>
     </g>
     <g id="text_3">
      <!-- 40 -->
      <g transform="translate(198.707533 321.459)scale(0.1 -0.1)">
       <defs>
        <path id="SimHei-34" d="M 2000 1100 
L 75 1100 
L 75 1525 
L 2100 4450 
L 2475 4450 
L 2475 1525 
L 3075 1525 
L 3075 1100 
L 2475 1100 
L 2475 150 
L 2000 150 
L 2000 1100 
z
M 2000 1525 
L 2000 3500 
L 600 1525 
L 2000 1525 
z
" transform="scale(0.015625)"/>
       </defs>
       <use xlink:href="#SimHei-34"/>
       <use xlink:href="#SimHei-30" x="50"/>
      </g>
     </g>
    </g>
    <g id="xtick_4">
     <g id="line2d_4">
      <g>
       <use xlink:href="#mf7bef5f1c9" x="268.644936" y="307.584" style="stroke: #000000; stroke-width: 0.8"/>
      </g>
     </g>
     <g id="text_4">
      <!-- 60 -->
      <g transform="translate(263.644936 321.459)scale(0.1 -0.1)">
       <defs>
        <path id="SimHei-36" d="M 250 1612 
Q 275 1975 387 2225 
Q 500 2475 725 2850 
L 1750 4450 
L 2325 4450 
L 1275 2800 
Q 1950 2975 2350 2750 
Q 2750 2525 2887 2237 
Q 3025 1950 3037 1612 
Q 3050 1275 2937 950 
Q 2825 625 2537 362 
Q 2250 100 1737 75 
Q 1225 50 862 262 
Q 500 475 362 862 
Q 225 1250 250 1612 
z
M 1025 787 
Q 1250 550 1625 525 
Q 2000 500 2250 775 
Q 2500 1050 2500 1575 
Q 2500 2100 2187 2300 
Q 1875 2500 1487 2450 
Q 1100 2400 925 2075 
Q 750 1750 775 1387 
Q 800 1025 1025 787 
z
" transform="scale(0.015625)"/>
       </defs>
       <use xlink:href="#SimHei-36"/>
       <use xlink:href="#SimHei-30" x="50"/>
      </g>
     </g>
    </g>
    <g id="xtick_5">
     <g id="line2d_5">
      <g>
       <use xlink:href="#mf7bef5f1c9" x="333.582339" y="307.584" style="stroke: #000000; stroke-width: 0.8"/>
      </g>
     </g>
     <g id="text_5">
      <!-- 80 -->
      <g transform="translate(328.582339 321.459)scale(0.1 -0.1)">
       <defs>
        <path id="SimHei-38" d="M 175 1375 
Q 175 1675 325 1962 
Q 475 2250 825 2425 
Q 525 2600 425 2812 
Q 325 3025 312 3300 
Q 300 3575 387 3775 
Q 475 3975 650 4150 
Q 825 4325 1037 4387 
Q 1250 4450 1500 4450 
Q 1750 4450 1950 4400 
Q 2150 4350 2375 4187 
Q 2600 4025 2700 3725 
Q 2800 3425 2687 3025 
Q 2575 2625 2100 2400 
Q 2525 2275 2700 2012 
Q 2875 1750 2875 1375 
Q 2875 1000 2762 775 
Q 2650 550 2512 400 
Q 2375 250 2137 162 
Q 1900 75 1537 75 
Q 1175 75 912 162 
Q 650 250 475 425 
Q 300 600 237 837 
Q 175 1075 175 1375 
z
M 687 1400 
Q 675 1100 787 875 
Q 900 650 1200 587 
Q 1500 525 1825 600 
Q 2150 675 2275 950 
Q 2400 1225 2362 1500 
Q 2325 1775 2050 1962 
Q 1775 2150 1450 2125 
Q 1125 2100 912 1900 
Q 700 1700 687 1400 
z
M 775 3350 
Q 775 3100 950 2875 
Q 1125 2650 1500 2650 
Q 1875 2650 2062 2875 
Q 2250 3100 2237 3412 
Q 2225 3725 2012 3875 
Q 1800 4025 1437 4000 
Q 1075 3975 925 3787 
Q 775 3600 775 3350 
z
" transform="scale(0.015625)"/>
       </defs>
       <use xlink:href="#SimHei-38"/>
       <use xlink:href="#SimHei-30" x="50"/>
      </g>
     </g>
    </g>
    <g id="xtick_6">
     <g id="line2d_6">
      <g>
       <use xlink:href="#mf7bef5f1c9" x="398.519741" y="307.584" style="stroke: #000000; stroke-width: 0.8"/>
      </g>
     </g>
     <g id="text_6">
      <!-- 100 -->
      <g transform="translate(391.019741 321.459)scale(0.1 -0.1)">
       <defs>
        <path id="SimHei-31" d="M 1400 3600 
Q 1075 3275 575 2975 
L 575 3450 
Q 1200 3875 1600 4450 
L 1900 4450 
L 1900 150 
L 1400 150 
L 1400 3600 
z
" transform="scale(0.015625)"/>
       </defs>
       <use xlink:href="#SimHei-31"/>
       <use xlink:href="#SimHei-30" x="50"/>
       <use xlink:href="#SimHei-30" x="100"/>
      </g>
     </g>
    </g>
    <g id="text_7">
     <!-- 时间/s -->
     <g transform="translate(221.16 334.716812)scale(0.1 -0.1)">
      <defs>
       <path id="SimHei-65f6" d="M 2525 4575 
Q 2500 3675 2500 2400 
Q 2500 1125 2525 400 
L 2000 400 
L 2000 875 
L 1000 875 
L 1000 50 
L 475 50 
Q 500 1200 500 2350 
Q 500 3525 475 4575 
L 2525 4575 
z
M 4875 3825 
Q 4875 4575 4850 5225 
L 5400 5225 
Q 5375 4575 5375 3825 
Q 5750 3825 6175 3850 
L 6175 3375 
Q 5750 3400 5375 3400 
L 5375 50 
Q 5375 -325 5075 -425 
Q 4775 -525 4300 -575 
Q 4300 -275 4025 0 
Q 4500 -50 4687 -25 
Q 4875 0 4875 300 
L 4875 3400 
Q 3625 3400 2775 3375 
L 2775 3850 
Q 3575 3825 4875 3825 
z
M 2000 1300 
L 2000 2550 
L 1000 2550 
L 1000 1300 
L 2000 1300 
z
M 2000 2975 
L 2000 4150 
L 1000 4150 
L 1000 2975 
L 2000 2975 
z
M 3550 2725 
Q 3875 2200 4175 1600 
Q 3925 1525 3650 1375 
Q 3450 1975 3075 2500 
Q 3300 2600 3550 2725 
z
" transform="scale(0.015625)"/>
       <path id="SimHei-95f4" d="M 4450 3550 
Q 4425 3075 4425 2725 
L 4425 1400 
Q 4425 1075 4450 625 
L 1925 625 
Q 1950 1075 1950 1425 
L 1950 2725 
Q 1950 3075 1925 3550 
L 4450 3550 
z
M 5800 4875 
Q 5775 4400 5775 3925 
L 5775 250 
Q 5800 -325 5462 -450 
Q 5125 -575 4725 -625 
Q 4700 -325 4525 -25 
Q 5000 -50 5137 25 
Q 5275 100 5275 350 
L 5275 4450 
L 3775 4450 
Q 3175 4450 2650 4425 
L 2650 4900 
Q 3175 4875 3775 4875 
L 5800 4875 
z
M 550 -525 
Q 600 -25 600 525 
L 600 3150 
Q 600 3675 550 4025 
L 1125 4025 
Q 1100 3650 1100 3300 
L 1100 500 
Q 1100 0 1125 -525 
L 550 -525 
z
M 3950 1025 
L 3950 1950 
L 2425 1950 
L 2425 1025 
L 3950 1025 
z
M 3950 2350 
L 3950 3150 
L 2425 3150 
L 2425 2350 
L 3950 2350 
z
M 1525 5300 
Q 1750 5000 2225 4350 
Q 1950 4225 1700 4075 
Q 1450 4575 1075 5025 
Q 1350 5225 1525 5300 
z
" transform="scale(0.015625)"/>
       <path id="SimHei-2f" d="M 3000 4550 
L 350 -175 
L 100 -25 
L 2750 4700 
L 3000 4550 
z
" transform="scale(0.015625)"/>
       <path id="SimHei-73" d="M 2750 900 
Q 2750 500 2437 287 
Q 2125 75 1650 75 
Q 1050 75 725 312 
Q 400 550 400 1000 
L 900 1000 
Q 900 700 1112 600 
Q 1325 500 1625 500 
Q 1925 500 2075 612 
Q 2225 725 2225 900 
Q 2225 1025 2100 1150 
Q 1975 1275 1475 1350 
Q 900 1425 687 1637 
Q 475 1850 475 2200 
Q 475 2500 762 2737 
Q 1050 2975 1600 2975 
Q 2100 2975 2387 2750 
Q 2675 2525 2675 2150 
L 2175 2150 
Q 2175 2375 2012 2462 
Q 1850 2550 1600 2550 
Q 1275 2550 1137 2437 
Q 1000 2325 1000 2175 
Q 1000 2000 1125 1900 
Q 1250 1800 1650 1750 
Q 2300 1650 2525 1437 
Q 2750 1225 2750 900 
z
" transform="scale(0.015625)"/>
      </defs>
      <use xlink:href="#SimHei-65f6"/>
      <use xlink:href="#SimHei-95f4" x="100"/>
      <use xlink:href="#SimHei-2f" x="200"/>
      <use xlink:href="#SimHei-73" x="250"/>
     </g>
    </g>
   </g>
   <g id="matplotlib.axis_2">
    <g id="ytick_1">
     <g id="line2d_7">
      <defs>
       <path id="me05021d0cf" d="M 0 0 
L -3.5 0 
" style="stroke: #000000; stroke-width: 0.8"/>
      </defs>
      <g>
       <use xlink:href="#me05021d0cf" x="57.6" y="279.225672" style="stroke: #000000; stroke-width: 0.8"/>
      </g>
     </g>
     <g id="text_8">
      <!-- -0.075 -->
      <g transform="translate(20.6 282.663172)scale(0.1 -0.1)">
       <defs>
        <path id="SimHei-2d" d="M 2975 2125 
L 125 2125 
L 125 2525 
L 2975 2525 
L 2975 2125 
z
" transform="scale(0.015625)"/>
        <path id="SimHei-2e" d="M 1075 125 
L 500 125 
L 500 675 
L 1075 675 
L 1075 125 
z
" transform="scale(0.015625)"/>
        <path id="SimHei-37" d="M 850 150 
Q 1300 2050 2425 3925 
L 275 3925 
L 275 4375 
L 2950 4375 
L 2950 3950 
Q 1775 2050 1400 150 
L 850 150 
z
" transform="scale(0.015625)"/>
        <path id="SimHei-35" d="M 550 1325 
Q 725 650 1150 575 
Q 1575 500 1837 662 
Q 2100 825 2212 1087 
Q 2325 1350 2312 1675 
Q 2300 2000 2137 2225 
Q 1975 2450 1725 2525 
Q 1475 2600 1162 2525 
Q 850 2450 650 2175 
L 225 2225 
Q 275 2375 700 4375 
L 2675 4375 
L 2675 3925 
L 1075 3925 
Q 950 3250 825 2850 
Q 1200 3025 1525 3012 
Q 1850 3000 2150 2862 
Q 2450 2725 2587 2487 
Q 2725 2250 2787 2012 
Q 2850 1775 2837 1500 
Q 2825 1225 2725 937 
Q 2625 650 2425 462 
Q 2225 275 1937 162 
Q 1650 50 1275 75 
Q 900 100 562 350 
Q 225 600 100 1200 
L 550 1325 
z
" transform="scale(0.015625)"/>
       </defs>
       <use xlink:href="#SimHei-2d"/>
       <use xlink:href="#SimHei-30" x="50"/>
       <use xlink:href="#SimHei-2e" x="100"/>
       <use xlink:href="#SimHei-30" x="150"/>
       <use xlink:href="#SimHei-37" x="200"/>
       <use xlink:href="#SimHei-35" x="250"/>
      </g>
     </g>
    </g>
    <g id="ytick_2">
     <g id="line2d_8">
      <g>
       <use xlink:href="#me05021d0cf" x="57.6" y="245.799696" style="stroke: #000000; stroke-width: 0.8"/>
      </g>
     </g>
     <g id="text_9">
      <!-- -0.050 -->
      <g transform="translate(20.6 249.237196)scale(0.1 -0.1)">
       <use xlink:href="#SimHei-2d"/>
       <use xlink:href="#SimHei-30" x="50"/>
       <use xlink:href="#SimHei-2e" x="100"/>
       <use xlink:href="#SimHei-30" x="150"/>
       <use xlink:href="#SimHei-35" x="200"/>
       <use xlink:href="#SimHei-30" x="250"/>
      </g>
     </g>
    </g>
    <g id="ytick_3">
     <g id="line2d_9">
      <g>
       <use xlink:href="#me05021d0cf" x="57.6" y="212.37372" style="stroke: #000000; stroke-width: 0.8"/>
      </g>
     </g>
     <g id="text_10">
      <!-- -0.025 -->
      <g transform="translate(20.6 215.81122)scale(0.1 -0.1)">
       <use xlink:href="#SimHei-2d"/>
       <use xlink:href="#SimHei-30" x="50"/>
       <use xlink:href="#SimHei-2e" x="100"/>
       <use xlink:href="#SimHei-30" x="150"/>
       <use xlink:href="#SimHei-32" x="200"/>
       <use xlink:href="#SimHei-35" x="250"/>
      </g>
     </g>
    </g>
    <g id="ytick_4">
     <g id="line2d_10">
      <g>
       <use xlink:href="#me05021d0cf" x="57.6" y="178.947744" style="stroke: #000000; stroke-width: 0.8"/>
      </g>
     </g>
     <g id="text_11">
      <!-- 0.000 -->
      <g transform="translate(25.6 182.385244)scale(0.1 -0.1)">
       <use xlink:href="#SimHei-30"/>
       <use xlink:href="#SimHei-2e" x="50"/>
       <use xlink:href="#SimHei-30" x="100"/>
       <use xlink:href="#SimHei-30" x="150"/>
       <use xlink:href="#SimHei-30" x="200"/>
      </g>
     </g>
    </g>
    <g id="ytick_5">
     <g id="line2d_11">
      <g>
       <use xlink:href="#me05021d0cf" x="57.6" y="145.521768" style="stroke: #000000; stroke-width: 0.8"/>
      </g>
     </g>
     <g id="text_12">
      <!-- 0.025 -->
      <g transform="translate(25.6 148.959268)scale(0.1 -0.1)">
       <use xlink:href="#SimHei-30"/>
       <use xlink:href="#SimHei-2e" x="50"/>
       <use xlink:href="#SimHei-30" x="100"/>
       <use xlink:href="#SimHei-32" x="150"/>
       <use xlink:href="#SimHei-35" x="200"/>
      </g>
     </g>
    </g>
    <g id="ytick_6">
     <g id="line2d_12">
      <g>
       <use xlink:href="#me05021d0cf" x="57.6" y="112.095792" style="stroke: #000000; stroke-width: 0.8"/>
      </g>
     </g>
     <g id="text_13">
      <!-- 0.050 -->
      <g transform="translate(25.6 115.533292)scale(0.1 -0.1)">
       <use xlink:href="#SimHei-30"/>
       <use xlink:href="#SimHei-2e" x="50"/>
       <use xlink:href="#SimHei-30" x="100"/>
       <use xlink:href="#SimHei-35" x="150"/>
       <use xlink:href="#SimHei-30" x="200"/>
      </g>
     </g>
    </g>
    <g id="ytick_7">
     <g id="line2d_13">
      <g>
       <use xlink:href="#me05021d0cf" x="57.6" y="78.669816" style="stroke: #000000; stroke-width: 0.8"/>
      </g>
     </g>
     <g id="text_14">
      <!-- 0.075 -->
      <g transform="translate(25.6 82.107316)scale(0.1 -0.1)">
       <use xlink:href="#SimHei-30"/>
       <use xlink:href="#SimHei-2e" x="50"/>
       <use xlink:href="#SimHei-30" x="100"/>
       <use xlink:href="#SimHei-37" x="150"/>
       <use xlink:href="#SimHei-35" x="200"/>
      </g>
     </g>
    </g>
    <g id="ytick_8">
     <g id="line2d_14">
      <g>
       <use xlink:href="#me05021d0cf" x="57.6" y="45.24384" style="stroke: #000000; stroke-width: 0.8"/>
      </g>
     </g>
     <g id="text_15">
      <!-- 0.100 -->
      <g transform="translate(25.6 48.68134)scale(0.1 -0.1)">
       <use xlink:href="#SimHei-30"/>
       <use xlink:href="#SimHei-2e" x="50"/>
       <use xlink:href="#SimHei-31" x="100"/>
       <use xlink:href="#SimHei-30" x="150"/>
       <use xlink:href="#SimHei-30" x="200"/>
      </g>
     </g>
    </g>
    <g id="text_16">
     <!-- 角位移/m -->
     <g transform="translate(15.35 194.528)rotate(-90)scale(0.1 -0.1)">
      <defs>
       <path id="SimHei-89d2" d="M 3125 900 
L 1625 900 
Q 1475 125 875 -625 
Q 650 -400 400 -300 
Q 775 50 975 475 
Q 1175 900 1250 1575 
Q 1325 2250 1300 3325 
Q 1100 3125 825 2925 
Q 700 3125 425 3325 
Q 650 3425 1075 3737 
Q 1500 4050 1850 4512 
Q 2200 4975 2350 5275 
Q 2550 5125 2825 5000 
Q 2700 4875 2425 4525 
L 4825 4525 
Q 4700 4375 4050 3475 
L 5600 3475 
Q 5575 2925 5575 2500 
L 5575 25 
Q 5575 -350 5325 -450 
Q 5075 -550 4575 -600 
Q 4500 -325 4325 -50 
Q 4825 -50 4975 0 
Q 5125 50 5100 325 
L 5100 900 
L 3600 900 
L 3600 400 
Q 3600 25 3625 -500 
L 3075 -500 
Q 3125 0 3125 500 
L 3125 900 
z
M 3525 3475 
L 3975 4125 
L 2150 4125 
Q 1825 3775 1475 3475 
L 3525 3475 
z
M 5100 1300 
L 5100 2000 
L 3600 2000 
L 3600 1300 
L 5100 1300 
z
M 5100 2400 
L 5100 3050 
L 3600 3050 
L 3600 2400 
L 5100 2400 
z
M 3125 1300 
L 3125 2000 
L 1750 2000 
Q 1750 1625 1700 1300 
L 3125 1300 
z
M 3125 2400 
L 3125 3050 
L 1775 3050 
L 1775 2400 
L 3125 2400 
z
" transform="scale(0.015625)"/>
       <path id="SimHei-4f4d" d="M 2125 4925 
Q 1950 4750 1625 3750 
L 1625 575 
Q 1625 -225 1650 -650 
L 1100 -650 
Q 1150 -200 1150 550 
L 1150 2950 
Q 775 2275 550 1950 
Q 375 2275 200 2425 
Q 525 2775 912 3575 
Q 1300 4375 1500 5200 
Q 1825 5000 2125 4925 
z
M 5375 3025 
Q 5275 2875 5100 2250 
Q 4925 1625 4600 300 
L 5450 300 
Q 5925 300 6100 325 
L 6100 -175 
Q 5875 -150 5450 -150 
L 2900 -150 
Q 2275 -150 2050 -175 
L 2050 325 
Q 2275 300 2850 300 
L 4075 300 
Q 4400 1400 4700 3175 
Q 5100 3075 5375 3025 
z
M 5250 4025 
Q 5700 4025 5925 4050 
L 5925 3575 
Q 5700 3600 5225 3600 
L 3000 3600 
Q 2650 3600 2275 3575 
L 2275 4050 
Q 2675 4025 3000 4025 
L 5250 4025 
z
M 3050 3050 
Q 3500 1775 3750 725 
Q 3450 625 3250 550 
Q 3125 1125 2962 1675 
Q 2800 2225 2550 2875 
Q 2800 2925 3050 3050 
z
M 3875 5200 
Q 4175 4675 4400 4300 
Q 4200 4250 3875 4075 
Q 3700 4525 3400 4950 
Q 3650 5050 3875 5200 
z
" transform="scale(0.015625)"/>
       <path id="SimHei-79fb" d="M 4475 5050 
Q 4300 4875 4075 4500 
L 5850 4500 
Q 5475 3625 5212 3312 
Q 4950 3000 4450 2650 
Q 4675 2575 4925 2500 
Q 4775 2300 4650 2075 
L 6100 2075 
Q 5900 1325 5550 825 
Q 5200 325 4787 37 
Q 4375 -250 3900 -387 
Q 3425 -525 2950 -650 
Q 2850 -425 2600 -125 
Q 3275 -50 3712 37 
Q 4150 125 4525 400 
Q 4375 625 4000 1000 
Q 4125 1100 4325 1250 
Q 4525 1075 4900 675 
Q 5075 900 5250 1162 
Q 5425 1425 5500 1700 
L 4375 1700 
Q 4175 1500 3950 1287 
Q 3725 1075 3350 800 
Q 3150 1025 2950 1150 
Q 3600 1525 3875 1837 
Q 4150 2150 4325 2550 
Q 4025 2350 3750 2225 
Q 3475 2100 3050 1950 
Q 2950 2200 2675 2475 
Q 3150 2525 3475 2637 
Q 3800 2750 4225 3000 
Q 3875 3300 3675 3475 
Q 3775 3600 4000 3775 
Q 4325 3500 4575 3250 
Q 4775 3425 4925 3625 
Q 5075 3825 5175 4125 
L 3850 4125 
Q 3525 3600 3250 3275 
Q 3025 3425 2800 3550 
Q 3250 4000 3475 4387 
Q 3700 4775 3850 5225 
Q 4225 5100 4475 5050 
z
M 2850 4650 
Q 2650 4650 2400 4600 
Q 2150 4550 2000 4525 
L 2000 3425 
Q 2375 3425 2825 3450 
L 2825 3050 
Q 2375 3075 2000 3075 
L 2000 2175 
Q 2100 2300 2325 2525 
Q 2550 2225 2687 2062 
Q 2825 1900 3000 1675 
Q 2775 1550 2625 1375 
Q 2475 1600 2337 1737 
Q 2200 1875 2000 2100 
L 2000 525 
Q 2000 150 2025 -475 
L 1525 -475 
Q 1550 150 1550 525 
L 1550 2075 
Q 1400 1700 1237 1412 
Q 1075 1125 750 650 
Q 525 900 275 1050 
Q 450 1200 637 1425 
Q 825 1650 987 1937 
Q 1150 2225 1275 2525 
Q 1400 2825 1475 3075 
Q 1075 3075 350 3050 
L 350 3450 
Q 1075 3425 1550 3425 
L 1550 4425 
Q 925 4325 625 4250 
Q 525 4525 425 4725 
Q 825 4775 1025 4787 
Q 1225 4800 1475 4850 
L 2000 4975 
Q 2275 5050 2575 5150 
Q 2675 4900 2850 4650 
z
" transform="scale(0.015625)"/>
       <path id="SimHei-6d" d="M 3050 125 
L 2550 125 
L 2550 2150 
Q 2550 2300 2500 2400 
Q 2450 2500 2300 2500 
Q 2125 2500 1975 2312 
Q 1825 2125 1825 1825 
L 1825 125 
L 1325 125 
L 1325 2150 
Q 1325 2300 1275 2400 
Q 1225 2500 1075 2500 
Q 900 2500 750 2312 
Q 600 2125 600 1825 
L 600 125 
L 100 125 
L 100 2925 
L 600 2925 
L 600 2550 
Q 725 2750 900 2862 
Q 1075 2975 1275 2975 
Q 1475 2975 1612 2862 
Q 1750 2750 1800 2550 
Q 1925 2750 2087 2862 
Q 2250 2975 2450 2975 
Q 2750 2975 2900 2812 
Q 3050 2650 3050 2350 
L 3050 125 
z
" transform="scale(0.015625)"/>
      </defs>
      <use xlink:href="#SimHei-89d2"/>
      <use xlink:href="#SimHei-4f4d" x="100"/>
      <use xlink:href="#SimHei-79fb" x="200"/>
      <use xlink:href="#SimHei-2f" x="300"/>
      <use xlink:href="#SimHei-6d" x="350"/>
     </g>
    </g>
   </g>
   <g id="line2d_15">
    <path d="M 73.832727 178.947744 
L 73.995071 178.829313 
L 74.189883 178.264834 
L 74.482101 176.556528 
L 74.871726 172.806591 
L 75.456162 164.73083 
L 77.079597 140.81749 
L 77.469222 138.186877 
L 77.696503 137.680742 
L 77.826378 137.769483 
L 77.988721 138.288054 
L 78.248471 140.098209 
L 78.605626 144.618297 
L 79.060188 153.75443 
L 79.644625 170.563787 
L 80.52128 203.248303 
L 81.949903 256.074557 
L 82.501871 269.015258 
L 82.891495 273.855112 
L 83.118776 274.802688 
L 83.216182 274.763159 
L 83.346057 274.285424 
L 83.573338 272.265576 
L 83.898025 266.756183 
L 84.320118 255.095533 
L 84.872086 232.881008 
L 85.651335 191.353336 
L 87.631925 81.314836 
L 88.183893 62.929148 
L 88.605986 55.282953 
L 88.865736 53.613177 
L 88.930673 53.568 
L 88.963142 53.601635 
L 89.093017 54.111553 
L 89.287829 56.000725 
L 89.580047 61.330514 
L 89.969672 72.899132 
L 90.489171 95.427543 
L 91.235951 138.553035 
L 93.346417 266.205869 
L 93.898385 285.522212 
L 94.320478 293.551688 
L 94.580227 295.398535 
L 94.677634 295.477046 
L 94.710102 295.429055 
L 94.839977 294.868551 
L 95.067258 292.489142 
L 95.391945 286.120825 
L 95.846507 271.85598 
L 96.463412 244.415424 
L 97.599817 181.418719 
L 98.671284 127.08486 
L 99.288189 105.645658 
L 99.742751 96.218418 
L 100.067438 93.063999 
L 100.26225 92.613968 
L 100.359656 92.788868 
L 100.522 93.660462 
L 100.781749 96.510735 
L 101.138905 103.142036 
L 101.658404 117.531359 
L 102.470122 147.3388 
L 103.898745 199.694654 
L 104.51565 214.303119 
L 104.937743 219.969466 
L 105.229962 221.693933 
L 105.392305 221.878548 
L 105.52218 221.637916 
L 105.716992 220.651238 
L 106.00921 217.846886 
L 106.431303 211.335521 
L 107.080678 197.189818 
L 108.76905 158.572944 
L 109.256081 152.559213 
L 109.580768 150.715071 
L 109.77558 150.503918 
L 109.905455 150.743327 
L 110.100267 151.671963 
L 110.392485 154.32035 
L 110.814578 160.630184 
L 111.399015 173.372357 
L 113.704293 228.569915 
L 114.061448 231.642962 
L 114.288729 232.229342 
L 114.386135 232.137807 
L 114.548479 231.518251 
L 114.808228 229.301131 
L 115.165384 223.810799 
L 115.619946 212.966219 
L 116.236851 192.454448 
L 117.405725 144.213125 
L 118.347317 109.344768 
L 118.931754 95.134679 
L 119.321378 90.156122 
L 119.581128 89.086107 
L 119.678534 89.16801 
L 119.840877 89.898903 
L 120.068158 92.174926 
L 120.392845 97.933632 
L 120.847407 110.705508 
L 121.431844 134.116668 
L 122.373436 182.423326 
L 123.704653 248.961398 
L 124.321558 269.250462 
L 124.743651 276.998902 
L 125.035869 279.097886 
L 125.133276 279.184991 
L 125.165744 279.145574 
L 125.295619 278.645858 
L 125.5229 276.462945 
L 125.847587 270.528749 
L 126.26968 258.195192 
L 126.854117 233.836332 
L 127.795709 183.563174 
L 129.126926 114.263018 
L 129.743831 92.378102 
L 130.198393 82.76527 
L 130.52308 79.669532 
L 130.685423 79.33492 
L 130.78283 79.522895 
L 130.945173 80.479078 
L 131.204923 83.648158 
L 131.562078 91.140699 
L 132.049109 106.564774 
L 132.76342 137.340041 
L 134.77648 228.927555 
L 135.328448 243.26543 
L 135.718072 248.692108 
L 135.977822 250.037965 
L 136.075228 250.073935 
L 136.107697 250.029644 
L 136.237571 249.574038 
L 136.464852 247.728015 
L 136.789539 242.898932 
L 137.244101 232.308009 
L 137.893475 211.356449 
L 139.939003 141.126949 
L 140.458503 131.557067 
L 140.815658 128.252051 
L 141.042939 127.609869 
L 141.140345 127.683823 
L 141.302689 128.267632 
L 141.562438 130.370055 
L 141.919594 135.468888 
L 142.406625 145.986141 
L 143.185873 168.586315 
L 144.582028 209.155756 
L 145.133996 218.922598 
L 145.491151 222.145996 
L 145.718432 222.803151 
L 145.815838 222.744376 
L 145.978182 222.19103 
L 146.205463 220.468594 
L 146.53015 216.154151 
L 146.984712 206.776953 
L 147.634086 188.098274 
L 149.744551 123.286238 
L 150.199113 116.493675 
L 150.5238 114.384826 
L 150.653675 114.225439 
L 150.686144 114.247967 
L 150.816018 114.58932 
L 151.010831 115.857477 
L 151.303049 119.449358 
L 151.692673 127.275182 
L 152.212172 142.536187 
L 152.991421 172.93701 
L 154.647325 239.113614 
L 155.199293 252.451377 
L 155.588917 257.328312 
L 155.816198 258.256909 
L 155.913604 258.209322 
L 156.043479 257.727022 
L 156.27076 255.733975 
L 156.595447 250.400907 
L 157.01754 239.367161 
L 157.601977 217.601936 
L 158.576038 171.163283 
L 159.809849 114.426217 
L 160.426754 95.240809 
L 160.881316 87.206262 
L 161.173534 85.112932 
L 161.27094 84.968218 
L 161.303409 84.981863 
L 161.433284 85.345963 
L 161.628096 86.816962 
L 161.920314 91.066838 
L 162.309939 100.354351 
L 162.861907 119.71392 
L 163.673624 157.405855 
L 165.26459 232.513674 
L 165.849027 250.195105 
L 166.27112 257.425806 
L 166.563339 259.448033 
L 166.660745 259.568797 
L 166.693213 259.547625 
L 166.823088 259.157325 
L 167.0179 257.665846 
L 167.310119 253.456562 
L 167.732212 243.521837 
L 168.316648 223.553054 
L 169.323178 179.67632 
L 170.459583 133.06679 
L 171.076488 116.12174 
L 171.498581 109.49713 
L 171.790799 107.515767 
L 171.920674 107.334391 
L 171.953143 107.356267 
L 172.083018 107.711251 
L 172.27783 109.036849 
L 172.570048 112.752317 
L 172.992141 121.496051 
L 173.576578 139.02986 
L 174.648045 179.726082 
L 175.622106 213.379845 
L 176.206543 226.603026 
L 176.596167 231.351366 
L 176.855917 232.542423 
L 176.953323 232.574687 
L 176.985792 232.535281 
L 177.115666 232.128219 
L 177.342947 230.469557 
L 177.667634 226.098525 
L 178.122196 216.424787 
L 178.77157 197.08658 
L 180.849567 131.114907 
L 181.336598 123.366856 
L 181.661285 121.005657 
L 181.823628 120.718691 
L 181.856097 120.73388 
L 181.985972 121.037257 
L 182.180784 122.21822 
L 182.473002 125.594624 
L 182.862627 132.9335 
L 183.414595 148.130085 
L 184.291249 179.753313 
L 185.557529 224.522917 
L 186.141965 237.793915 
L 186.53159 242.466225 
L 186.791339 243.50163 
L 186.888746 243.446612 
L 187.051089 242.813695 
L 187.27837 240.796912 
L 187.603057 235.688035 
L 188.057619 224.467353 
L 188.674524 203.049943 
L 190.03821 144.963978 
L 190.882396 114.840872 
L 191.434364 102.345697 
L 191.79152 98.17914 
L 192.0188 97.26904 
L 192.116207 97.303738 
L 192.246081 97.748619 
L 192.473362 99.619712 
L 192.798049 104.656042 
L 193.220142 115.108329 
L 193.804579 135.784999 
L 194.746171 178.428772 
L 195.979982 232.140316 
L 196.564419 249.01617 
L 196.986512 255.88364 
L 197.27873 257.726524 
L 197.376136 257.796094 
L 197.408605 257.758544 
L 197.53848 257.305343 
L 197.765761 255.356596 
L 198.090448 250.101539 
L 198.512541 239.266163 
L 199.129446 216.773366 
L 200.265851 164.824842 
L 201.27238 123.232368 
L 201.856817 107.051439 
L 202.27891 100.437934 
L 202.571128 98.600719 
L 202.668534 98.499133 
L 202.701003 98.522169 
L 202.830878 98.898062 
L 203.02569 100.306131 
L 203.317909 104.268629 
L 203.740002 113.652622 
L 204.29197 131.459353 
L 205.201093 169.252644 
L 206.434904 219.091021 
L 207.01934 234.895476 
L 207.441434 241.441388 
L 207.733652 243.321759 
L 207.863527 243.444162 
L 207.993402 243.128493 
L 208.188214 241.844059 
L 208.480432 238.151683 
L 208.902525 229.371699 
L 209.486962 211.69986 
L 210.558429 170.62881 
L 211.564959 135.421051 
L 212.149395 121.9396 
L 212.571488 116.707938 
L 212.831238 115.55657 
L 212.928644 115.541089 
L 212.961113 115.586511 
L 213.123456 116.191821 
L 213.350737 118.086346 
L 213.675424 122.836617 
L 214.129986 133.170519 
L 214.77936 153.822837 
L 216.954763 228.386509 
L 217.409325 235.955731 
L 217.734012 238.406175 
L 217.896355 238.657701 
L 217.993762 238.493384 
L 218.156105 237.695265 
L 218.415855 235.074865 
L 218.77301 228.891898 
L 219.260041 216.179372 
L 219.974352 190.944328 
L 221.825068 122.901277 
L 222.344568 111.888468 
L 222.734192 107.641499 
L 222.961473 106.89039 
L 223.058879 106.967593 
L 223.221222 107.63062 
L 223.448503 109.674142 
L 223.77319 114.791438 
L 224.227752 125.982682 
L 224.844658 147.351476 
L 226.143406 202.820278 
L 226.987592 233.59689 
L 227.53956 246.478887 
L 227.929184 251.030136 
L 228.156465 251.797612 
L 228.253871 251.691978 
L 228.416215 250.93638 
L 228.675964 248.238826 
L 229.03312 241.657361 
L 229.520151 227.868473 
L 230.201993 201.441861 
L 232.312459 114.753537 
L 232.831958 103.255457 
L 233.189114 99.236974 
L 233.416395 98.438956 
L 233.513801 98.522392 
L 233.676144 99.22835 
L 233.935894 101.814451 
L 234.29305 108.187815 
L 234.78008 121.635081 
L 235.461923 147.614667 
L 237.604857 234.608083 
L 238.091888 244.922306 
L 238.449043 248.641719 
L 238.643856 249.223196 
L 238.741262 249.127265 
L 238.903605 248.397631 
L 239.163355 245.775599 
L 239.520511 239.39016 
L 240.007541 226.093902 
L 240.721853 199.556344 
L 242.605037 126.391077 
L 243.157005 114.027996 
L 243.54663 109.52217 
L 243.77391 108.630164 
L 243.871317 108.646147 
L 244.001191 109.038877 
L 244.228472 110.737324 
L 244.553159 115.32695 
L 244.975252 124.802715 
L 245.592158 144.48587 
L 246.825968 193.498543 
L 247.702623 223.511059 
L 248.254591 235.552068 
L 248.644216 239.823796 
L 248.871497 240.566267 
L 248.968903 240.483154 
L 249.131246 239.810999 
L 249.390996 237.369889 
L 249.748152 231.395448 
L 250.235182 218.914379 
L 250.949493 193.956052 
L 252.800209 126.511232 
L 253.319709 115.59077 
L 253.709333 111.355159 
L 253.936614 110.579635 
L 254.03402 110.638192 
L 254.196364 111.258173 
L 254.423645 113.214164 
L 254.748332 118.145346 
L 255.202893 128.941636 
L 255.819799 149.502065 
L 258.28742 238.581934 
L 258.709513 244.825351 
L 259.001731 246.497019 
L 259.099138 246.555055 
L 259.131606 246.518576 
L 259.261481 246.093731 
L 259.488762 244.284108 
L 259.813449 239.411797 
L 260.235542 229.359692 
L 260.852447 208.476773 
L 262.021321 158.988826 
L 262.962913 123.462223 
L 263.54735 108.91179 
L 263.936974 103.594323 
L 264.196724 102.194724 
L 264.29413 102.124576 
L 264.326598 102.156602 
L 264.456473 102.561647 
L 264.683754 104.330255 
L 265.008441 109.138645 
L 265.430534 119.131588 
L 266.014971 138.835381 
L 267.021501 181.996554 
L 268.125437 226.561255 
L 268.709873 242.298737 
L 269.131966 248.604781 
L 269.391716 250.141678 
L 269.489122 250.244691 
L 269.521591 250.221451 
L 269.651466 249.841167 
L 269.846278 248.415559 
L 270.138496 244.403758 
L 270.560589 234.915239 
L 271.145026 215.75669 
L 272.119087 174.844241 
L 273.28796 128.401937 
L 273.872397 112.907543 
L 274.29449 106.514811 
L 274.586708 104.7056 
L 274.684114 104.592251 
L 274.716583 104.609127 
L 274.846458 104.949541 
L 275.04127 106.273393 
L 275.333488 110.046153 
L 275.723113 118.212452 
L 276.275081 135.049437 
L 277.151736 170.004154 
L 278.482952 222.155824 
L 279.067389 236.999049 
L 279.489482 242.834268 
L 279.749232 244.172336 
L 279.846638 244.220563 
L 279.879106 244.181562 
L 280.008981 243.751052 
L 280.236262 241.952401 
L 280.560949 237.156023 
L 281.015511 226.433951 
L 281.632416 205.936883 
L 284.0351 119.539471 
L 284.489662 112.241649 
L 284.78188 110.143636 
L 284.944224 109.891987 
L 285.04163 110.056881 
L 285.203973 110.856685 
L 285.463723 113.482094 
L 285.820879 119.683196 
L 286.307909 132.472385 
L 287.022221 158.026778 
L 288.905405 228.710206 
L 289.424905 239.662726 
L 289.78206 243.482385 
L 290.009341 244.216953 
L 290.106747 244.120647 
L 290.269091 243.412401 
L 290.528841 240.874302 
L 290.885996 234.681121 
L 291.373027 221.731139 
L 292.087338 195.725755 
L 294.002992 122.367163 
L 294.522491 110.961603 
L 294.912115 106.517015 
L 295.139396 105.682326 
L 295.236802 105.729689 
L 295.366677 106.171772 
L 295.593958 107.98033 
L 295.918645 112.789476 
L 296.340738 122.682203 
L 296.925175 142.058813 
L 297.964173 185.595654 
L 299.03564 227.144021 
L 299.620077 241.957334 
L 300.009701 247.344295 
L 300.269451 248.729394 
L 300.366857 248.781672 
L 300.399326 248.742262 
L 300.529201 248.300963 
L 300.756481 246.446263 
L 301.081168 241.481225 
L 301.53573 230.333873 
L 302.152636 208.892354 
L 304.685194 112.981459 
L 305.139756 105.774729 
L 305.431974 103.874878 
L 305.561849 103.741164 
L 305.594318 103.776455 
L 305.724193 104.192123 
L 305.951474 105.968228 
L 306.276161 110.756384 
L 306.698254 120.653573 
L 307.28269 140.064189 
L 308.321689 183.63491 
L 309.360687 224.094912 
L 309.945124 239.282149 
L 310.367217 245.294926 
L 310.626967 246.705624 
L 310.724373 246.773113 
L 310.756842 246.739523 
L 310.886716 246.325481 
L 311.113997 244.535024 
L 311.438684 239.702588 
L 311.893246 228.831461 
L 312.510151 207.947102 
L 314.977773 117.196724 
L 315.432335 109.973001 
L 315.724553 107.980527 
L 315.854428 107.785974 
L 315.886896 107.804216 
L 316.016771 108.144485 
L 316.211583 109.451835 
L 316.503802 113.165459 
L 316.925895 122.011912 
L 317.477863 138.876046 
L 318.386986 174.81451 
L 319.620797 222.19608 
L 320.205234 236.990173 
L 320.627327 242.857507 
L 320.887076 244.231946 
L 320.984482 244.295485 
L 321.016951 244.26169 
L 321.146826 243.852186 
L 321.374107 242.089053 
L 321.698794 237.33339 
L 322.153356 226.628935 
L 322.770261 206.041884 
L 325.237882 116.513224 
L 325.692444 109.473654 
L 325.984662 107.597741 
L 326.114537 107.455337 
L 326.147006 107.486692 
L 326.276881 107.879822 
L 326.504162 109.591734 
L 326.828849 114.239267 
L 327.250942 123.882746 
L 327.835378 142.849328 
L 328.874377 185.52696 
L 329.913375 225.158694 
L 330.497812 239.946007 
L 330.919905 245.695302 
L 331.179655 246.950734 
L 331.277061 246.960789 
L 331.406936 246.582297 
L 331.601748 245.180789 
L 331.893966 241.248836 
L 332.316059 231.953265 
L 332.900496 213.170676 
L 333.874557 173.015432 
L 335.010961 128.507707 
L 335.627867 112.392124 
L 336.04996 106.285231 
L 336.342178 104.670746 
L 336.439584 104.622113 
L 336.472053 104.660563 
L 336.601928 105.087347 
L 336.829209 106.877526 
L 337.153896 111.675774 
L 337.575989 121.573126 
L 338.160425 140.970957 
L 339.199424 184.519647 
L 340.238422 224.982465 
L 340.822859 240.170234 
L 341.244952 246.171913 
L 341.504702 247.567298 
L 341.602108 247.626913 
L 341.634577 247.590412 
L 341.764451 247.163203 
L 341.991732 245.343338 
L 342.316419 240.453043 
L 342.770981 229.465321 
L 343.387886 208.350084 
L 345.887976 115.383277 
L 346.342538 108.233905 
L 346.634757 106.326492 
L 346.764631 106.178322 
L 346.7971 106.20894 
L 346.926975 106.601708 
L 347.154256 108.321705 
L 347.478943 112.995163 
L 347.901036 122.685334 
L 348.485473 141.711352 
L 349.524471 184.383024 
L 350.563469 223.822023 
L 351.147906 238.462721 
L 351.53753 243.846041 
L 351.79728 245.282673 
L 351.894686 245.365785 
L 351.927155 245.338064 
L 352.05703 244.950615 
L 352.284311 243.217574 
L 352.608998 238.486694 
L 353.031091 228.690976 
L 353.647996 208.362749 
L 354.914275 156.592762 
L 355.79093 125.826742 
L 356.342898 113.294874 
L 356.732523 108.634145 
L 356.992272 107.619419 
L 357.089678 107.67984 
L 357.252022 108.315489 
L 357.479303 110.317606 
L 357.80399 115.35674 
L 358.258552 126.36721 
L 358.875457 147.284882 
L 361.31061 236.954846 
L 361.732703 243.700062 
L 362.024921 245.738364 
L 362.154796 245.92673 
L 362.187265 245.904345 
L 362.317139 245.537194 
L 362.511952 244.159441 
L 362.80417 240.278493 
L 363.226263 231.08908 
L 363.8107 212.513785 
L 364.784761 172.831469 
L 365.921165 128.979142 
L 366.505602 113.839149 
L 366.927695 107.616758 
L 367.219913 105.893171 
L 367.317319 105.803766 
L 367.349788 105.82819 
L 367.479663 106.196866 
L 367.674475 107.558327 
L 367.966693 111.380596 
L 368.388787 120.446177 
L 368.940754 137.713156 
L 369.817409 173.190259 
L 371.116157 224.657307 
L 371.700594 239.838824 
L 372.122687 245.873521 
L 372.382437 247.300448 
L 372.479843 247.373473 
L 372.512312 247.341595 
L 372.642186 246.9335 
L 372.869467 245.148709 
L 373.194154 240.309085 
L 373.616247 230.311236 
L 374.233153 209.570936 
L 375.466963 157.964679 
L 376.376087 124.927335 
L 376.928055 111.839918 
L 377.317679 106.825894 
L 377.577429 105.600873 
L 377.674835 105.588527 
L 377.80471 105.95232 
L 377.999522 107.307711 
L 378.29174 111.122119 
L 378.713834 120.174136 
L 379.265801 137.408432 
L 380.174925 174.16671 
L 381.441204 223.923189 
L 382.025641 238.941952 
L 382.447734 244.873354 
L 382.707484 246.248741 
L 382.80489 246.305534 
L 382.837359 246.268663 
L 382.967233 245.842829 
L 383.194514 244.03634 
L 383.519201 239.189053 
L 383.973763 228.306795 
L 384.590669 207.41045 
L 387.05829 116.478199 
L 387.512852 109.224645 
L 387.80507 107.223572 
L 387.934945 107.028653 
L 387.967413 107.047174 
L 388.097288 107.390133 
L 388.2921 108.706571 
L 388.584319 112.446364 
L 388.973943 120.537049 
L 389.525911 137.229257 
L 390.402566 171.938034 
L 391.733783 223.831994 
L 392.318219 238.601803 
L 392.740313 244.377315 
L 393.000062 245.668116 
L 393.097468 245.69553 
L 393.129937 245.649155 
L 393.292281 245.00219 
L 393.519561 242.947533 
L 393.844248 237.772491 
L 394.29881 226.501799 
L 394.948184 203.986076 
L 397.253462 117.931352 
L 397.740493 109.350614 
L 398.06518 106.814683 
L 398.227523 106.548613 
L 398.324929 106.712661 
L 398.487273 107.524259 
L 398.487273 107.524259 
" clip-path="url(#p9ddc5114aa)" style="fill: none; stroke-dasharray: 3.7,1.6; stroke-dashoffset: 0; stroke: #0000ff"/>
   </g>
   <g id="line2d_16">
    <path d="M 73.832727 178.947744 
L 73.962602 178.843186 
L 74.157414 178.302803 
L 74.449633 176.661888 
L 74.871726 172.707249 
L 75.488631 164.416996 
L 76.949723 143.942645 
L 77.371816 141.002376 
L 77.631565 140.396523 
L 77.76144 140.480241 
L 77.923784 140.968453 
L 78.183533 142.671497 
L 78.540689 146.921025 
L 78.995251 155.502316 
L 79.579687 171.271785 
L 80.456342 201.882899 
L 81.852497 250.338427 
L 82.436933 263.253548 
L 82.826558 267.711556 
L 83.053838 268.551079 
L 83.151245 268.492557 
L 83.281119 268.015595 
L 83.5084 266.069945 
L 83.833087 260.82875 
L 84.25518 249.797761 
L 84.807148 228.852789 
L 85.586397 189.815425 
L 87.534519 88.361103 
L 88.118956 70.214411 
L 88.50858 63.659304 
L 88.76833 61.994797 
L 88.865736 61.944907 
L 88.995611 62.36933 
L 89.190423 64.056918 
L 89.482641 68.922303 
L 89.872266 79.584925 
L 90.391765 100.459709 
L 91.138545 140.584599 
L 93.281479 261.700856 
L 93.833447 279.572052 
L 94.223072 286.530004 
L 94.482821 288.395372 
L 94.580227 288.516193 
L 94.612696 288.486492 
L 94.742571 288.019692 
L 94.937383 286.287927 
L 95.229602 281.442816 
L 95.651695 270.032478 
L 96.236131 247.025296 
L 97.177724 199.216331 
L 98.50894 133.275165 
L 99.158314 111.309491 
L 99.645345 101.553005 
L 99.970032 98.53446 
L 100.164844 98.073468 
L 100.26225 98.217313 
L 100.424594 99.000216 
L 100.684343 101.616665 
L 101.041499 107.758552 
L 101.560998 121.156919 
L 102.372716 149.056103 
L 103.833807 199.385192 
L 104.418244 212.452415 
L 104.840337 217.935956 
L 105.132555 219.653015 
L 105.294899 219.87273 
L 105.327368 219.854768 
L 105.457242 219.580294 
L 105.684523 218.342794 
L 106.00921 215.018875 
L 106.463772 207.739938 
L 107.178084 192.153769 
L 108.541769 162.051024 
L 109.061268 155.017439 
L 109.418424 152.519524 
L 109.645705 152.022428 
L 109.77558 152.130442 
L 109.970392 152.828404 
L 110.230142 154.744563 
L 110.619766 159.620819 
L 111.139265 169.356685 
L 111.983451 190.20934 
L 113.152325 218.234428 
L 113.671824 226.04689 
L 114.02898 228.725051 
L 114.223792 229.135279 
L 114.321198 229.048774 
L 114.483541 228.463799 
L 114.743291 226.370046 
L 115.100447 221.183423 
L 115.555009 210.937028 
L 116.171914 191.567131 
L 117.405725 143.645497 
L 118.314848 112.745988 
L 118.866816 100.584561 
L 119.256441 96.128509 
L 119.483721 95.28285 
L 119.581128 95.330752 
L 119.711002 95.782362 
L 119.938283 97.642955 
L 120.26297 102.642144 
L 120.685063 113.080076 
L 121.2695 133.995501 
L 122.146155 175.03273 
L 123.672184 246.570897 
L 124.256621 264.279151 
L 124.678714 271.467751 
L 124.970932 273.369247 
L 125.068338 273.425157 
L 125.100807 273.379162 
L 125.230682 272.872094 
L 125.457963 270.748267 
L 125.78265 265.052149 
L 126.204743 253.281845 
L 126.789179 230.124765 
L 127.76324 180.854368 
L 129.02952 119.074462 
L 129.646425 98.491786 
L 130.100987 89.435464 
L 130.425674 86.49027 
L 130.588017 86.148971 
L 130.620486 86.171313 
L 130.750361 86.561187 
L 130.945173 88.038052 
L 131.237391 92.202392 
L 131.659484 102.062463 
L 132.211452 120.776637 
L 133.088107 159.186201 
L 134.484262 219.479878 
L 135.101167 237.038169 
L 135.555729 244.336429 
L 135.847947 246.270216 
L 135.977822 246.428591 
L 136.01029 246.401257 
L 136.140165 246.026926 
L 136.367446 244.372028 
L 136.692133 239.912503 
L 137.146695 229.995882 
L 137.796069 210.228914 
L 139.874066 143.016906 
L 140.393565 134.250945 
L 140.750721 131.31938 
L 140.978002 130.8247 
L 141.075408 130.939013 
L 141.237751 131.558827 
L 141.497501 133.636856 
L 141.854657 138.540481 
L 142.374156 149.296843 
L 143.185873 171.717039 
L 144.484622 207.178475 
L 145.036589 216.642332 
L 145.426214 220.055366 
L 145.653495 220.659642 
L 145.750901 220.596633 
L 145.913244 220.06045 
L 146.172994 218.091942 
L 146.53015 213.239105 
L 147.01718 203.040834 
L 147.731492 182.581027 
L 149.452333 131.263543 
L 149.971832 122.296146 
L 150.328988 119.180339 
L 150.556269 118.619379 
L 150.653675 118.72819 
L 150.816018 119.379639 
L 151.075768 121.642323 
L 151.432924 127.149683 
L 151.919954 138.792589 
L 152.569328 160.31638 
L 154.939543 244.751631 
L 155.394105 251.87179 
L 155.686324 253.719642 
L 155.78373 253.835925 
L 155.816198 253.818405 
L 155.946073 253.465843 
L 156.140885 252.089419 
L 156.433104 248.141399 
L 156.822728 239.522459 
L 157.374696 221.552016 
L 158.186414 186.596388 
L 159.77738 117.029458 
L 160.361817 100.517814 
L 160.78391 93.659353 
L 161.076128 91.668082 
L 161.206003 91.529253 
L 161.238471 91.566668 
L 161.368346 92.004455 
L 161.595627 93.871911 
L 161.920314 98.908692 
L 162.342407 109.346019 
L 162.926844 129.946931 
L 163.868436 172.44884 
L 165.134716 227.898356 
L 165.751621 245.97492 
L 166.173714 253.055281 
L 166.465932 255.156619 
L 166.595807 255.335725 
L 166.628276 255.307828 
L 166.758151 254.90687 
L 166.985432 253.10498 
L 167.310119 248.19203 
L 167.76468 237.114942 
L 168.381586 215.856757 
L 170.881676 122.510835 
L 171.336238 114.936531 
L 171.660925 112.461257 
L 171.823268 112.165517 
L 171.855737 112.181694 
L 171.985612 112.495895 
L 172.180424 113.706373 
L 172.472642 117.130045 
L 172.894735 125.218131 
L 173.479172 141.480834 
L 174.51817 178.259531 
L 175.557169 212.085942 
L 176.141605 224.453033 
L 176.53123 228.876746 
L 176.790979 229.963037 
L 176.888386 229.978527 
L 176.920854 229.936202 
L 177.083198 229.370467 
L 177.310479 227.602663 
L 177.635166 223.192137 
L 178.089728 213.687653 
L 178.77157 193.97459 
L 180.654755 136.55071 
L 181.174254 127.896228 
L 181.53141 125.02726 
L 181.726222 124.597373 
L 181.823628 124.688196 
L 181.985972 125.29292 
L 182.245721 127.426795 
L 182.602877 132.618203 
L 183.089908 143.500638 
L 183.77175 164.397082 
L 185.752341 228.572237 
L 186.239372 236.931039 
L 186.564059 239.623084 
L 186.758871 240.044882 
L 186.856277 239.912381 
L 187.01862 239.180264 
L 187.27837 236.688396 
L 187.635526 230.695409 
L 188.122556 218.184736 
L 188.804399 194.205481 
L 190.882396 117.008005 
L 191.401895 106.800681 
L 191.759051 103.41309 
L 191.953863 102.895891 
L 192.051269 102.995487 
L 192.213613 103.692847 
L 192.473362 106.177919 
L 192.830518 112.257246 
L 193.317548 125.085834 
L 193.999391 150.027091 
L 196.337138 241.789879 
L 196.7917 250.342632 
L 197.116387 253.216935 
L 197.27873 253.591387 
L 197.311199 253.580312 
L 197.441074 253.249387 
L 197.635886 251.897981 
L 197.928104 247.990344 
L 198.317729 239.481959 
L 198.869696 221.908701 
L 199.746351 185.452456 
L 201.110037 129.492386 
L 201.726942 112.768052 
L 202.149035 106.200908 
L 202.441254 104.217277 
L 202.571128 104.025409 
L 202.603597 104.043878 
L 202.733472 104.382514 
L 202.928284 105.67726 
L 203.220502 109.340875 
L 203.642596 118.032607 
L 204.194563 134.541682 
L 205.103687 169.684947 
L 206.369966 217.517153 
L 206.954403 232.274716 
L 207.376496 238.374262 
L 207.668715 240.101904 
L 207.798589 240.196371 
L 207.928464 239.876529 
L 208.123276 238.62881 
L 208.415495 235.082661 
L 208.837588 226.687985 
L 209.422024 209.833991 
L 210.52596 169.647244 
L 211.500021 137.804043 
L 212.084458 125.378161 
L 212.474082 120.920174 
L 212.733832 119.802376 
L 212.831238 119.773302 
L 212.863707 119.810946 
L 213.02605 120.352749 
L 213.253331 122.088979 
L 213.578018 126.474444 
L 214.03258 136.043875 
L 214.681954 155.211803 
L 216.922294 226.621628 
L 217.376856 233.394577 
L 217.669075 235.343333 
L 217.831418 235.569029 
L 217.961293 235.303313 
L 218.156105 234.162737 
L 218.448323 230.814619 
L 218.837948 223.470547 
L 219.389916 208.246158 
L 220.266571 176.721952 
L 221.53285 132.222016 
L 222.117287 118.663765 
L 222.53938 113.21124 
L 222.799129 111.874216 
L 222.896535 111.782341 
L 222.929004 111.801686 
L 223.058879 112.129047 
L 223.253691 113.367007 
L 223.54591 116.873291 
L 223.935534 124.465999 
L 224.487502 140.198096 
L 225.331688 171.949993 
L 226.79278 227.166633 
L 227.377216 241.291014 
L 227.766841 246.467796 
L 228.02659 247.814141 
L 228.123996 247.870606 
L 228.156465 247.834694 
L 228.28634 247.417302 
L 228.513621 245.63898 
L 228.838308 240.844738 
L 229.260401 230.93527 
L 229.844838 211.532288 
L 230.916305 166.792743 
L 231.955303 126.925866 
L 232.53974 111.888681 
L 232.961833 105.740139 
L 233.254051 104.037816 
L 233.351457 103.947027 
L 233.383926 103.969897 
L 233.513801 104.326487 
L 233.708613 105.650813 
L 234.000831 109.370778 
L 234.422924 118.187012 
L 234.974892 134.974211 
L 235.851547 169.582068 
L 237.215233 222.775699 
L 237.799669 237.773822 
L 238.221763 243.872544 
L 238.513981 245.501684 
L 238.611387 245.559628 
L 238.643856 245.524874 
L 238.77373 245.116249 
L 239.001011 243.373867 
L 239.325698 238.693765 
L 239.78026 228.194049 
L 240.397166 208.083281 
L 242.799849 123.238061 
L 243.254411 115.93439 
L 243.579098 113.588912 
L 243.741442 113.345578 
L 243.838848 113.498029 
L 244.001191 114.24618 
L 244.260941 116.703845 
L 244.618097 122.494527 
L 245.105127 134.389073 
L 245.819439 158.038554 
L 247.702623 223.12892 
L 248.222123 233.207854 
L 248.579278 236.723651 
L 248.806559 237.399696 
L 248.903965 237.310978 
L 249.066309 236.659029 
L 249.326058 234.323769 
L 249.683214 228.630955 
L 250.170245 216.753342 
L 250.884556 193.032688 
L 252.670335 131.147083 
L 253.222303 119.968879 
L 253.611927 115.93169 
L 253.839208 115.170592 
L 253.936614 115.21099 
L 254.066489 115.607287 
L 254.29377 117.234675 
L 254.618457 121.563268 
L 255.073019 131.282726 
L 255.689924 150.07677 
L 256.891266 195.608053 
L 257.800389 225.852796 
L 258.352357 237.736973 
L 258.741982 242.08961 
L 258.969263 242.932139 
L 259.066669 242.900203 
L 259.196544 242.48922 
L 259.423825 240.762846 
L 259.748512 236.131558 
L 260.170605 226.58385 
L 260.78751 206.75408 
L 262.021321 157.314379 
L 262.897976 126.626586 
L 263.449944 113.79166 
L 263.839568 108.749333 
L 264.099318 107.405875 
L 264.196724 107.328564 
L 264.229192 107.354686 
L 264.359067 107.718281 
L 264.586348 109.344711 
L 264.911035 113.795342 
L 265.333128 123.061428 
L 265.917565 141.344642 
L 266.891626 180.148983 
L 268.060499 224.392412 
L 268.644936 239.074486 
L 269.067029 244.95109 
L 269.326778 246.367608 
L 269.424185 246.453209 
L 269.456653 246.42746 
L 269.586528 246.053328 
L 269.78134 244.684174 
L 270.073559 240.857283 
L 270.495652 231.826715 
L 271.080088 213.610556 
L 272.086618 173.465641 
L 273.190554 132.174309 
L 273.774991 117.507585 
L 274.197084 111.45111 
L 274.489302 109.720752 
L 274.619177 109.615523 
L 274.749052 109.919276 
L 274.943864 111.134963 
L 275.236082 114.625356 
L 275.625707 122.198202 
L 276.177674 137.825483 
L 277.021861 169.04804 
L 278.418015 220.268405 
L 279.002452 234.11884 
L 279.424545 239.554171 
L 279.684294 240.782905 
L 279.7817 240.816438 
L 279.814169 240.775661 
L 279.944044 240.353384 
L 280.171325 238.626322 
L 280.496012 234.050166 
L 280.950574 223.842056 
L 281.567479 204.350854 
L 283.905225 124.364345 
L 284.359787 117.116687 
L 284.684474 114.761112 
L 284.846818 114.502098 
L 284.944224 114.642759 
L 285.106567 115.368516 
L 285.366317 117.787073 
L 285.723473 123.528571 
L 286.210503 135.391662 
L 286.924815 159.133688 
L 288.872937 227.101552 
L 289.392436 236.974934 
L 289.749592 240.25911 
L 289.944404 240.756559 
L 290.04181 240.656556 
L 290.204154 239.973057 
L 290.463903 237.551624 
L 290.821059 231.661842 
L 291.308089 219.356448 
L 292.022401 194.666706 
L 293.905585 126.465341 
L 294.425085 115.652713 
L 294.814709 111.422711 
L 295.04199 110.608382 
L 295.139396 110.639323 
L 295.269271 111.035398 
L 295.496552 112.696075 
L 295.821239 117.14475 
L 296.243332 126.317336 
L 296.827769 144.301916 
L 297.834298 183.520964 
L 298.938234 223.920897 
L 299.522671 238.122974 
L 299.944764 243.72165 
L 300.204514 244.997388 
L 300.30192 245.036152 
L 300.334388 244.995507 
L 300.464263 244.565347 
L 300.691544 242.790203 
L 301.016231 238.063052 
L 301.470793 227.466091 
L 302.087698 207.098711 
L 304.55532 118.25432 
L 305.009881 111.085756 
L 305.3021 109.037606 
L 305.464443 108.796483 
L 305.561849 108.960742 
L 305.724193 109.746791 
L 305.983942 112.314531 
L 306.341098 118.360891 
L 306.828129 130.806613 
L 307.54244 155.685714 
L 309.523031 228.383464 
L 310.04253 238.890509 
L 310.399686 242.521756 
L 310.626967 243.195764 
L 310.724373 243.088496 
L 310.886716 242.382503 
L 311.146466 239.902238 
L 311.503622 233.898458 
L 311.990652 221.408926 
L 312.704964 196.47413 
L 314.55568 129.066592 
L 315.107647 117.504863 
L 315.497272 113.340078 
L 315.724553 112.551495 
L 315.821959 112.589397 
L 315.951834 112.990189 
L 316.179115 114.644514 
L 316.503802 119.04537 
L 316.958363 128.908187 
L 317.575269 147.915227 
L 318.874017 197.341357 
L 319.718203 224.73257 
L 320.270171 236.172851 
L 320.627327 239.993313 
L 320.854608 240.830836 
L 320.952014 240.80217 
L 321.081889 240.401474 
L 321.309169 238.711706 
L 321.633856 234.180785 
L 322.088418 224.000806 
L 322.705324 204.440713 
L 325.140476 120.874217 
L 325.595038 114.18669 
L 325.887256 112.382955 
L 326.017131 112.230435 
L 326.0496 112.255073 
L 326.179475 112.604339 
L 326.406756 114.173252 
L 326.731443 118.46993 
L 327.153536 127.410583 
L 327.737972 145.017541 
L 328.744502 183.475976 
L 329.848438 223.006893 
L 330.432875 236.804459 
L 330.854968 242.161095 
L 331.114717 243.314888 
L 331.212123 243.31388 
L 331.341998 242.943027 
L 331.569279 241.284722 
L 331.893966 236.748719 
L 332.316059 227.327753 
L 332.900496 208.872458 
L 334.004432 165.222598 
L 334.978493 130.342187 
L 335.562929 116.425367 
L 335.985023 110.942347 
L 336.244772 109.661829 
L 336.342178 109.603007 
L 336.374647 109.634617 
L 336.504522 110.016618 
L 336.731803 111.660567 
L 337.05649 116.099953 
L 337.478583 125.278782 
L 338.063019 143.287758 
L 339.102018 183.844745 
L 340.173485 222.882093 
L 340.757922 237.049145 
L 341.180015 242.63759 
L 341.439764 243.919377 
L 341.53717 243.963579 
L 341.569639 243.925174 
L 341.699514 243.506254 
L 341.926795 241.760324 
L 342.251482 237.098655 
L 342.706044 226.646411 
L 343.322949 206.582358 
L 345.758102 120.473132 
L 346.212663 113.357347 
L 346.53735 111.19881 
L 346.667225 111.042076 
L 346.699694 111.066305 
L 346.829569 111.416298 
L 347.05685 112.994419 
L 347.381537 117.317291 
L 347.80363 126.303776 
L 348.388066 143.96975 
L 349.427065 183.72172 
L 350.498532 221.7854 
L 351.082969 235.444622 
L 351.472593 240.457691 
L 351.732343 241.778908 
L 351.829749 241.845442 
L 351.862217 241.815374 
L 351.992092 241.434177 
L 352.219373 239.770556 
L 352.54406 235.259989 
L 352.966153 225.940451 
L 353.583059 206.621802 
L 355.011682 151.58944 
L 355.79093 127.162184 
L 356.31043 116.831886 
L 356.667585 113.162431 
L 356.894866 112.383339 
L 356.992272 112.425621 
L 357.122147 112.832824 
L 357.349428 114.500701 
L 357.674115 118.928427 
L 358.128677 128.849784 
L 358.745582 147.987054 
L 359.979393 195.435977 
L 360.856048 224.833391 
L 361.408016 236.912904 
L 361.79764 241.399059 
L 362.024921 242.322803 
L 362.122327 242.327137 
L 362.252202 241.966289 
L 362.447014 240.644116 
L 362.739232 236.944785 
L 363.161326 228.205488 
L 363.745762 210.556929 
L 364.752292 171.641538 
L 365.856228 131.751873 
L 366.440664 117.768623 
L 366.862758 112.16924 
L 367.122507 110.794439 
L 367.219913 110.696593 
L 367.252382 110.714801 
L 367.382257 111.041382 
L 367.577069 112.287418 
L 367.869287 115.818396 
L 368.29138 124.221223 
L 368.843348 140.247875 
L 369.720003 173.254494 
L 371.05122 222.561142 
L 371.635657 236.724104 
L 372.05775 242.344675 
L 372.317499 243.656919 
L 372.414905 243.714077 
L 372.447374 243.680141 
L 372.577249 243.27972 
L 372.80453 241.567832 
L 373.129217 236.955641 
L 373.55131 227.446798 
L 374.168215 207.741404 
L 375.466963 156.379597 
L 376.31115 127.975765 
L 376.863118 115.938697 
L 377.252742 111.465895 
L 377.512492 110.483153 
L 377.609898 110.53432 
L 377.772241 111.127512 
L 377.999522 113.011744 
L 378.324209 117.7624 
L 378.778771 128.141066 
L 379.395676 147.854915 
L 381.895766 234.68343 
L 382.317859 240.843992 
L 382.610078 242.615171 
L 382.739953 242.722984 
L 382.869827 242.410141 
L 383.06464 241.15693 
L 383.356858 237.554447 
L 383.746482 229.737075 
L 384.29845 213.651909 
L 385.207574 179.245168 
L 386.441385 133.921657 
L 387.025821 119.57842 
L 387.447914 113.640205 
L 387.740133 111.943996 
L 387.870007 111.843185 
L 387.999882 112.14548 
L 388.194694 113.34912 
L 388.486913 116.802755 
L 388.876537 124.300635 
L 389.428505 139.793238 
L 390.272691 170.803515 
L 391.668845 221.780068 
L 392.253282 235.561373 
L 392.675375 240.940322 
L 392.935125 242.125109 
L 393.032531 242.139459 
L 393.162406 241.792413 
L 393.357218 240.492026 
L 393.649436 236.828188 
L 394.071529 228.147069 
L 394.655966 210.593952 
L 395.662496 171.87909 
L 396.766432 132.226815 
L 397.350868 118.353513 
L 397.772961 112.818036 
L 398.032711 111.474023 
L 398.130117 111.385813 
L 398.162586 111.406988 
L 398.292461 111.744173 
L 398.487273 113.002156 
L 398.487273 113.002156 
" clip-path="url(#p9ddc5114aa)" style="fill: none; stroke-dasharray: 3.7,1.6; stroke-dashoffset: 0; stroke: #ff0000"/>
   </g>
   <g id="patch_3">
    <path d="M 57.6 307.584 
L 57.6 41.472 
" style="fill: none; stroke: #000000; stroke-width: 0.8; stroke-linejoin: miter; stroke-linecap: square"/>
   </g>
   <g id="patch_4">
    <path d="M 414.72 307.584 
L 414.72 41.472 
" style="fill: none; stroke: #000000; stroke-width: 0.8; stroke-linejoin: miter; stroke-linecap: square"/>
   </g>
   <g id="patch_5">
    <path d="M 57.6 307.584 
L 414.72 307.584 
" style="fill: none; stroke: #000000; stroke-width: 0.8; stroke-linejoin: miter; stroke-linecap: square"/>
   </g>
   <g id="patch_6">
    <path d="M 57.6 41.472 
L 414.72 41.472 
" style="fill: none; stroke: #000000; stroke-width: 0.8; stroke-linejoin: miter; stroke-linecap: square"/>
   </g>
   <g id="legend_1">
    <g id="patch_7">
     <path d="M 379.32 72.147 
L 410.52 72.147 
Q 411.72 72.147 411.72 70.947 
L 411.72 45.672 
Q 411.72 44.472 410.52 44.472 
L 379.32 44.472 
Q 378.12 44.472 378.12 45.672 
L 378.12 70.947 
Q 378.12 72.147 379.32 72.147 
z
" style="fill: #ffffff; opacity: 0.8; stroke: #cccccc; stroke-linejoin: miter"/>
    </g>
    <g id="line2d_17">
     <path d="M 380.52 49.4595 
L 386.52 49.4595 
L 392.52 49.4595 
" style="fill: none; stroke-dasharray: 3.7,1.6; stroke-dashoffset: 0; stroke: #0000ff"/>
    </g>
    <g id="text_17">
     <!-- 振子 -->
     <g transform="translate(397.32 51.5595)scale(0.06 -0.06)">
      <defs>
       <path id="SimHei-632f" d="M 3275 -200 
Q 3400 -100 3437 37 
Q 3475 175 3475 500 
L 3475 2300 
L 3025 2300 
Q 3000 1800 2950 1375 
Q 2900 950 2800 600 
Q 2700 250 2575 -37 
Q 2450 -325 2325 -625 
Q 2175 -475 1825 -350 
Q 2150 -25 2300 412 
Q 2450 850 2500 1350 
Q 2550 1850 2562 2437 
Q 2575 3025 2575 3625 
Q 2575 4250 2525 4825 
L 5150 4825 
Q 5475 4825 5825 4850 
L 5825 4375 
Q 5400 4400 5225 4400 
L 3025 4400 
L 3025 2700 
L 5375 2700 
Q 5600 2700 5975 2725 
L 5975 2275 
Q 5850 2300 5475 2300 
L 4675 2300 
Q 4775 1600 4925 1275 
Q 5125 1450 5262 1587 
Q 5400 1725 5550 1975 
Q 5650 1775 5900 1575 
Q 5750 1500 5575 1337 
Q 5400 1175 5125 875 
Q 5225 650 5500 362 
Q 5775 75 6175 -75 
Q 5875 -250 5775 -525 
Q 5300 -175 5075 100 
Q 4850 375 4687 687 
Q 4525 1000 4412 1387 
Q 4300 1775 4250 2300 
L 3950 2300 
L 3950 150 
Q 4250 300 4575 475 
Q 4625 325 4750 50 
Q 4575 -25 4237 -212 
Q 3900 -400 3600 -650 
Q 3500 -450 3275 -200 
z
M 250 2000 
Q 550 2075 725 2125 
L 1150 2275 
L 1150 3350 
Q 675 3350 325 3325 
L 325 3800 
Q 650 3775 1150 3775 
L 1150 4500 
Q 1150 4850 1125 5150 
L 1675 5150 
Q 1650 4875 1650 4500 
L 1650 3775 
Q 1875 3775 2300 3800 
L 2300 3325 
Q 1900 3350 1650 3350 
L 1650 2425 
Q 2000 2550 2250 2675 
Q 2250 2475 2275 2250 
Q 2100 2200 1650 2000 
L 1650 100 
Q 1600 -250 1450 -362 
Q 1300 -475 725 -525 
Q 700 -325 600 25 
Q 850 0 1000 0 
Q 1150 0 1150 300 
L 1150 1800 
Q 975 1725 850 1662 
Q 725 1600 475 1450 
Q 425 1675 250 2000 
z
M 4950 3775 
Q 5275 3775 5600 3800 
L 5600 3325 
Q 5275 3350 5000 3350 
L 4000 3350 
Q 3725 3350 3375 3325 
L 3375 3800 
Q 3700 3775 4000 3775 
L 4950 3775 
z
" transform="scale(0.015625)"/>
       <path id="SimHei-5b50" d="M 2075 25 
Q 2650 0 2800 62 
Q 2950 125 2950 375 
L 2950 2200 
L 1175 2200 
Q 825 2200 350 2175 
L 350 2625 
Q 825 2600 1175 2600 
L 2950 2600 
Q 2950 3000 2925 3500 
Q 3275 3650 3637 3875 
Q 4000 4100 4475 4400 
L 1925 4400 
Q 1400 4400 1000 4375 
L 1000 4825 
Q 1525 4800 1875 4800 
L 5400 4800 
L 5400 4350 
Q 5025 4200 4575 3950 
Q 4125 3700 3450 3250 
L 3450 2600 
L 5125 2600 
Q 5550 2600 6075 2650 
L 6075 2200 
Q 5550 2225 5125 2200 
L 3450 2200 
L 3450 200 
Q 3450 -300 3162 -400 
Q 2875 -500 2300 -550 
Q 2250 -275 2075 25 
z
" transform="scale(0.015625)"/>
      </defs>
      <use xlink:href="#SimHei-632f"/>
      <use xlink:href="#SimHei-5b50" x="100"/>
     </g>
    </g>
    <g id="line2d_18">
     <path d="M 380.52 66.897 
L 386.52 66.897 
L 392.52 66.897 
" style="fill: none; stroke-dasharray: 3.7,1.6; stroke-dashoffset: 0; stroke: #ff0000"/>
    </g>
    <g id="text_18">
     <!-- 浮子 -->
     <g transform="translate(397.32 68.997)scale(0.06 -0.06)">
      <defs>
       <path id="SimHei-6d6e" d="M 3800 1950 
Q 4225 2150 4600 2375 
L 3400 2375 
Q 3025 2375 2425 2350 
L 2425 2825 
Q 3000 2800 3350 2800 
L 5575 2800 
L 5575 2325 
Q 5200 2175 4887 2025 
Q 4575 1875 4325 1725 
L 4325 1450 
L 5250 1450 
Q 5575 1450 6075 1475 
L 6075 1000 
Q 5600 1025 5275 1025 
L 4325 1025 
L 4325 25 
Q 4325 -275 4125 -412 
Q 3925 -550 3400 -650 
Q 3325 -325 3125 -25 
Q 3575 -50 3700 -25 
Q 3825 0 3825 350 
L 3825 1025 
L 2875 1025 
Q 2475 1025 1925 1000 
L 1925 1475 
Q 2500 1450 2875 1450 
L 3825 1450 
Q 3825 1725 3800 1950 
z
M 2200 4800 
Q 2750 4775 3912 4862 
Q 5075 4950 5475 5075 
Q 5575 4800 5775 4550 
Q 5400 4550 4350 4462 
Q 3300 4375 2425 4325 
Q 2375 4575 2200 4800 
z
M 1700 1600 
Q 975 -125 800 -500 
Q 625 -300 225 -150 
Q 475 125 750 737 
Q 1025 1350 1175 1925 
Q 1450 1675 1700 1600 
z
M 4600 3125 
Q 4750 3350 4950 3750 
Q 5150 4150 5225 4450 
Q 5475 4325 5775 4200 
Q 5675 4100 5450 3650 
Q 5225 3200 5075 2950 
Q 4875 3075 4600 3125 
z
M 725 3550 
Q 1275 3200 1800 2850 
Q 1575 2650 1450 2400 
Q 1075 2725 425 3125 
Q 575 3325 725 3550 
z
M 1050 5150 
Q 1575 4775 2075 4400 
Q 1875 4225 1700 4000 
Q 1275 4425 725 4750 
Q 900 4900 1050 5150 
z
M 3900 4325 
Q 4200 3750 4375 3375 
Q 4100 3300 3900 3150 
Q 3750 3575 3475 4125 
Q 3725 4225 3900 4325 
z
M 2800 4100 
Q 3075 3525 3250 3125 
Q 3025 3050 2775 2925 
Q 2625 3375 2350 3900 
Q 2600 3975 2800 4100 
z
" transform="scale(0.015625)"/>
      </defs>
      <use xlink:href="#SimHei-6d6e"/>
      <use xlink:href="#SimHei-5b50" x="100"/>
     </g>
    </g>
   </g>
  </g>
 </g>
 <defs>
  <clipPath id="p9ddc5114aa">
   <rect x="57.6" y="41.472" width="357.12" height="266.112"/>
  </clipPath>
 </defs>
</svg>
