<?xml version="1.0" encoding="utf-8" standalone="no"?>
<!DOCTYPE svg PUBLIC "-//W3C//DTD SVG 1.1//EN"
  "http://www.w3.org/Graphics/SVG/1.1/DTD/svg11.dtd">
<svg xmlns:xlink="http://www.w3.org/1999/xlink" width="460.8pt" height="345.6pt" viewBox="0 0 460.8 345.6" xmlns="http://www.w3.org/2000/svg" version="1.1">
 <metadata>
  <rdf:RDF xmlns:dc="http://purl.org/dc/elements/1.1/" xmlns:cc="http://creativecommons.org/ns#" xmlns:rdf="http://www.w3.org/1999/02/22-rdf-syntax-ns#">
   <cc:Work>
    <dc:type rdf:resource="http://purl.org/dc/dcmitype/StillImage"/>
    <dc:date>2023-03-25T18:07:15.671040</dc:date>
    <dc:format>image/svg+xml</dc:format>
    <dc:creator>
     <cc:Agent>
      <dc:title>Matplotlib v3.5.2, https://matplotlib.org/</dc:title>
     </cc:Agent>
    </dc:creator>
   </cc:Work>
  </rdf:RDF>
 </metadata>
 <defs>
  <style type="text/css">*{stroke-linejoin: round; stroke-linecap: butt}</style>
 </defs>
 <g id="figure_1">
  <g id="patch_1">
   <path d="M 0 345.6 
L 460.8 345.6 
L 460.8 0 
L 0 0 
z
" style="fill: #ffffff"/>
  </g>
  <g id="axes_1">
   <g id="patch_2">
    <path d="M 57.6 307.584 
L 414.72 307.584 
L 414.72 41.472 
L 57.6 41.472 
z
" style="fill: #ffffff"/>
   </g>
   <g id="matplotlib.axis_1">
    <g id="xtick_1">
     <g id="line2d_1">
      <defs>
       <path id="mcea1f14927" d="M 0 0 
L 0 3.5 
" style="stroke: #000000; stroke-width: 0.8"/>
      </defs>
      <g>
       <use xlink:href="#mcea1f14927" x="73.832727" y="307.584" style="stroke: #000000; stroke-width: 0.8"/>
      </g>
     </g>
     <g id="text_1">
      <!-- 0 -->
      <g transform="translate(71.332727 321.459)scale(0.1 -0.1)">
       <defs>
        <path id="SimHei-30" d="M 225 2537 
Q 250 3200 412 3587 
Q 575 3975 875 4225 
Q 1175 4475 1612 4475 
Q 2050 4475 2375 4112 
Q 2700 3750 2800 3200 
Q 2900 2650 2862 1937 
Q 2825 1225 2612 775 
Q 2400 325 1975 150 
Q 1550 -25 1125 187 
Q 700 400 525 750 
Q 350 1100 275 1487 
Q 200 1875 225 2537 
z
M 750 2687 
Q 675 2000 800 1462 
Q 925 925 1212 700 
Q 1500 475 1800 612 
Q 2100 750 2237 1162 
Q 2375 1575 2375 2062 
Q 2375 2550 2337 2950 
Q 2300 3350 2112 3675 
Q 1925 4000 1612 4012 
Q 1300 4025 1062 3700 
Q 825 3375 750 2687 
z
" transform="scale(0.015625)"/>
       </defs>
       <use xlink:href="#SimHei-30"/>
      </g>
     </g>
    </g>
    <g id="xtick_2">
     <g id="line2d_2">
      <g>
       <use xlink:href="#mcea1f14927" x="138.77013" y="307.584" style="stroke: #000000; stroke-width: 0.8"/>
      </g>
     </g>
     <g id="text_2">
      <!-- 20 -->
      <g transform="translate(133.77013 321.459)scale(0.1 -0.1)">
       <defs>
        <path id="SimHei-32" d="M 300 250 
Q 325 625 650 925 
Q 975 1225 1475 1862 
Q 1975 2500 2125 2850 
Q 2275 3200 2237 3450 
Q 2200 3700 2000 3862 
Q 1800 4025 1537 4000 
Q 1275 3975 1037 3800 
Q 800 3625 675 3275 
L 200 3350 
Q 400 3925 712 4187 
Q 1025 4450 1450 4475 
Q 1700 4500 1900 4462 
Q 2100 4425 2312 4287 
Q 2525 4150 2662 3875 
Q 2800 3600 2762 3212 
Q 2725 2825 2375 2287 
Q 2025 1750 1025 600 
L 2825 600 
L 2825 150 
L 300 150 
L 300 250 
z
" transform="scale(0.015625)"/>
       </defs>
       <use xlink:href="#SimHei-32"/>
       <use xlink:href="#SimHei-30" x="50"/>
      </g>
     </g>
    </g>
    <g id="xtick_3">
     <g id="line2d_3">
      <g>
       <use xlink:href="#mcea1f14927" x="203.707533" y="307.584" style="stroke: #000000; stroke-width: 0.8"/>
      </g>
     </g>
     <g id="text_3">
      <!-- 40 -->
      <g transform="translate(198.707533 321.459)scale(0.1 -0.1)">
       <defs>
        <path id="SimHei-34" d="M 2000 1100 
L 75 1100 
L 75 1525 
L 2100 4450 
L 2475 4450 
L 2475 1525 
L 3075 1525 
L 3075 1100 
L 2475 1100 
L 2475 150 
L 2000 150 
L 2000 1100 
z
M 2000 1525 
L 2000 3500 
L 600 1525 
L 2000 1525 
z
" transform="scale(0.015625)"/>
       </defs>
       <use xlink:href="#SimHei-34"/>
       <use xlink:href="#SimHei-30" x="50"/>
      </g>
     </g>
    </g>
    <g id="xtick_4">
     <g id="line2d_4">
      <g>
       <use xlink:href="#mcea1f14927" x="268.644936" y="307.584" style="stroke: #000000; stroke-width: 0.8"/>
      </g>
     </g>
     <g id="text_4">
      <!-- 60 -->
      <g transform="translate(263.644936 321.459)scale(0.1 -0.1)">
       <defs>
        <path id="SimHei-36" d="M 250 1612 
Q 275 1975 387 2225 
Q 500 2475 725 2850 
L 1750 4450 
L 2325 4450 
L 1275 2800 
Q 1950 2975 2350 2750 
Q 2750 2525 2887 2237 
Q 3025 1950 3037 1612 
Q 3050 1275 2937 950 
Q 2825 625 2537 362 
Q 2250 100 1737 75 
Q 1225 50 862 262 
Q 500 475 362 862 
Q 225 1250 250 1612 
z
M 1025 787 
Q 1250 550 1625 525 
Q 2000 500 2250 775 
Q 2500 1050 2500 1575 
Q 2500 2100 2187 2300 
Q 1875 2500 1487 2450 
Q 1100 2400 925 2075 
Q 750 1750 775 1387 
Q 800 1025 1025 787 
z
" transform="scale(0.015625)"/>
       </defs>
       <use xlink:href="#SimHei-36"/>
       <use xlink:href="#SimHei-30" x="50"/>
      </g>
     </g>
    </g>
    <g id="xtick_5">
     <g id="line2d_5">
      <g>
       <use xlink:href="#mcea1f14927" x="333.582339" y="307.584" style="stroke: #000000; stroke-width: 0.8"/>
      </g>
     </g>
     <g id="text_5">
      <!-- 80 -->
      <g transform="translate(328.582339 321.459)scale(0.1 -0.1)">
       <defs>
        <path id="SimHei-38" d="M 175 1375 
Q 175 1675 325 1962 
Q 475 2250 825 2425 
Q 525 2600 425 2812 
Q 325 3025 312 3300 
Q 300 3575 387 3775 
Q 475 3975 650 4150 
Q 825 4325 1037 4387 
Q 1250 4450 1500 4450 
Q 1750 4450 1950 4400 
Q 2150 4350 2375 4187 
Q 2600 4025 2700 3725 
Q 2800 3425 2687 3025 
Q 2575 2625 2100 2400 
Q 2525 2275 2700 2012 
Q 2875 1750 2875 1375 
Q 2875 1000 2762 775 
Q 2650 550 2512 400 
Q 2375 250 2137 162 
Q 1900 75 1537 75 
Q 1175 75 912 162 
Q 650 250 475 425 
Q 300 600 237 837 
Q 175 1075 175 1375 
z
M 687 1400 
Q 675 1100 787 875 
Q 900 650 1200 587 
Q 1500 525 1825 600 
Q 2150 675 2275 950 
Q 2400 1225 2362 1500 
Q 2325 1775 2050 1962 
Q 1775 2150 1450 2125 
Q 1125 2100 912 1900 
Q 700 1700 687 1400 
z
M 775 3350 
Q 775 3100 950 2875 
Q 1125 2650 1500 2650 
Q 1875 2650 2062 2875 
Q 2250 3100 2237 3412 
Q 2225 3725 2012 3875 
Q 1800 4025 1437 4000 
Q 1075 3975 925 3787 
Q 775 3600 775 3350 
z
" transform="scale(0.015625)"/>
       </defs>
       <use xlink:href="#SimHei-38"/>
       <use xlink:href="#SimHei-30" x="50"/>
      </g>
     </g>
    </g>
    <g id="xtick_6">
     <g id="line2d_6">
      <g>
       <use xlink:href="#mcea1f14927" x="398.519741" y="307.584" style="stroke: #000000; stroke-width: 0.8"/>
      </g>
     </g>
     <g id="text_6">
      <!-- 100 -->
      <g transform="translate(391.019741 321.459)scale(0.1 -0.1)">
       <defs>
        <path id="SimHei-31" d="M 1400 3600 
Q 1075 3275 575 2975 
L 575 3450 
Q 1200 3875 1600 4450 
L 1900 4450 
L 1900 150 
L 1400 150 
L 1400 3600 
z
" transform="scale(0.015625)"/>
       </defs>
       <use xlink:href="#SimHei-31"/>
       <use xlink:href="#SimHei-30" x="50"/>
       <use xlink:href="#SimHei-30" x="100"/>
      </g>
     </g>
    </g>
    <g id="text_7">
     <!-- 时间/s -->
     <g transform="translate(221.16 334.716812)scale(0.1 -0.1)">
      <defs>
       <path id="SimHei-65f6" d="M 2525 4575 
Q 2500 3675 2500 2400 
Q 2500 1125 2525 400 
L 2000 400 
L 2000 875 
L 1000 875 
L 1000 50 
L 475 50 
Q 500 1200 500 2350 
Q 500 3525 475 4575 
L 2525 4575 
z
M 4875 3825 
Q 4875 4575 4850 5225 
L 5400 5225 
Q 5375 4575 5375 3825 
Q 5750 3825 6175 3850 
L 6175 3375 
Q 5750 3400 5375 3400 
L 5375 50 
Q 5375 -325 5075 -425 
Q 4775 -525 4300 -575 
Q 4300 -275 4025 0 
Q 4500 -50 4687 -25 
Q 4875 0 4875 300 
L 4875 3400 
Q 3625 3400 2775 3375 
L 2775 3850 
Q 3575 3825 4875 3825 
z
M 2000 1300 
L 2000 2550 
L 1000 2550 
L 1000 1300 
L 2000 1300 
z
M 2000 2975 
L 2000 4150 
L 1000 4150 
L 1000 2975 
L 2000 2975 
z
M 3550 2725 
Q 3875 2200 4175 1600 
Q 3925 1525 3650 1375 
Q 3450 1975 3075 2500 
Q 3300 2600 3550 2725 
z
" transform="scale(0.015625)"/>
       <path id="SimHei-95f4" d="M 4450 3550 
Q 4425 3075 4425 2725 
L 4425 1400 
Q 4425 1075 4450 625 
L 1925 625 
Q 1950 1075 1950 1425 
L 1950 2725 
Q 1950 3075 1925 3550 
L 4450 3550 
z
M 5800 4875 
Q 5775 4400 5775 3925 
L 5775 250 
Q 5800 -325 5462 -450 
Q 5125 -575 4725 -625 
Q 4700 -325 4525 -25 
Q 5000 -50 5137 25 
Q 5275 100 5275 350 
L 5275 4450 
L 3775 4450 
Q 3175 4450 2650 4425 
L 2650 4900 
Q 3175 4875 3775 4875 
L 5800 4875 
z
M 550 -525 
Q 600 -25 600 525 
L 600 3150 
Q 600 3675 550 4025 
L 1125 4025 
Q 1100 3650 1100 3300 
L 1100 500 
Q 1100 0 1125 -525 
L 550 -525 
z
M 3950 1025 
L 3950 1950 
L 2425 1950 
L 2425 1025 
L 3950 1025 
z
M 3950 2350 
L 3950 3150 
L 2425 3150 
L 2425 2350 
L 3950 2350 
z
M 1525 5300 
Q 1750 5000 2225 4350 
Q 1950 4225 1700 4075 
Q 1450 4575 1075 5025 
Q 1350 5225 1525 5300 
z
" transform="scale(0.015625)"/>
       <path id="SimHei-2f" d="M 3000 4550 
L 350 -175 
L 100 -25 
L 2750 4700 
L 3000 4550 
z
" transform="scale(0.015625)"/>
       <path id="SimHei-73" d="M 2750 900 
Q 2750 500 2437 287 
Q 2125 75 1650 75 
Q 1050 75 725 312 
Q 400 550 400 1000 
L 900 1000 
Q 900 700 1112 600 
Q 1325 500 1625 500 
Q 1925 500 2075 612 
Q 2225 725 2225 900 
Q 2225 1025 2100 1150 
Q 1975 1275 1475 1350 
Q 900 1425 687 1637 
Q 475 1850 475 2200 
Q 475 2500 762 2737 
Q 1050 2975 1600 2975 
Q 2100 2975 2387 2750 
Q 2675 2525 2675 2150 
L 2175 2150 
Q 2175 2375 2012 2462 
Q 1850 2550 1600 2550 
Q 1275 2550 1137 2437 
Q 1000 2325 1000 2175 
Q 1000 2000 1125 1900 
Q 1250 1800 1650 1750 
Q 2300 1650 2525 1437 
Q 2750 1225 2750 900 
z
" transform="scale(0.015625)"/>
      </defs>
      <use xlink:href="#SimHei-65f6"/>
      <use xlink:href="#SimHei-95f4" x="100"/>
      <use xlink:href="#SimHei-2f" x="200"/>
      <use xlink:href="#SimHei-73" x="250"/>
     </g>
    </g>
   </g>
   <g id="matplotlib.axis_2">
    <g id="ytick_1">
     <g id="line2d_7">
      <defs>
       <path id="mcf28351356" d="M 0 0 
L -3.5 0 
" style="stroke: #000000; stroke-width: 0.8"/>
      </defs>
      <g>
       <use xlink:href="#mcf28351356" x="57.6" y="303.79655" style="stroke: #000000; stroke-width: 0.8"/>
      </g>
     </g>
     <g id="text_8">
      <!-- -0.008 -->
      <g transform="translate(20.6 307.23405)scale(0.1 -0.1)">
       <defs>
        <path id="SimHei-2d" d="M 2975 2125 
L 125 2125 
L 125 2525 
L 2975 2525 
L 2975 2125 
z
" transform="scale(0.015625)"/>
        <path id="SimHei-2e" d="M 1075 125 
L 500 125 
L 500 675 
L 1075 675 
L 1075 125 
z
" transform="scale(0.015625)"/>
       </defs>
       <use xlink:href="#SimHei-2d"/>
       <use xlink:href="#SimHei-30" x="50"/>
       <use xlink:href="#SimHei-2e" x="100"/>
       <use xlink:href="#SimHei-30" x="150"/>
       <use xlink:href="#SimHei-30" x="200"/>
       <use xlink:href="#SimHei-38" x="250"/>
      </g>
     </g>
    </g>
    <g id="ytick_2">
     <g id="line2d_8">
      <g>
       <use xlink:href="#mcf28351356" x="57.6" y="269.242798" style="stroke: #000000; stroke-width: 0.8"/>
      </g>
     </g>
     <g id="text_9">
      <!-- -0.006 -->
      <g transform="translate(20.6 272.680298)scale(0.1 -0.1)">
       <use xlink:href="#SimHei-2d"/>
       <use xlink:href="#SimHei-30" x="50"/>
       <use xlink:href="#SimHei-2e" x="100"/>
       <use xlink:href="#SimHei-30" x="150"/>
       <use xlink:href="#SimHei-30" x="200"/>
       <use xlink:href="#SimHei-36" x="250"/>
      </g>
     </g>
    </g>
    <g id="ytick_3">
     <g id="line2d_9">
      <g>
       <use xlink:href="#mcf28351356" x="57.6" y="234.689046" style="stroke: #000000; stroke-width: 0.8"/>
      </g>
     </g>
     <g id="text_10">
      <!-- -0.004 -->
      <g transform="translate(20.6 238.126546)scale(0.1 -0.1)">
       <use xlink:href="#SimHei-2d"/>
       <use xlink:href="#SimHei-30" x="50"/>
       <use xlink:href="#SimHei-2e" x="100"/>
       <use xlink:href="#SimHei-30" x="150"/>
       <use xlink:href="#SimHei-30" x="200"/>
       <use xlink:href="#SimHei-34" x="250"/>
      </g>
     </g>
    </g>
    <g id="ytick_4">
     <g id="line2d_10">
      <g>
       <use xlink:href="#mcf28351356" x="57.6" y="200.135294" style="stroke: #000000; stroke-width: 0.8"/>
      </g>
     </g>
     <g id="text_11">
      <!-- -0.002 -->
      <g transform="translate(20.6 203.572794)scale(0.1 -0.1)">
       <use xlink:href="#SimHei-2d"/>
       <use xlink:href="#SimHei-30" x="50"/>
       <use xlink:href="#SimHei-2e" x="100"/>
       <use xlink:href="#SimHei-30" x="150"/>
       <use xlink:href="#SimHei-30" x="200"/>
       <use xlink:href="#SimHei-32" x="250"/>
      </g>
     </g>
    </g>
    <g id="ytick_5">
     <g id="line2d_11">
      <g>
       <use xlink:href="#mcf28351356" x="57.6" y="165.581542" style="stroke: #000000; stroke-width: 0.8"/>
      </g>
     </g>
     <g id="text_12">
      <!-- 0.000 -->
      <g transform="translate(25.6 169.019042)scale(0.1 -0.1)">
       <use xlink:href="#SimHei-30"/>
       <use xlink:href="#SimHei-2e" x="50"/>
       <use xlink:href="#SimHei-30" x="100"/>
       <use xlink:href="#SimHei-30" x="150"/>
       <use xlink:href="#SimHei-30" x="200"/>
      </g>
     </g>
    </g>
    <g id="ytick_6">
     <g id="line2d_12">
      <g>
       <use xlink:href="#mcf28351356" x="57.6" y="131.02779" style="stroke: #000000; stroke-width: 0.8"/>
      </g>
     </g>
     <g id="text_13">
      <!-- 0.002 -->
      <g transform="translate(25.6 134.46529)scale(0.1 -0.1)">
       <use xlink:href="#SimHei-30"/>
       <use xlink:href="#SimHei-2e" x="50"/>
       <use xlink:href="#SimHei-30" x="100"/>
       <use xlink:href="#SimHei-30" x="150"/>
       <use xlink:href="#SimHei-32" x="200"/>
      </g>
     </g>
    </g>
    <g id="ytick_7">
     <g id="line2d_13">
      <g>
       <use xlink:href="#mcf28351356" x="57.6" y="96.474038" style="stroke: #000000; stroke-width: 0.8"/>
      </g>
     </g>
     <g id="text_14">
      <!-- 0.004 -->
      <g transform="translate(25.6 99.911538)scale(0.1 -0.1)">
       <use xlink:href="#SimHei-30"/>
       <use xlink:href="#SimHei-2e" x="50"/>
       <use xlink:href="#SimHei-30" x="100"/>
       <use xlink:href="#SimHei-30" x="150"/>
       <use xlink:href="#SimHei-34" x="200"/>
      </g>
     </g>
    </g>
    <g id="ytick_8">
     <g id="line2d_14">
      <g>
       <use xlink:href="#mcf28351356" x="57.6" y="61.920285" style="stroke: #000000; stroke-width: 0.8"/>
      </g>
     </g>
     <g id="text_15">
      <!-- 0.006 -->
      <g transform="translate(25.6 65.357785)scale(0.1 -0.1)">
       <use xlink:href="#SimHei-30"/>
       <use xlink:href="#SimHei-2e" x="50"/>
       <use xlink:href="#SimHei-30" x="100"/>
       <use xlink:href="#SimHei-30" x="150"/>
       <use xlink:href="#SimHei-36" x="200"/>
      </g>
     </g>
    </g>
    <g id="text_16">
     <!-- 角位移差/m -->
     <g transform="translate(15.35 199.528)rotate(-90)scale(0.1 -0.1)">
      <defs>
       <path id="SimHei-89d2" d="M 3125 900 
L 1625 900 
Q 1475 125 875 -625 
Q 650 -400 400 -300 
Q 775 50 975 475 
Q 1175 900 1250 1575 
Q 1325 2250 1300 3325 
Q 1100 3125 825 2925 
Q 700 3125 425 3325 
Q 650 3425 1075 3737 
Q 1500 4050 1850 4512 
Q 2200 4975 2350 5275 
Q 2550 5125 2825 5000 
Q 2700 4875 2425 4525 
L 4825 4525 
Q 4700 4375 4050 3475 
L 5600 3475 
Q 5575 2925 5575 2500 
L 5575 25 
Q 5575 -350 5325 -450 
Q 5075 -550 4575 -600 
Q 4500 -325 4325 -50 
Q 4825 -50 4975 0 
Q 5125 50 5100 325 
L 5100 900 
L 3600 900 
L 3600 400 
Q 3600 25 3625 -500 
L 3075 -500 
Q 3125 0 3125 500 
L 3125 900 
z
M 3525 3475 
L 3975 4125 
L 2150 4125 
Q 1825 3775 1475 3475 
L 3525 3475 
z
M 5100 1300 
L 5100 2000 
L 3600 2000 
L 3600 1300 
L 5100 1300 
z
M 5100 2400 
L 5100 3050 
L 3600 3050 
L 3600 2400 
L 5100 2400 
z
M 3125 1300 
L 3125 2000 
L 1750 2000 
Q 1750 1625 1700 1300 
L 3125 1300 
z
M 3125 2400 
L 3125 3050 
L 1775 3050 
L 1775 2400 
L 3125 2400 
z
" transform="scale(0.015625)"/>
       <path id="SimHei-4f4d" d="M 2125 4925 
Q 1950 4750 1625 3750 
L 1625 575 
Q 1625 -225 1650 -650 
L 1100 -650 
Q 1150 -200 1150 550 
L 1150 2950 
Q 775 2275 550 1950 
Q 375 2275 200 2425 
Q 525 2775 912 3575 
Q 1300 4375 1500 5200 
Q 1825 5000 2125 4925 
z
M 5375 3025 
Q 5275 2875 5100 2250 
Q 4925 1625 4600 300 
L 5450 300 
Q 5925 300 6100 325 
L 6100 -175 
Q 5875 -150 5450 -150 
L 2900 -150 
Q 2275 -150 2050 -175 
L 2050 325 
Q 2275 300 2850 300 
L 4075 300 
Q 4400 1400 4700 3175 
Q 5100 3075 5375 3025 
z
M 5250 4025 
Q 5700 4025 5925 4050 
L 5925 3575 
Q 5700 3600 5225 3600 
L 3000 3600 
Q 2650 3600 2275 3575 
L 2275 4050 
Q 2675 4025 3000 4025 
L 5250 4025 
z
M 3050 3050 
Q 3500 1775 3750 725 
Q 3450 625 3250 550 
Q 3125 1125 2962 1675 
Q 2800 2225 2550 2875 
Q 2800 2925 3050 3050 
z
M 3875 5200 
Q 4175 4675 4400 4300 
Q 4200 4250 3875 4075 
Q 3700 4525 3400 4950 
Q 3650 5050 3875 5200 
z
" transform="scale(0.015625)"/>
       <path id="SimHei-79fb" d="M 4475 5050 
Q 4300 4875 4075 4500 
L 5850 4500 
Q 5475 3625 5212 3312 
Q 4950 3000 4450 2650 
Q 4675 2575 4925 2500 
Q 4775 2300 4650 2075 
L 6100 2075 
Q 5900 1325 5550 825 
Q 5200 325 4787 37 
Q 4375 -250 3900 -387 
Q 3425 -525 2950 -650 
Q 2850 -425 2600 -125 
Q 3275 -50 3712 37 
Q 4150 125 4525 400 
Q 4375 625 4000 1000 
Q 4125 1100 4325 1250 
Q 4525 1075 4900 675 
Q 5075 900 5250 1162 
Q 5425 1425 5500 1700 
L 4375 1700 
Q 4175 1500 3950 1287 
Q 3725 1075 3350 800 
Q 3150 1025 2950 1150 
Q 3600 1525 3875 1837 
Q 4150 2150 4325 2550 
Q 4025 2350 3750 2225 
Q 3475 2100 3050 1950 
Q 2950 2200 2675 2475 
Q 3150 2525 3475 2637 
Q 3800 2750 4225 3000 
Q 3875 3300 3675 3475 
Q 3775 3600 4000 3775 
Q 4325 3500 4575 3250 
Q 4775 3425 4925 3625 
Q 5075 3825 5175 4125 
L 3850 4125 
Q 3525 3600 3250 3275 
Q 3025 3425 2800 3550 
Q 3250 4000 3475 4387 
Q 3700 4775 3850 5225 
Q 4225 5100 4475 5050 
z
M 2850 4650 
Q 2650 4650 2400 4600 
Q 2150 4550 2000 4525 
L 2000 3425 
Q 2375 3425 2825 3450 
L 2825 3050 
Q 2375 3075 2000 3075 
L 2000 2175 
Q 2100 2300 2325 2525 
Q 2550 2225 2687 2062 
Q 2825 1900 3000 1675 
Q 2775 1550 2625 1375 
Q 2475 1600 2337 1737 
Q 2200 1875 2000 2100 
L 2000 525 
Q 2000 150 2025 -475 
L 1525 -475 
Q 1550 150 1550 525 
L 1550 2075 
Q 1400 1700 1237 1412 
Q 1075 1125 750 650 
Q 525 900 275 1050 
Q 450 1200 637 1425 
Q 825 1650 987 1937 
Q 1150 2225 1275 2525 
Q 1400 2825 1475 3075 
Q 1075 3075 350 3050 
L 350 3450 
Q 1075 3425 1550 3425 
L 1550 4425 
Q 925 4325 625 4250 
Q 525 4525 425 4725 
Q 825 4775 1025 4787 
Q 1225 4800 1475 4850 
L 2000 4975 
Q 2275 5050 2575 5150 
Q 2675 4900 2850 4650 
z
" transform="scale(0.015625)"/>
       <path id="SimHei-5dee" d="M 4725 4975 
Q 4500 4725 4250 4275 
L 4850 4275 
Q 5450 4275 5825 4300 
L 5825 3850 
Q 5425 3875 4850 3875 
L 3275 3875 
Q 3225 3600 3150 3275 
L 4525 3275 
Q 5075 3275 5525 3300 
L 5525 2850 
Q 5075 2875 4500 2875 
L 3050 2875 
Q 2975 2650 2850 2325 
L 5125 2325 
Q 5675 2325 6025 2350 
L 6025 1900 
Q 5700 1925 5150 1925 
L 2650 1925 
Q 2425 1550 2250 1300 
Q 2650 1275 3100 1275 
L 4525 1275 
Q 4975 1275 5350 1300 
L 5350 850 
Q 4975 875 4575 875 
L 3925 875 
L 3925 -50 
L 5000 -50 
Q 5200 -50 5900 -25 
L 5900 -500 
Q 5275 -475 5025 -475 
L 2100 -475 
Q 1700 -475 1400 -500 
L 1400 -25 
Q 1775 -50 2125 -50 
L 3425 -50 
L 3425 875 
L 3100 875 
Q 2625 875 2175 850 
L 2175 1200 
Q 1925 875 1487 475 
Q 1050 75 625 -250 
Q 425 -25 200 150 
Q 750 475 1262 925 
Q 1775 1375 2100 1925 
L 1325 1925 
Q 750 1925 375 1900 
L 375 2350 
Q 750 2325 1350 2325 
L 2325 2325 
Q 2450 2575 2550 2875 
L 1725 2875 
Q 1375 2875 1000 2850 
L 1000 3300 
Q 1500 3275 1700 3275 
L 2650 3275 
Q 2725 3575 2775 3875 
L 1500 3875 
Q 1100 3875 650 3850 
L 650 4300 
Q 1025 4275 1425 4275 
L 2275 4275 
Q 2075 4675 1850 4950 
Q 2025 5050 2250 5225 
Q 2450 4975 2725 4550 
Q 2525 4450 2325 4275 
L 3750 4275 
Q 4000 4700 4150 5250 
Q 4400 5100 4725 4975 
z
" transform="scale(0.015625)"/>
       <path id="SimHei-6d" d="M 3050 125 
L 2550 125 
L 2550 2150 
Q 2550 2300 2500 2400 
Q 2450 2500 2300 2500 
Q 2125 2500 1975 2312 
Q 1825 2125 1825 1825 
L 1825 125 
L 1325 125 
L 1325 2150 
Q 1325 2300 1275 2400 
Q 1225 2500 1075 2500 
Q 900 2500 750 2312 
Q 600 2125 600 1825 
L 600 125 
L 100 125 
L 100 2925 
L 600 2925 
L 600 2550 
Q 725 2750 900 2862 
Q 1075 2975 1275 2975 
Q 1475 2975 1612 2862 
Q 1750 2750 1800 2550 
Q 1925 2750 2087 2862 
Q 2250 2975 2450 2975 
Q 2750 2975 2900 2812 
Q 3050 2650 3050 2350 
L 3050 125 
z
" transform="scale(0.015625)"/>
      </defs>
      <use xlink:href="#SimHei-89d2"/>
      <use xlink:href="#SimHei-4f4d" x="100"/>
      <use xlink:href="#SimHei-79fb" x="200"/>
      <use xlink:href="#SimHei-5dee" x="300"/>
      <use xlink:href="#SimHei-2f" x="400"/>
      <use xlink:href="#SimHei-6d" x="450"/>
     </g>
    </g>
   </g>
   <g id="line2d_15">
    <path d="M 73.832727 165.581542 
L 73.962602 165.13727 
L 74.352226 163.975549 
L 74.579507 163.815224 
L 74.741851 163.982416 
L 74.969132 164.644111 
L 75.293819 166.490427 
L 75.715912 170.444352 
L 76.300349 178.368161 
L 78.216002 206.432161 
L 78.573158 208.326954 
L 78.76797 208.525978 
L 78.897845 208.301225 
L 79.092657 207.401228 
L 79.384875 204.735122 
L 79.7745 198.669736 
L 80.26153 187.177907 
L 80.910904 166.10422 
L 83.443463 77.271405 
L 83.865556 71.274287 
L 84.125306 69.848202 
L 84.222712 69.785333 
L 84.25518 69.822802 
L 84.385055 70.26793 
L 84.612336 72.196466 
L 84.937023 77.508285 
L 85.359116 88.834325 
L 85.911084 110.61462 
L 86.657864 150.038331 
L 88.865736 273.242026 
L 89.385235 288.930129 
L 89.742391 294.420151 
L 89.969672 295.488 
L 90.034609 295.438982 
L 90.164484 294.866832 
L 90.391765 292.350772 
L 90.716452 285.486346 
L 91.138545 271.184608 
L 91.722982 242.905889 
L 92.664574 184.536222 
L 94.060728 99.604711 
L 94.742571 70.937299 
L 95.229602 58.505811 
L 95.586757 54.167358 
L 95.781569 53.568 
L 95.878976 53.739167 
L 96.041319 54.719457 
L 96.301069 58.071763 
L 96.658224 66.136364 
L 97.145255 83.005879 
L 97.827098 115.614212 
L 100.132375 233.887011 
L 100.651875 247.425671 
L 101.00903 252.138835 
L 101.236311 253.155474 
L 101.333717 253.127443 
L 101.463592 252.66772 
L 101.690873 250.741919 
L 102.01556 245.687204 
L 102.470122 234.699782 
L 103.151965 212.163923 
L 105.100087 144.860083 
L 105.684523 132.970585 
L 106.106616 128.251965 
L 106.398835 126.991383 
L 106.52871 126.957965 
L 106.658584 127.243542 
L 106.885865 128.490729 
L 107.210552 131.830691 
L 107.665114 139.199103 
L 108.346957 154.394074 
L 109.743111 186.061523 
L 110.230142 192.438864 
L 110.554829 194.454654 
L 110.749641 194.730921 
L 110.879516 194.519064 
L 111.074328 193.610366 
L 111.366546 190.955829 
L 111.788639 184.61532 
L 112.373076 171.966229 
L 114.548479 121.078514 
L 114.970572 116.766631 
L 115.26279 115.639328 
L 115.392665 115.661558 
L 115.555009 116.157494 
L 115.78229 117.742881 
L 116.106977 121.83351 
L 116.52907 130.327441 
L 117.081038 146.471334 
L 117.860286 176.807 
L 119.613596 247.223609 
L 120.133095 258.919671 
L 120.457783 262.429523 
L 120.652595 262.991084 
L 120.750001 262.824575 
L 120.912344 261.878908 
L 121.172094 258.636452 
L 121.52925 250.814974 
L 122.01628 234.490473 
L 122.730592 201.670261 
L 124.841057 98.914895 
L 125.425494 82.186494 
L 125.847587 75.415204 
L 126.139805 73.567031 
L 126.237211 73.484442 
L 126.26968 73.516847 
L 126.399555 73.947456 
L 126.626836 75.863525 
L 126.951523 81.157645 
L 127.373616 92.408908 
L 127.925584 113.908515 
L 128.704833 154.149971 
L 130.458143 247.389448 
L 131.01011 264.823073 
L 131.399735 271.272815 
L 131.659484 272.684671 
L 131.756891 272.614873 
L 131.886765 272.019452 
L 132.114046 269.627974 
L 132.438733 263.393264 
L 132.893295 249.770439 
L 133.575138 221.491298 
L 135.750541 125.634386 
L 136.334977 110.54564 
L 136.757071 104.223344 
L 137.049289 102.249971 
L 137.211632 102.020901 
L 137.309039 102.181432 
L 137.503851 103.169156 
L 137.7636 105.846279 
L 138.153225 112.641366 
L 138.672724 126.291684 
L 139.451973 153.632895 
L 140.848127 202.874664 
L 141.400095 214.866907 
L 141.789719 219.199637 
L 142.017 220.031818 
L 142.114406 220.00527 
L 142.244281 219.617725 
L 142.471562 217.998939 
L 142.796249 213.74623 
L 143.250811 204.517725 
L 143.965122 184.850588 
L 145.491151 142.176117 
L 146.075588 132.00371 
L 146.465212 128.275872 
L 146.724962 127.28974 
L 146.854837 127.263523 
L 146.984712 127.553182 
L 147.211992 128.824798 
L 147.536679 132.322725 
L 147.958773 139.728512 
L 148.510741 153.772842 
L 149.354927 181.822151 
L 150.588737 222.137743 
L 151.108237 232.758313 
L 151.465392 236.421133 
L 151.660205 237.014214 
L 151.757611 236.925254 
L 151.919954 236.200601 
L 152.179704 233.550691 
L 152.53686 227.023533 
L 153.02389 213.347654 
L 153.738201 186.154122 
L 155.491511 117.040708 
L 156.075948 102.644112 
L 156.498041 96.619403 
L 156.790259 94.799902 
L 156.920134 94.631819 
L 156.952603 94.652241 
L 157.082478 94.985294 
L 157.27729 96.242892 
L 157.569508 99.839553 
L 157.959133 107.791188 
L 158.478632 123.715515 
L 159.160475 152.413738 
L 161.498221 258.459305 
L 161.920314 266.91197 
L 162.212533 269.352674 
L 162.309939 269.520837 
L 162.342407 269.504733 
L 162.439813 269.240248 
L 162.634626 267.745789 
L 162.926844 263.157582 
L 163.316468 252.991328 
L 163.868436 232.074733 
L 164.842497 184.854289 
L 166.043839 129.718886 
L 166.693213 108.951606 
L 167.180244 99.226136 
L 167.5374 95.596508 
L 167.76468 94.888077 
L 167.862087 94.970464 
L 168.02443 95.623861 
L 168.28418 98.00648 
L 168.641335 103.920632 
L 169.095897 115.617718 
L 169.712803 137.847584 
L 170.914145 191.710271 
L 171.790799 225.779233 
L 172.310299 238.541288 
L 172.667454 243.056382 
L 172.894735 243.997968 
L 172.992141 243.939185 
L 173.122016 243.434602 
L 173.349297 241.409231 
L 173.673984 236.145738 
L 174.128546 224.734023 
L 174.842857 200.257966 
L 176.53123 140.681441 
L 177.148135 127.020803 
L 177.602697 121.324482 
L 177.894915 119.781365 
L 178.02479 119.641774 
L 178.057259 119.659736 
L 178.187134 119.943259 
L 178.381946 121.002397 
L 178.674164 124.001153 
L 179.063789 130.535559 
L 179.583288 143.31254 
L 180.362537 168.81906 
L 181.791159 216.07304 
L 182.310659 226.26135 
L 182.667814 229.578324 
L 182.862627 229.996036 
L 182.960033 229.828544 
L 183.122376 228.992755 
L 183.382126 226.235046 
L 183.739282 219.75506 
L 184.258781 205.614826 
L 185.102967 175.336661 
L 186.369246 131.178909 
L 186.986152 116.863349 
L 187.440714 110.793029 
L 187.732932 109.095652 
L 187.895275 108.924882 
L 188.02515 109.190631 
L 188.219962 110.263501 
L 188.512181 113.389368 
L 188.901805 120.345016 
L 189.421304 134.299081 
L 190.103147 159.420986 
L 192.311019 246.819172 
L 192.733112 254.37806 
L 193.02533 256.491858 
L 193.122736 256.59983 
L 193.155205 256.568791 
L 193.28508 256.109227 
L 193.479892 254.419545 
L 193.77211 249.695054 
L 194.194203 238.601112 
L 194.77864 216.555687 
L 197.343667 110.499715 
L 197.830698 101.028775 
L 198.187854 97.48316 
L 198.415135 96.777437 
L 198.512541 96.848375 
L 198.674884 97.465938 
L 198.902165 99.377426 
L 199.226852 104.203546 
L 199.648945 114.033897 
L 200.233382 133.629791 
L 201.077568 170.753418 
L 202.506191 233.517041 
L 203.058159 248.503897 
L 203.447783 253.885349 
L 203.675064 254.847229 
L 203.77247 254.760279 
L 203.934814 253.954477 
L 204.194563 250.987957 
L 204.551719 243.755897 
L 205.03875 228.897914 
L 205.850467 195.98494 
L 207.27909 138.313521 
L 207.928464 120.816129 
L 208.415495 113.027336 
L 208.740182 110.584971 
L 208.934994 110.202362 
L 209.0324 110.317251 
L 209.194743 110.961819 
L 209.454493 113.16263 
L 209.811649 118.484151 
L 210.298679 129.746797 
L 210.948053 150.738332 
L 213.155925 227.846985 
L 213.578018 234.1603 
L 213.837768 235.683528 
L 213.935174 235.773265 
L 213.967643 235.744567 
L 214.097517 235.337648 
L 214.324798 233.515721 
L 214.649485 228.572139 
L 215.104047 217.564657 
L 215.78589 194.638182 
L 217.571668 132.11688 
L 218.156105 119.935132 
L 218.578198 115.132882 
L 218.837948 113.954431 
L 218.967823 113.883273 
L 219.097697 114.15941 
L 219.29251 115.22485 
L 219.584728 118.278063 
L 219.974352 124.99652 
L 220.493852 138.325286 
L 221.208163 163.228293 
L 223.156285 234.727768 
L 223.610847 243.077727 
L 223.903065 245.462748 
L 224.03294 245.722316 
L 224.065409 245.709013 
L 224.195284 245.342172 
L 224.390096 243.855018 
L 224.682314 239.568596 
L 225.104407 229.360757 
L 225.688844 208.939628 
L 228.188934 113.635715 
L 228.675964 105.201445 
L 229.03312 102.291965 
L 229.227932 101.908437 
L 229.325338 102.037744 
L 229.487682 102.729252 
L 229.747431 105.068245 
L 230.104587 110.721939 
L 230.559149 121.815605 
L 231.176054 143.026232 
L 232.150115 185.824566 
L 233.28652 233.495819 
L 233.838488 248.471244 
L 234.228112 253.980765 
L 234.455393 255.037354 
L 234.552799 254.990506 
L 234.682674 254.461462 
L 234.909955 252.268853 
L 235.234642 246.456257 
L 235.689204 233.605561 
L 236.371047 206.786988 
L 238.2867 127.45885 
L 238.871137 112.965837 
L 239.29323 106.909609 
L 239.585448 105.005883 
L 239.747792 104.770141 
L 239.845198 104.911145 
L 240.007541 105.615839 
L 240.267291 107.954992 
L 240.624446 113.55097 
L 241.111477 125.355491 
L 241.760851 147.430928 
L 244.163535 236.408872 
L 244.553159 242.03803 
L 244.812909 243.391341 
L 244.910315 243.389598 
L 245.04019 242.95524 
L 245.267471 241.023964 
L 245.592158 235.794388 
L 246.04672 224.15469 
L 246.728562 199.8847 
L 248.54681 132.244563 
L 249.131246 119.218357 
L 249.553339 113.936716 
L 249.845558 112.430152 
L 249.975432 112.334266 
L 250.007901 112.365596 
L 250.137776 112.711926 
L 250.365057 114.165336 
L 250.689744 118.084212 
L 251.111837 126.285751 
L 251.663805 141.766142 
L 252.475522 171.621341 
L 253.904145 224.513254 
L 254.423645 236.325763 
L 254.7808 240.497109 
L 255.008081 241.290192 
L 255.105487 241.174553 
L 255.267831 240.37352 
L 255.52758 237.534667 
L 255.884736 230.668085 
L 256.371767 216.535887 
L 257.151015 186.418499 
L 258.579638 131.200774 
L 259.196544 115.539899 
L 259.651105 108.786911 
L 259.975792 106.650385 
L 260.138136 106.441039 
L 260.268011 106.687776 
L 260.462823 107.746979 
L 260.755041 110.872149 
L 261.144666 117.830173 
L 261.664165 131.724388 
L 262.346008 156.554464 
L 264.521411 240.819339 
L 264.943504 248.347037 
L 265.235722 250.540036 
L 265.333128 250.693717 
L 265.365597 250.680095 
L 265.463003 250.444518 
L 265.657815 249.101307 
L 265.950034 244.958512 
L 266.339658 235.750842 
L 266.891626 216.794593 
L 267.930624 171.48502 
L 268.969623 130.113402 
L 269.586528 113.437546 
L 270.04109 106.138678 
L 270.365777 103.707568 
L 270.560589 103.384277 
L 270.690464 103.643134 
L 270.885276 104.740319 
L 271.177494 107.962707 
L 271.567119 115.112239 
L 272.086618 129.331128 
L 272.80093 155.929417 
L 274.813989 235.361182 
L 275.268551 244.481611 
L 275.593238 247.439205 
L 275.755581 247.737779 
L 275.852987 247.535185 
L 276.015331 246.565009 
L 276.275081 243.405028 
L 276.632236 236.032882 
L 277.151736 220.031883 
L 278.02839 184.517603 
L 279.262201 136.053752 
L 279.911575 118.839499 
L 280.366137 111.687881 
L 280.690824 109.250053 
L 280.885636 108.878395 
L 280.983042 109.00035 
L 281.145386 109.658249 
L 281.405135 111.882458 
L 281.762291 117.23749 
L 282.249322 128.558472 
L 282.898696 149.744033 
L 285.30138 235.237433 
L 285.691004 240.560304 
L 285.950754 241.752373 
L 286.04816 241.697247 
L 286.178035 241.196559 
L 286.405315 239.159354 
L 286.730002 233.790196 
L 287.184564 221.94976 
L 287.866407 197.306451 
L 289.684654 128.476422 
L 290.269091 115.281435 
L 290.691184 110.006457 
L 290.983402 108.5707 
L 291.113277 108.523322 
L 291.243152 108.839971 
L 291.470433 110.266232 
L 291.79512 114.201295 
L 292.217213 122.523502 
L 292.769181 138.350686 
L 293.54843 167.862208 
L 295.171865 230.569351 
L 295.691364 242.162376 
L 296.04852 245.956144 
L 296.243332 246.454755 
L 296.340738 246.279221 
L 296.503082 245.357759 
L 296.762831 242.275836 
L 297.119987 234.984465 
L 297.639486 218.978276 
L 298.483672 184.405079 
L 299.78242 131.994046 
L 300.431794 114.392233 
L 300.886356 107.114666 
L 301.211043 104.671069 
L 301.405855 104.331149 
L 301.53573 104.575371 
L 301.730543 105.645416 
L 302.022761 108.815563 
L 302.412385 115.874413 
L 302.931884 129.940049 
L 303.646196 156.303262 
L 305.691724 236.541667 
L 306.146286 245.467259 
L 306.470973 248.274929 
L 306.600848 248.514422 
L 306.633316 248.494446 
L 306.763191 248.095295 
L 306.958003 246.546477 
L 307.250222 242.151626 
L 307.672315 231.792532 
L 308.256751 211.257043 
L 310.659435 119.454421 
L 311.146466 110.431764 
L 311.503622 107.029439 
L 311.730903 106.323015 
L 311.828309 106.36953 
L 311.990652 106.911782 
L 312.217933 108.639838 
L 312.54262 113.030751 
L 312.997182 122.789747 
L 313.581619 140.788178 
L 314.490742 176.923424 
L 315.724553 224.64642 
L 316.276521 238.207083 
L 316.666145 243.071301 
L 316.893426 243.904679 
L 316.990832 243.798168 
L 317.153176 243.003103 
L 317.412925 240.154123 
L 317.770081 233.24627 
L 318.257112 219.033453 
L 319.03636 188.786338 
L 320.464983 133.380946 
L 321.081889 117.638581 
L 321.53645 110.819535 
L 321.861137 108.629155 
L 322.023481 108.389205 
L 322.120887 108.519729 
L 322.283231 109.193566 
L 322.54298 111.447868 
L 322.900136 116.854159 
L 323.387166 128.266401 
L 324.03654 149.629481 
L 325.335288 202.385393 
L 326.147006 230.097027 
L 326.634036 240.372712 
L 326.958724 243.723764 
L 327.153536 244.276677 
L 327.250942 244.134927 
L 327.413285 243.279488 
L 327.673035 240.327735 
L 328.030191 233.260962 
L 328.517221 218.788629 
L 329.29647 188.017281 
L 330.725093 131.51509 
L 331.341998 115.388015 
L 331.79656 108.362086 
L 332.121247 106.071151 
L 332.283591 105.796783 
L 332.316059 105.811856 
L 332.445934 106.105103 
L 332.640746 107.241287 
L 332.932965 110.492797 
L 333.322589 117.622567 
L 333.842088 131.702916 
L 334.5564 157.902971 
L 336.53699 234.795444 
L 337.024021 244.418972 
L 337.348708 247.171378 
L 337.478583 247.397099 
L 337.511051 247.374371 
L 337.640926 246.966815 
L 337.835738 245.412558 
L 338.127957 241.022904 
L 338.55005 230.690142 
L 339.134487 210.201905 
L 341.53717 118.394158 
L 342.024201 109.379732 
L 342.381357 106.003803 
L 342.608638 105.324822 
L 342.706044 105.385788 
L 342.868387 105.955797 
L 343.095668 107.730511 
L 343.420355 112.203865 
L 343.874917 122.108891 
L 344.459354 140.345716 
L 345.368477 176.96132 
L 346.602288 225.520084 
L 347.154256 239.479765 
L 347.54388 244.607135 
L 347.771161 245.579031 
L 347.868567 245.527332 
L 347.998442 245.020863 
L 348.225723 242.945822 
L 348.55041 237.464126 
L 349.004972 225.359355 
L 349.686814 200.118124 
L 351.53753 128.067993 
L 352.121967 114.488614 
L 352.54406 109.009117 
L 352.836279 107.468016 
L 352.966153 107.383103 
L 353.096028 107.667713 
L 353.29084 108.784355 
L 353.583059 111.99045 
L 353.972683 119.025046 
L 354.492182 132.901693 
L 355.206494 158.630898 
L 357.122147 231.214709 
L 357.609178 240.837188 
L 357.933865 243.692032 
L 358.096208 243.97552 
L 358.193614 243.774431 
L 358.355958 242.822803 
L 358.615707 239.728611 
L 358.972863 232.501068 
L 359.492362 216.765407 
L 360.336549 183.037143 
L 361.635297 132.424804 
L 362.252202 116.350446 
L 362.706764 109.323916 
L 363.031451 107.014922 
L 363.193794 106.726555 
L 363.226263 106.738448 
L 363.356138 107.017737 
L 363.55095 108.129302 
L 363.843168 111.335588 
L 364.232793 118.388743 
L 364.752292 132.333634 
L 365.466603 158.270891 
L 367.447194 233.967409 
L 367.901756 242.847348 
L 368.226443 245.713762 
L 368.388787 245.987745 
L 368.486193 245.775957 
L 368.681005 244.50957 
L 368.973223 240.553659 
L 369.362848 231.719449 
L 369.914815 213.490951 
L 370.953814 169.878392 
L 371.960344 131.194171 
L 372.577249 115.007518 
L 373.031811 107.975464 
L 373.356498 105.697555 
L 373.518841 105.434804 
L 373.55131 105.45259 
L 373.681185 105.757948 
L 373.875997 106.915861 
L 374.168215 110.206945 
L 374.55784 117.398476 
L 375.077339 131.562628 
L 375.79165 157.830944 
L 377.739773 233.318822 
L 378.226803 243.071188 
L 378.55149 245.946004 
L 378.713834 246.220807 
L 378.81124 246.008895 
L 379.006052 244.741702 
L 379.29827 240.785799 
L 379.687895 231.960491 
L 380.239863 213.775507 
L 381.31133 168.976513 
L 382.317859 130.924421 
L 382.934765 115.257661 
L 383.389327 108.618548 
L 383.714014 106.61293 
L 383.843888 106.461168 
L 383.876357 106.481451 
L 384.006232 106.795185 
L 384.201044 107.960676 
L 384.493262 111.251212 
L 384.882887 118.417403 
L 385.402386 132.496321 
L 386.116697 158.527696 
L 388.032351 231.726689 
L 388.519381 241.413817 
L 388.844068 244.291975 
L 389.006412 244.582092 
L 389.103818 244.383573 
L 389.266162 243.434139 
L 389.525911 240.338828 
L 389.883067 233.102728 
L 390.402566 217.345728 
L 391.246752 183.571402 
L 392.5455 132.85247 
L 393.162406 116.703265 
L 393.616968 109.612608 
L 393.941655 107.254794 
L 394.136467 106.948352 
L 394.266342 107.20751 
L 394.461154 108.288778 
L 394.753372 111.449599 
L 395.142996 118.442153 
L 395.662496 132.304635 
L 396.376807 158.116577 
L 398.324929 232.500012 
L 398.487273 236.365513 
L 398.487273 236.365513 
" clip-path="url(#p9ae7a22cff)" style="fill: none; stroke: #ff0000; stroke-linecap: square"/>
   </g>
   <g id="patch_3">
    <path d="M 57.6 307.584 
L 57.6 41.472 
" style="fill: none; stroke: #000000; stroke-width: 0.8; stroke-linejoin: miter; stroke-linecap: square"/>
   </g>
   <g id="patch_4">
    <path d="M 414.72 307.584 
L 414.72 41.472 
" style="fill: none; stroke: #000000; stroke-width: 0.8; stroke-linejoin: miter; stroke-linecap: square"/>
   </g>
   <g id="patch_5">
    <path d="M 57.6 307.584 
L 414.72 307.584 
" style="fill: none; stroke: #000000; stroke-width: 0.8; stroke-linejoin: miter; stroke-linecap: square"/>
   </g>
   <g id="patch_6">
    <path d="M 57.6 41.472 
L 414.72 41.472 
" style="fill: none; stroke: #000000; stroke-width: 0.8; stroke-linejoin: miter; stroke-linecap: square"/>
   </g>
  </g>
 </g>
 <defs>
  <clipPath id="p9ae7a22cff">
   <rect x="57.6" y="41.472" width="357.12" height="266.112"/>
  </clipPath>
 </defs>
</svg>
